<svg xmlns="http://www.w3.org/2000/svg" xmlns:xlink="http://www.w3.org/1999/xlink" width="505" height="389.333" viewBox="0 0 505 389.333">
  <defs>
    <clipPath id="clip-path">
      <rect id="Rectángulo_401588" data-name="Rectángulo 401588" width="143.042" height="86.261" fill="none"/>
    </clipPath>
    <clipPath id="clip-path-2">
      <rect id="Rectángulo_401589" data-name="Rectángulo 401589" width="3.741" height="9.082" fill="none"/>
    </clipPath>
    <clipPath id="clip-path-3">
      <rect id="Rectángulo_401590" data-name="Rectángulo 401590" width="3.882" height="116.678" fill="none"/>
    </clipPath>
    <clipPath id="clip-path-4">
      <rect id="Rectángulo_401591" data-name="Rectángulo 401591" width="16.648" height="46.971" fill="none"/>
    </clipPath>
    <clipPath id="clip-path-7">
      <rect id="Rectángulo_401594" data-name="Rectángulo 401594" width="16.648" height="46.972" fill="none"/>
    </clipPath>
    <clipPath id="clip-path-10">
      <rect id="Rectángulo_401597" data-name="Rectángulo 401597" width="29.029" height="112.957" fill="none"/>
    </clipPath>
    <clipPath id="clip-path-11">
      <rect id="Rectángulo_401598" data-name="Rectángulo 401598" width="4.332" height="12.305" fill="none"/>
    </clipPath>
    <clipPath id="clip-path-12">
      <rect id="Rectángulo_401599" data-name="Rectángulo 401599" width="68.353" height="132.125" fill="none"/>
    </clipPath>
    <clipPath id="clip-path-13">
      <rect id="Rectángulo_401600" data-name="Rectángulo 401600" width="29.028" height="112.957" fill="none"/>
    </clipPath>
    <clipPath id="clip-path-14">
      <rect id="Rectángulo_401601" data-name="Rectángulo 401601" width="14.515" height="95.446" fill="none"/>
    </clipPath>
    <clipPath id="clip-path-15">
      <rect id="Rectángulo_401603" data-name="Rectángulo 401603" width="24.243" height="94.333" fill="none"/>
    </clipPath>
    <clipPath id="clip-path-16">
      <rect id="Rectángulo_401604" data-name="Rectángulo 401604" width="3.618" height="10.276" fill="none"/>
    </clipPath>
    <clipPath id="clip-path-17">
      <rect id="Rectángulo_401605" data-name="Rectángulo 401605" width="57.083" height="110.341" fill="none"/>
    </clipPath>
    <clipPath id="clip-path-18">
      <rect id="Rectángulo_401606" data-name="Rectángulo 401606" width="24.242" height="94.333" fill="none"/>
    </clipPath>
    <clipPath id="clip-path-19">
      <rect id="Rectángulo_401607" data-name="Rectángulo 401607" width="12.122" height="79.709" fill="none"/>
    </clipPath>
    <clipPath id="clip-path-20">
      <rect id="Rectángulo_401609" data-name="Rectángulo 401609" width="60.6" height="120.078" fill="none"/>
    </clipPath>
    <clipPath id="clip-path-21">
      <rect id="Rectángulo_401610" data-name="Rectángulo 401610" width="25.61" height="28.759" fill="none"/>
    </clipPath>
    <clipPath id="clip-path-22">
      <rect id="Rectángulo_401611" data-name="Rectángulo 401611" width="19.651" height="37.44" fill="none"/>
    </clipPath>
    <clipPath id="clip-path-23">
      <rect id="Rectángulo_401612" data-name="Rectángulo 401612" width="21.627" height="26.852" fill="none"/>
    </clipPath>
    <clipPath id="clip-path-24">
      <rect id="Rectángulo_401613" data-name="Rectángulo 401613" width="7.955" height="65.481" fill="none"/>
    </clipPath>
    <clipPath id="clip-path-25">
      <rect id="Rectángulo_401614" data-name="Rectángulo 401614" width="29.954" height="25.747" fill="none"/>
    </clipPath>
    <clipPath id="clip-path-26">
      <rect id="Rectángulo_401620" data-name="Rectángulo 401620" width="34.394" height="18.569" fill="none"/>
    </clipPath>
    <clipPath id="clip-path-27">
      <rect id="Rectángulo_401621" data-name="Rectángulo 401621" width="28.826" height="18.1" fill="none"/>
    </clipPath>
    <clipPath id="clip-path-28">
      <rect id="Rectángulo_401624" data-name="Rectángulo 401624" width="8.024" height="17.744" fill="none"/>
    </clipPath>
    <clipPath id="clip-path-29">
      <rect id="Rectángulo_401625" data-name="Rectángulo 401625" width="8.122" height="45.41" fill="none"/>
    </clipPath>
    <clipPath id="clip-path-30">
      <rect id="Rectángulo_401626" data-name="Rectángulo 401626" width="37.831" height="22.898" fill="none"/>
    </clipPath>
    <clipPath id="clip-path-31">
      <rect id="Rectángulo_401627" data-name="Rectángulo 401627" width="161.786" height="202.092" fill="none"/>
    </clipPath>
    <clipPath id="clip-path-32">
      <rect id="Rectángulo_401628" data-name="Rectángulo 401628" width="145.486" height="145.334" fill="none"/>
    </clipPath>
    <clipPath id="clip-path-33">
      <rect id="Rectángulo_401629" data-name="Rectángulo 401629" width="12.585" height="22.306" fill="none"/>
    </clipPath>
  </defs>
  <g id="Grupo_1099850" data-name="Grupo 1099850" transform="translate(-810 -1055.675)">
    <path id="Trazado_874363" data-name="Trazado 874363" d="M70.279,202.809c-88.548,46.144-88.546,120.957.005,167.1s232.117,46.144,320.666,0,88.546-120.957-.005-167.1-232.118-46.144-320.666,0" transform="translate(852.757 1040.49)" fill="#fafafa"/>
    <path id="Trazado_874366" data-name="Trazado 874366" d="M346.5,301.506,201.683,388.9a8.008,8.008,0,0,1-7.54,0l-2.065-1.244c-2.083-1.257-2.083-3.293,0-4.549l144.821-87.4a8.013,8.013,0,0,1,7.54,0l2.065,1.245c2.082,1.256,2.082,3.293,0,4.549" transform="translate(873.813 1029.063)" fill="#e1e1e1"/>
    <path id="Trazado_874367" data-name="Trazado 874367" d="M127.042,323.542,59.4,364.347,23.927,342.894,91.57,302.089Z" transform="translate(815.021 1028.402)" fill="#e1e1e1"/>
    <path id="Trazado_874369" data-name="Trazado 874369" d="M338.271,149.86a1.057,1.057,0,0,0-.039-.227.056.056,0,0,0-.008-.049.861.861,0,0,0-.054-.219,1.181,1.181,0,0,0-.14-.317.446.446,0,0,0-.078-.129.365.365,0,0,0-.07-.09.743.743,0,0,0-.155-.162l-.016-.016a1.038,1.038,0,0,0-.2-.122,1.655,1.655,0,0,0-1.594.211l-136.778,82.3c-1.306.789-2.373,2.715-2.373,5.474V354.076c0-1.174,0-1.167,0-1.161v.542a1.688,1.688,0,0,0,.853,1.488l.1.071c.039.024.078.048.124.073a.863.863,0,0,0,.2.073,1.283,1.283,0,0,0,.3.041,1.467,1.467,0,0,0,.785-.236l.063-.037.005,0,2.261-1.364L335.915,272.63a5.527,5.527,0,0,0,2.373-4.292V150.169c0-.106-.008-.212-.016-.309" transform="translate(871.717 1042.277)" fill="#fafafa"/>
    <path id="Trazado_874370" data-name="Trazado 874370" d="M336.966,149.114a.574.574,0,0,1,.266.062l.044.022.025.026.038.03.057.08.011.009.005.018.051.079a.389.389,0,0,1,.046.1l-.015.03.064.2,0,.019.012.025.012.038a.67.67,0,0,1,.009.069c.006.079.013.165.013.25V268.338a4.818,4.818,0,0,1-2.033,3.677L201.126,352.949l-2.2,1.328,0,0-.061.036-.059.036a.888.888,0,0,1-.447.142h0a.686.686,0,0,1-.156-.024.24.24,0,0,1-.045-.015l-.051-.028h0l-.1-.072-.026-.018-.027-.015a.978.978,0,0,1-.5-.865v-1.252h0v-115.7c0-2.678,1.05-4.266,2.033-4.859l136.775-82.3a1.474,1.474,0,0,1,.716-.241m0-.71a2.09,2.09,0,0,0-1.052.334l-136.778,82.3c-1.307.789-2.373,2.715-2.373,5.474V354.076c0-1.085,0-1.162,0-1.162h0v.541a1.688,1.688,0,0,0,.853,1.489l.1.07c.039.025.078.049.124.074a.848.848,0,0,0,.2.073,1.283,1.283,0,0,0,.3.041h.033a1.5,1.5,0,0,0,.752-.236l.063-.037.005,0,2.261-1.364L335.915,272.63a5.529,5.529,0,0,0,2.373-4.292V150.169c0-.106-.008-.212-.016-.309a1.057,1.057,0,0,0-.039-.227.056.056,0,0,0-.008-.049.931.931,0,0,0-.054-.219,1.182,1.182,0,0,0-.14-.317.433.433,0,0,0-.078-.129.365.365,0,0,0-.07-.09.747.747,0,0,0-.156-.162l-.016-.016a1.031,1.031,0,0,0-.2-.122,1.211,1.211,0,0,0-.542-.123" transform="translate(871.717 1042.277)" fill="#d268cc"/>
    <path id="Trazado_874371" data-name="Trazado 874371" d="M337.059,148.349a1.659,1.659,0,0,0-1.6.211l-136.777,82.3a5.54,5.54,0,0,0-2.373,4.291v4.8l-3.026-1.854v-4.747a5.516,5.516,0,0,1,2.366-4.283l136.785-82.3a1.588,1.588,0,0,1,1.719-.146c.428.268,2.4,1.446,2.9,1.723" transform="translate(871.873 1042.455)" fill="#d268cc"/>
    <path id="Trazado_874372" data-name="Trazado 874372" d="M338.282,150.152c-.01-1.564-1.065-2.2-2.368-1.411l-136.778,82.3a5.526,5.526,0,0,0-2.37,4.288l0,4.808,141.514-85.147Z" transform="translate(871.716 1042.277)" fill="#d268cc"/>
    <g id="Grupo_1099706" data-name="Grupo 1099706" transform="translate(1065.923 1188.893)" opacity="0.2">
      <g id="Grupo_1099705" data-name="Grupo 1099705" transform="translate(0)">
        <g id="Grupo_1099704" data-name="Grupo 1099704" clip-path="url(#clip-path)">
          <path id="Trazado_874373" data-name="Trazado 874373" d="M335.57,148.563,198.8,230.86a5,5,0,0,0-1.669,1.838l-3.012-1.822a4.865,4.865,0,0,1,1.649-1.809l136.78-82.3a1.607,1.607,0,0,1,1.722-.147c.425.273,2.393,1.441,2.892,1.721a1.654,1.654,0,0,0-1.588.218" transform="translate(-194.115 -146.437)" fill="#fff"/>
        </g>
      </g>
    </g>
    <g id="Grupo_1099709" data-name="Grupo 1099709" transform="translate(1021.734 1273.33)" opacity="0.15">
      <g id="Grupo_1099708" data-name="Grupo 1099708" transform="translate(0 0)">
        <g id="Grupo_1099707" data-name="Grupo 1099707" clip-path="url(#clip-path-2)">
          <path id="Trazado_874374" data-name="Trazado 874374" d="M193.285,246.49v-4.759a5.262,5.262,0,0,1,.722-2.476l3.019,1.814a5.166,5.166,0,0,0-.71,2.462v4.806Z" transform="translate(-193.285 -239.255)"/>
        </g>
      </g>
    </g>
    <path id="Trazado_874375" data-name="Trazado 874375" d="M347.333,156.7a2.551,2.551,0,0,0-1.006,2.009c0,.774.45,1.13,1.006.794a2.551,2.551,0,0,0,1.006-2.008c0-.774-.451-1.131-1.006-.8" transform="translate(856.714 1041.54)" fill="#fafafa"/>
    <path id="Trazado_874376" data-name="Trazado 874376" d="M351.493,154.294a2.55,2.55,0,0,0-1.006,2.009c0,.774.45,1.13,1.006.794a2.549,2.549,0,0,0,1.006-2.008c0-.774-.45-1.13-1.006-.8" transform="translate(856.682 1041.757)" fill="#fafafa"/>
    <path id="Trazado_874377" data-name="Trazado 874377" d="M355.653,151.889a2.552,2.552,0,0,0-1.006,2.009c0,.774.45,1.13,1.006.8a2.554,2.554,0,0,0,1.007-2.009c0-.774-.451-1.13-1.007-.8" transform="translate(856.651 1041.975)" fill="#fafafa"/>
    <path id="Trazado_874378" data-name="Trazado 874378" d="M197.167,363.875l-.123-.072-2.5-1.511a2.63,2.63,0,0,1-1.238-1.919,2.958,2.958,0,0,1-.023-.361V247.2l3.029,1.856v113.32a1.641,1.641,0,0,0,.737,1.406.465.465,0,0,0,.077.056c.008.008.008.016.015.016Z" transform="translate(828.472 1033.358)" fill="#d268cc"/>
    <g id="Grupo_1099712" data-name="Grupo 1099712" transform="translate(1021.756 1280.556)" opacity="0.5">
      <g id="Grupo_1099711" data-name="Grupo 1099711" transform="translate(0 0)">
        <g id="Grupo_1099710" data-name="Grupo 1099710" clip-path="url(#clip-path-3)">
          <path id="Trazado_874379" data-name="Trazado 874379" d="M197.167,363.875l-.123-.072-2.5-1.511a2.63,2.63,0,0,1-1.238-1.919,2.958,2.958,0,0,1-.023-.361V247.2l3.029,1.856v113.32a1.641,1.641,0,0,0,.737,1.406.465.465,0,0,0,.077.056c.008.008.008.016.015.016Z" transform="translate(-193.285 -247.197)" fill="#fff"/>
        </g>
      </g>
    </g>
    <path id="Trazado_874380" data-name="Trazado 874380" d="M221.2,269.9a.944.944,0,0,1-.825-.5,1.022,1.022,0,0,1,.344-1.367l8.344-5.091a.937.937,0,0,1,1.305.359,1.021,1.021,0,0,1-.344,1.367l-8.345,5.092a.933.933,0,0,1-.481.136" transform="translate(832.409 1031.948)" fill="#d268cc"/>
    <path id="Trazado_874381" data-name="Trazado 874381" d="M225.457,291.3a.937.937,0,0,1-.382-.083.994.994,0,0,1-.549-.692l-6.2-28.061-3.673-.74a.994.994,0,0,1-.757-1.17.956.956,0,0,1,1.121-.791l4.281.862a.969.969,0,0,1,.75.754l6.052,27.38,22.8-13.754,4.853-26.911-6.468,3.946a.934.934,0,0,1-1.305-.359,1.023,1.023,0,0,1,.345-1.368l8.277-5.049a.921.921,0,0,1,1.033.047,1.012,1.012,0,0,1,.386,1l-5.322,29.515a.991.991,0,0,1-.461.68l-24.3,14.657a.914.914,0,0,1-.476.135" transform="translate(837.45 1033.545)" fill="#d268cc"/>
    <path id="Trazado_874382" data-name="Trazado 874382" d="M226.117,303.052a2.317,2.317,0,0,1-1.215-.34,3.673,3.673,0,0,1-1.475-3.294,8.3,8.3,0,0,1,3.351-6.608l10.6-6.391a.936.936,0,0,1,1.305.366,1.025,1.025,0,0,1-.352,1.365l-10.6,6.391a6.3,6.3,0,0,0-2.4,4.877c0,.923.266,1.413.515,1.563.3.18.7-.027.923-.158l23.479-14.159a.934.934,0,0,1,1.305.366,1.024,1.024,0,0,1-.352,1.366l-23.475,14.16a3.155,3.155,0,0,1-1.619.5" transform="translate(835.988 1029.83)" fill="#d268cc"/>
    <path id="Trazado_874383" data-name="Trazado 874383" d="M229.212,315.133a2.347,2.347,0,0,1-1.226-.34,3.708,3.708,0,0,1-1.483-3.321,8.367,8.367,0,0,1,3.386-6.67,2.681,2.681,0,0,1,2.859-.158,3.709,3.709,0,0,1,1.483,3.32,8.362,8.362,0,0,1-3.39,6.669,3.16,3.16,0,0,1-1.63.5m2.307-8.832a1.422,1.422,0,0,0-.677.231,6.38,6.38,0,0,0-2.425,4.939c0,.939.273,1.438.527,1.59.291.182.718-.024.946-.159a6.372,6.372,0,0,0,2.428-4.939c0-.939-.273-1.436-.526-1.591a.534.534,0,0,0-.273-.071" transform="translate(832.649 1028.202)" fill="#d268cc"/>
    <path id="Trazado_874384" data-name="Trazado 874384" d="M248.316,304.1a2.344,2.344,0,0,1-1.226-.34,3.708,3.708,0,0,1-1.483-3.322,8.364,8.364,0,0,1,3.386-6.669,2.683,2.683,0,0,1,2.859-.16,3.714,3.714,0,0,1,1.483,3.322,8.362,8.362,0,0,1-3.39,6.669,3.16,3.16,0,0,1-1.63.5m2.307-8.832a1.432,1.432,0,0,0-.677.231,6.381,6.381,0,0,0-2.425,4.938c0,.94.273,1.439.526,1.591.287.18.719-.022.946-.16a6.372,6.372,0,0,0,2.428-4.938c0-.939-.273-1.436-.526-1.591a.517.517,0,0,0-.273-.071" transform="translate(834.703 1029.199)" fill="#d268cc"/>
    <path id="Trazado_874385" data-name="Trazado 874385" d="M236.227,271.115a5.347,5.347,0,0,1-2.8-.771c-2.292-1.381-3.6-4.481-3.6-8.508,0-7.266,4.274-15.752,9.525-18.919,2.481-1.5,4.921-1.672,6.869-.5,2.289,1.384,3.605,4.484,3.605,8.51,0,7.267-4.272,15.755-9.522,18.92a7.958,7.958,0,0,1-4.074,1.268m7.187-27.463a6.133,6.133,0,0,0-3.114,1c-4.721,2.847-8.564,10.558-8.564,17.188,0,3.293.965,5.763,2.648,6.778,1.324.8,3.091.627,4.964-.5,4.72-2.847,8.56-10.559,8.56-17.189,0-3.292-.965-5.762-2.648-6.778a3.532,3.532,0,0,0-1.846-.5" transform="translate(835.202 1033.859)" fill="#d268cc"/>
    <path id="Trazado_874386" data-name="Trazado 874386" d="M239.3,263.756a.937.937,0,0,1-.571-.2l-3.582-2.786a1.031,1.031,0,0,1-.2-1.4.937.937,0,0,1,1.339-.206L238.9,261.2l5.137-12.67a.939.939,0,0,1,1.256-.531,1.021,1.021,0,0,1,.507,1.31l-5.614,13.841a.979.979,0,0,1-.631.575.91.91,0,0,1-.25.036" transform="translate(834.141 1033.294)" fill="#d268cc"/>
    <path id="Trazado_874387" data-name="Trazado 874387" d="M237.292,307.088a.95.95,0,0,1-.828-.5,1.024,1.024,0,0,1,.352-1.366l5.322-3.212a.941.941,0,0,1,1.305.367,1.024,1.024,0,0,1-.352,1.366l-5.322,3.21a.9.9,0,0,1-.477.135" transform="translate(833.619 1028.422)" fill="#d268cc"/>
    <path id="Trazado_874388" data-name="Trazado 874388" d="M262.276,306.1l-44.609,26.91c-.495.3-.9-.018-.9-.708a2.269,2.269,0,0,1,.9-1.787l44.609-26.91c.495-.3.9.018.9.707a2.269,2.269,0,0,1-.9,1.787" transform="translate(838.628 1028.276)" fill="#e1e1e1"/>
    <path id="Trazado_874389" data-name="Trazado 874389" d="M262.276,313.931l-44.609,26.91c-.495.3-.9-.019-.9-.708a2.269,2.269,0,0,1,.9-1.787l44.609-26.91c.495-.3.9.018.9.707a2.269,2.269,0,0,1-.9,1.787" transform="translate(838.628 1027.568)" fill="#e1e1e1"/>
    <path id="Trazado_874390" data-name="Trazado 874390" d="M297.3,240.393,280.65,250.436V213.507L297.3,203.465Z" transform="translate(858.586 1037.307)" fill="#d268cc"/>
    <g id="Grupo_1099715" data-name="Grupo 1099715" transform="translate(1139.236 1240.771)" opacity="0.65">
      <g id="Grupo_1099714" data-name="Grupo 1099714" transform="translate(0 0)">
        <g id="Grupo_1099713" data-name="Grupo 1099713" clip-path="url(#clip-path-4)">
          <path id="Trazado_874391" data-name="Trazado 874391" d="M297.3,240.393,280.65,250.436V213.507L297.3,203.465Z" transform="translate(-280.65 -203.465)" fill="#fff"/>
        </g>
      </g>
    </g>
    <path id="Trazado_874392" data-name="Trazado 874392" d="M295.729,239.273l-12.962,7.818V215.365l12.962-7.818Zm-12.8,7.5,12.642-7.626V207.865l-12.642,7.626Z" transform="translate(858.221 1036.938)" fill="#d268cc"/>
    <path id="Trazado_874393" data-name="Trazado 874393" d="M282.9,234.649l-.1-.116,3.844-6.484,1.841.982,5.578-10.631,1.642,1.282-.111.224-1.534-1.2L288.5,229.32l-1.851-.986Z" transform="translate(858.215 1035.958)" fill="#d268cc"/>
    <path id="Trazado_874394" data-name="Trazado 874394" d="M289.388,223.577c-.919.554-1.666-.036-1.666-1.315a4.228,4.228,0,0,1,1.666-3.324c.919-.554,1.666.036,1.666,1.315a4.228,4.228,0,0,1-1.666,3.324m0-4.418a3.824,3.824,0,0,0-1.506,3.007c0,1.157.676,1.69,1.506,1.189a3.824,3.824,0,0,0,1.506-3.007c0-1.157-.676-1.69-1.506-1.189" transform="translate(857.276 1035.928)" fill="#d268cc"/>
    <path id="Trazado_874395" data-name="Trazado 874395" d="M286.789,216.507l-7.188,4.337v-4.018l7.188-4.337Z" transform="translate(857.69 1036.492)" fill="#f5f5f5"/>
    <path id="Trazado_874396" data-name="Trazado 874396" d="M285,214.658a.4.4,0,0,1,.185-.067.207.207,0,0,1,.131.035.228.228,0,0,1,.081.112.585.585,0,0,1,.032.162c0,.067.006.141.006.22s0,.154-.006.226a1.105,1.105,0,0,1-.032.2.975.975,0,0,1-.081.209.987.987,0,0,1-.131.192.758.758,0,0,1-.185.153.429.429,0,0,1-.184.069.2.2,0,0,1-.131-.033.23.23,0,0,1-.081-.113.552.552,0,0,1-.033-.162c0-.067-.005-.141-.005-.22s0-.154.005-.226a1.045,1.045,0,0,1,.033-.2.976.976,0,0,1,.081-.209,1.033,1.033,0,0,1,.131-.194.757.757,0,0,1,.184-.155m1.155-.6a.509.509,0,0,1,.043-.081.169.169,0,0,1,.062-.057l.172-.1a.041.041,0,0,1,.07.038.082.082,0,0,1,0,.022.254.254,0,0,1-.008.03l-1.424,3.468a.509.509,0,0,1-.043.081.169.169,0,0,1-.062.057l-.172.1a.041.041,0,0,1-.07-.038.143.143,0,0,1,0-.022.139.139,0,0,1,.009-.029Zm-1,1.416c0-.017,0-.044,0-.078v-.217a.712.712,0,0,0,0-.074.2.2,0,0,0-.037-.115c-.021-.025-.059-.02-.116.014a.269.269,0,0,0-.115.126.5.5,0,0,0-.037.159c0,.017,0,.044,0,.079s0,.072,0,.109,0,.073,0,.107,0,.059,0,.074a.2.2,0,0,0,.037.114c.021.025.059.021.115-.013a.264.264,0,0,0,.116-.126.512.512,0,0,0,.037-.158m1.1-.159a.4.4,0,0,1,.184-.067.207.207,0,0,1,.132.035.238.238,0,0,1,.081.112.589.589,0,0,1,.033.163c0,.067.005.14.005.219s0,.155-.005.227a1.108,1.108,0,0,1-.033.2,1.034,1.034,0,0,1-.081.21.959.959,0,0,1-.132.191.77.77,0,0,1-.184.153.428.428,0,0,1-.185.07.2.2,0,0,1-.131-.034.232.232,0,0,1-.081-.112.59.59,0,0,1-.033-.163c0-.067-.005-.14-.005-.219s0-.154.005-.227a1.11,1.11,0,0,1,.033-.2.957.957,0,0,1,.081-.209,1,1,0,0,1,.131-.194.728.728,0,0,1,.185-.156m.152.815c0-.017,0-.043,0-.078v-.217a.727.727,0,0,0,0-.075.2.2,0,0,0-.037-.114c-.021-.025-.06-.02-.115.014a.267.267,0,0,0-.116.126.511.511,0,0,0-.037.159c0,.017,0,.043,0,.078s0,.072,0,.109,0,.074,0,.108,0,.058,0,.074a.2.2,0,0,0,.037.114c.021.025.059.02.116-.014a.274.274,0,0,0,.115-.126.509.509,0,0,0,.037-.159" transform="translate(857.186 1036.375)" fill="#375a64"/>
    <path id="Trazado_874397" data-name="Trazado 874397" d="M292.4,249.816l-11.506,6.941c-.166.1-.3-.006-.3-.238a.764.764,0,0,1,.3-.6l11.506-6.941c.166-.1.3.006.3.238a.766.766,0,0,1-.3.6" transform="translate(858.149 1033.201)" fill="#e1e1e1"/>
    <path id="Trazado_874398" data-name="Trazado 874398" d="M297.877,249.692l-1.269-1c-.254-.2-.254-.775,0-1.283s.667-.757.921-.556l.348.275.348-.7c.255-.508.667-.757.921-.556s.254.776,0,1.284Z" transform="translate(857.175 1033.484)" fill="#d268cc"/>
    <path id="Trazado_874399" data-name="Trazado 874399" d="M284.715,257.043l-3.826,2.308c-.167.1-.3-.006-.3-.239a.763.763,0,0,1,.3-.6l3.826-2.308c.167-.1.3.005.3.237a.764.764,0,0,1-.3.6" transform="translate(857.428 1032.549)" fill="#d268cc"/>
    <path id="Trazado_874400" data-name="Trazado 874400" d="M289.388,254.45l-2.595,1.566c-.167.1-.3-.006-.3-.238a.763.763,0,0,1,.3-.6l2.595-1.566c.166-.1.3.006.3.238a.766.766,0,0,1-.3.6" transform="translate(857.272 1032.783)" fill="#e1e1e1"/>
    <path id="Trazado_874401" data-name="Trazado 874401" d="M323.208,225.434,306.56,235.477V198.548l16.648-10.042Z" transform="translate(858.5 1038.658)" fill="#d268cc"/>
    <g id="Grupo_1099718" data-name="Grupo 1099718" transform="translate(1165.061 1227.163)" opacity="0.65">
      <g id="Grupo_1099717" data-name="Grupo 1099717" transform="translate(0 0)">
        <g id="Grupo_1099716" data-name="Grupo 1099716" clip-path="url(#clip-path-4)">
          <path id="Trazado_874402" data-name="Trazado 874402" d="M323.208,225.434,306.56,235.477V198.548l16.648-10.042Z" transform="translate(-306.56 -188.506)" fill="#fff"/>
        </g>
      </g>
    </g>
    <path id="Trazado_874403" data-name="Trazado 874403" d="M321.638,224.314l-12.961,7.818V200.406l12.961-7.818Zm-12.8,7.5,12.643-7.626V192.906l-12.643,7.626Z" transform="translate(858.107 1038.289)" fill="#d268cc"/>
    <path id="Trazado_874404" data-name="Trazado 874404" d="M308.811,219.69l-.1-.116,3.844-6.484,1.841.982,5.578-10.631,1.642,1.282-.111.224-1.534-1.2-5.568,10.611-1.851-.986Z" transform="translate(858.101 1037.31)" fill="#d268cc"/>
    <path id="Trazado_874405" data-name="Trazado 874405" d="M315.3,208.618c-.919.554-1.666-.036-1.666-1.315a4.228,4.228,0,0,1,1.666-3.324c.919-.553,1.666.036,1.666,1.315a4.227,4.227,0,0,1-1.666,3.324m0-4.418a3.824,3.824,0,0,0-1.506,3.007c0,1.157.676,1.69,1.506,1.189a3.824,3.824,0,0,0,1.506-3.007c0-1.157-.676-1.69-1.506-1.189" transform="translate(857.091 1037.279)" fill="#d268cc"/>
    <path id="Trazado_874406" data-name="Trazado 874406" d="M312.7,201.548l-7.188,4.337v-4.018l7.188-4.337Z" transform="translate(857.533 1037.843)" fill="#f5f5f5"/>
    <path id="Trazado_874407" data-name="Trazado 874407" d="M310.908,199.7a.4.4,0,0,1,.184-.066.207.207,0,0,1,.131.035.228.228,0,0,1,.081.112.617.617,0,0,1,.033.162c0,.067.005.141.005.22s0,.154-.005.226a1.188,1.188,0,0,1-.033.2.973.973,0,0,1-.081.209.989.989,0,0,1-.131.192.771.771,0,0,1-.184.153.436.436,0,0,1-.185.069.2.2,0,0,1-.131-.033.231.231,0,0,1-.081-.113.587.587,0,0,1-.033-.162c0-.067-.005-.141-.005-.22s0-.154.005-.226a1.128,1.128,0,0,1,.033-.2.978.978,0,0,1,.081-.209,1.031,1.031,0,0,1,.131-.194.749.749,0,0,1,.185-.156m1.155-.6a.451.451,0,0,1,.042-.081.169.169,0,0,1,.062-.057l.172-.1c.022-.013.038-.015.051-.008s.019.023.019.046l0,.022a.218.218,0,0,1-.009.029l-1.424,3.469a.6.6,0,0,1-.042.081.179.179,0,0,1-.063.057l-.172.1a.05.05,0,0,1-.05.008.05.05,0,0,1-.019-.046.144.144,0,0,1,0-.022.137.137,0,0,1,.009-.029Zm-1,1.416c0-.017,0-.044,0-.078v-.217a.712.712,0,0,0,0-.074.2.2,0,0,0-.037-.115q-.031-.037-.115.014a.271.271,0,0,0-.116.126.494.494,0,0,0-.037.159c0,.017,0,.044,0,.079s0,.072,0,.109,0,.073,0,.107,0,.059,0,.074a.2.2,0,0,0,.037.114c.022.025.059.021.116-.013a.267.267,0,0,0,.115-.126.488.488,0,0,0,.037-.158m1.1-.159a.4.4,0,0,1,.184-.067.207.207,0,0,1,.132.035.232.232,0,0,1,.081.112.59.59,0,0,1,.033.163c0,.067.005.14.005.219s0,.155-.005.227a1.109,1.109,0,0,1-.033.2.974.974,0,0,1-.212.4.77.77,0,0,1-.184.153.427.427,0,0,1-.185.07.2.2,0,0,1-.131-.034.23.23,0,0,1-.08-.112.559.559,0,0,1-.033-.163c0-.067-.006-.14-.006-.219s0-.155.006-.227a1.038,1.038,0,0,1,.033-.2.955.955,0,0,1,.08-.209,1,1,0,0,1,.131-.194.729.729,0,0,1,.185-.156m.152.815c0-.017,0-.043,0-.078v-.217a.733.733,0,0,0,0-.075.2.2,0,0,0-.037-.114q-.031-.037-.115.014a.267.267,0,0,0-.116.126.512.512,0,0,0-.037.159c0,.017,0,.043,0,.078s0,.072,0,.109,0,.074,0,.108,0,.058,0,.074a.2.2,0,0,0,.037.114c.021.025.06.02.116-.014a.269.269,0,0,0,.115-.126.493.493,0,0,0,.037-.159" transform="translate(856.992 1037.724)" fill="#375a64"/>
    <path id="Trazado_874408" data-name="Trazado 874408" d="M318.305,234.856,306.8,241.8c-.166.1-.3-.006-.3-.238a.764.764,0,0,1,.3-.6l11.506-6.941c.166-.1.3.006.3.238a.765.765,0,0,1-.3.6" transform="translate(858.028 1034.552)" fill="#e1e1e1"/>
    <path id="Trazado_874409" data-name="Trazado 874409" d="M323.787,234.733l-1.269-1c-.254-.2-.254-.775,0-1.283s.667-.757.921-.556l.348.275.348-.7c.255-.508.667-.757.921-.556s.254.776,0,1.284Z" transform="translate(856.987 1034.835)" fill="#d268cc"/>
    <path id="Trazado_874410" data-name="Trazado 874410" d="M310.625,242.083l-3.826,2.308c-.167.1-.3-.006-.3-.238a.765.765,0,0,1,.3-.6l3.826-2.308c.166-.1.3.006.3.238a.766.766,0,0,1-.3.6" transform="translate(857.251 1033.898)" fill="#d268cc"/>
    <path id="Trazado_874411" data-name="Trazado 874411" d="M315.3,239.491l-2.595,1.566c-.166.1-.3-.006-.3-.238a.765.765,0,0,1,.3-.6l2.595-1.566c.167-.1.3.006.3.238a.761.761,0,0,1-.3.6" transform="translate(857.086 1034.134)" fill="#e1e1e1"/>
    <path id="Trazado_874412" data-name="Trazado 874412" d="M349.118,210.475,332.47,220.518V183.589l16.648-10.042Z" transform="translate(858.415 1040.008)" fill="#d268cc"/>
    <g id="Grupo_1099721" data-name="Grupo 1099721" transform="translate(1190.885 1213.555)" opacity="0.65">
      <g id="Grupo_1099720" data-name="Grupo 1099720" transform="translate(0 0)">
        <g id="Grupo_1099719" data-name="Grupo 1099719" clip-path="url(#clip-path-4)">
          <path id="Trazado_874413" data-name="Trazado 874413" d="M349.118,210.475,332.47,220.518V183.589l16.648-10.042Z" transform="translate(-332.47 -173.547)" fill="#fff"/>
        </g>
      </g>
    </g>
    <path id="Trazado_874414" data-name="Trazado 874414" d="M347.548,209.355l-12.961,7.818V185.447l12.961-7.818Zm-12.8,7.5,12.643-7.626V177.947l-12.643,7.626Z" transform="translate(857.993 1039.639)" fill="#d268cc"/>
    <path id="Trazado_874415" data-name="Trazado 874415" d="M334.72,204.731l-.1-.116,3.844-6.484,1.841.982,5.578-10.631,1.642,1.282-.111.224-1.534-1.2L340.315,199.4l-1.851-.986Z" transform="translate(857.986 1038.66)" fill="#d268cc"/>
    <path id="Trazado_874416" data-name="Trazado 874416" d="M341.208,193.659c-.919.554-1.666-.036-1.666-1.315a4.227,4.227,0,0,1,1.666-3.324c.919-.553,1.666.036,1.666,1.315a4.227,4.227,0,0,1-1.666,3.324m0-4.418a3.824,3.824,0,0,0-1.506,3.007c0,1.157.676,1.69,1.506,1.189a3.824,3.824,0,0,0,1.506-3.007c0-1.157-.676-1.69-1.506-1.189" transform="translate(856.907 1038.629)" fill="#d268cc"/>
    <path id="Trazado_874417" data-name="Trazado 874417" d="M338.609,186.589l-7.188,4.337v-4.018l7.188-4.337Z" transform="translate(857.376 1039.193)" fill="#f5f5f5"/>
    <path id="Trazado_874418" data-name="Trazado 874418" d="M336.818,184.739a.4.4,0,0,1,.185-.066.212.212,0,0,1,.131.035.235.235,0,0,1,.081.113.618.618,0,0,1,.033.162c0,.067.005.141.005.22s0,.154-.005.226a1.2,1.2,0,0,1-.033.2.978.978,0,0,1-.081.209.959.959,0,0,1-.131.191.743.743,0,0,1-.185.154.429.429,0,0,1-.184.069.2.2,0,0,1-.131-.034.224.224,0,0,1-.081-.112.585.585,0,0,1-.033-.162c0-.067-.005-.141-.005-.22s0-.154.005-.226a1.122,1.122,0,0,1,.033-.2.98.98,0,0,1,.081-.209,1.034,1.034,0,0,1,.131-.194.76.76,0,0,1,.184-.156m1.155-.6a.511.511,0,0,1,.043-.081.179.179,0,0,1,.062-.058l.172-.1a.041.041,0,0,1,.07.038.079.079,0,0,1,0,.022.2.2,0,0,1-.008.029l-1.424,3.469a.514.514,0,0,1-.043.081.185.185,0,0,1-.062.057l-.172.1a.041.041,0,0,1-.07-.038.081.081,0,0,1,0-.022.144.144,0,0,1,.009-.03Zm-1,1.416c0-.017,0-.044,0-.078v-.217a.7.7,0,0,0,0-.074.2.2,0,0,0-.037-.115c-.022-.025-.059-.02-.116.014a.269.269,0,0,0-.115.126.494.494,0,0,0-.037.159c0,.017,0,.044,0,.079s0,.072,0,.109,0,.073,0,.107,0,.059,0,.074a.2.2,0,0,0,.037.114c.021.025.059.021.115-.013a.269.269,0,0,0,.116-.126.487.487,0,0,0,.037-.158m1.1-.159a.4.4,0,0,1,.184-.067.207.207,0,0,1,.132.035.238.238,0,0,1,.081.112.592.592,0,0,1,.033.163c0,.067.005.14.005.219s0,.155-.005.227a1.115,1.115,0,0,1-.033.2,1,1,0,0,1-.081.209.964.964,0,0,1-.132.192.77.77,0,0,1-.184.153.428.428,0,0,1-.185.07.2.2,0,0,1-.131-.034.232.232,0,0,1-.081-.112.589.589,0,0,1-.033-.163c0-.067-.005-.14-.005-.219s0-.155.005-.227a1.108,1.108,0,0,1,.033-.2.959.959,0,0,1,.081-.209,1,1,0,0,1,.131-.194.729.729,0,0,1,.185-.156m.152.815c0-.017,0-.044,0-.078v-.217a.733.733,0,0,0,0-.075.2.2,0,0,0-.037-.114c-.021-.025-.06-.02-.115.014a.259.259,0,0,0-.116.126.51.51,0,0,0-.037.159c0,.017,0,.043,0,.078s0,.072,0,.109,0,.074,0,.108,0,.058,0,.074a.2.2,0,0,0,.037.114c.021.025.059.02.116-.014a.274.274,0,0,0,.115-.126.515.515,0,0,0,.037-.159" transform="translate(856.799 1039.074)" fill="#375a64"/>
    <path id="Trazado_874419" data-name="Trazado 874419" d="M344.215,219.9l-11.506,6.941c-.166.1-.3-.006-.3-.238a.767.767,0,0,1,.3-.6l11.506-6.941c.166-.1.3.006.3.238a.764.764,0,0,1-.3.6" transform="translate(857.908 1035.902)" fill="#e1e1e1"/>
    <path id="Trazado_874420" data-name="Trazado 874420" d="M349.7,219.774l-1.269-1c-.254-.2-.254-.775,0-1.283s.667-.757.921-.556l.348.275.348-.695c.255-.508.667-.757.921-.556s.255.776,0,1.284Z" transform="translate(856.799 1036.186)" fill="#d268cc"/>
    <path id="Trazado_874421" data-name="Trazado 874421" d="M336.535,227.124l-3.826,2.308c-.167.1-.3-.006-.3-.238a.765.765,0,0,1,.3-.6l3.826-2.308c.166-.1.3.006.3.238a.766.766,0,0,1-.3.6" transform="translate(857.074 1035.25)" fill="#d268cc"/>
    <path id="Trazado_874422" data-name="Trazado 874422" d="M341.208,224.532l-2.595,1.566c-.167.1-.3-.006-.3-.238a.762.762,0,0,1,.3-.6l2.595-1.566c.166-.1.3.006.3.238a.763.763,0,0,1-.3.6" transform="translate(856.901 1035.483)" fill="#e1e1e1"/>
    <path id="Trazado_874423" data-name="Trazado 874423" d="M297.3,296.647,280.65,306.689V269.761L297.3,259.718Z" transform="translate(858.586 1032.229)" fill="#d268cc"/>
    <g id="Grupo_1099724" data-name="Grupo 1099724" transform="translate(1139.236 1291.946)" opacity="0.65">
      <g id="Grupo_1099723" data-name="Grupo 1099723" transform="translate(0 0)">
        <g id="Grupo_1099722" data-name="Grupo 1099722" clip-path="url(#clip-path-7)">
          <path id="Trazado_874424" data-name="Trazado 874424" d="M297.3,296.647,280.65,306.689V269.761L297.3,259.718Z" transform="translate(-280.65 -259.718)" fill="#fff"/>
        </g>
      </g>
    </g>
    <path id="Trazado_874425" data-name="Trazado 874425" d="M295.729,295.526l-12.962,7.819V271.619l12.962-7.818Zm-12.8,7.5,12.642-7.627V264.119l-12.642,7.626Z" transform="translate(858.221 1031.859)" fill="#d268cc"/>
    <path id="Trazado_874426" data-name="Trazado 874426" d="M282.9,290.9l-.1-.116,3.844-6.484,1.841.982,5.578-10.631,1.642,1.282-.111.224-1.534-1.2L288.5,285.573l-1.851-.986Z" transform="translate(858.215 1030.88)" fill="#d268cc"/>
    <path id="Trazado_874427" data-name="Trazado 874427" d="M289.388,279.83c-.919.554-1.666-.036-1.666-1.315a4.227,4.227,0,0,1,1.666-3.324c.919-.553,1.666.036,1.666,1.315a4.228,4.228,0,0,1-1.666,3.324m0-4.418a3.824,3.824,0,0,0-1.506,3.007c0,1.157.676,1.69,1.506,1.189a3.824,3.824,0,0,0,1.506-3.007c0-1.157-.676-1.69-1.506-1.189" transform="translate(857.276 1030.851)" fill="#d268cc"/>
    <path id="Trazado_874428" data-name="Trazado 874428" d="M286.789,272.761,279.6,277.1v-4.018l7.188-4.337Z" transform="translate(857.69 1031.413)" fill="#f5f5f5"/>
    <path id="Trazado_874429" data-name="Trazado 874429" d="M285,270.911a.4.4,0,0,1,.185-.067.207.207,0,0,1,.131.035.232.232,0,0,1,.081.112.585.585,0,0,1,.032.162c0,.067.006.141.006.22s0,.154-.006.226a1.1,1.1,0,0,1-.032.2.975.975,0,0,1-.081.209.986.986,0,0,1-.131.192.758.758,0,0,1-.185.153.418.418,0,0,1-.184.069.2.2,0,0,1-.131-.033.232.232,0,0,1-.081-.112.565.565,0,0,1-.033-.163c0-.067-.005-.141-.005-.22s0-.154.005-.226a1.045,1.045,0,0,1,.033-.2.976.976,0,0,1,.081-.209,1.034,1.034,0,0,1,.131-.194.758.758,0,0,1,.184-.155m1.155-.6a.509.509,0,0,1,.043-.081.176.176,0,0,1,.062-.057l.172-.1c.021-.013.038-.016.05-.008a.05.05,0,0,1,.019.046.083.083,0,0,1,0,.022.255.255,0,0,1-.008.03l-1.424,3.468a.507.507,0,0,1-.043.081.168.168,0,0,1-.062.057l-.172.1a.05.05,0,0,1-.05.008.05.05,0,0,1-.019-.046.142.142,0,0,1,0-.022.138.138,0,0,1,.009-.029Zm-1,1.416c0-.017,0-.044,0-.078v-.217a.711.711,0,0,0,0-.074.2.2,0,0,0-.037-.115c-.021-.025-.059-.02-.116.014a.269.269,0,0,0-.115.126.5.5,0,0,0-.037.159c0,.017,0,.044,0,.079s0,.072,0,.109,0,.074,0,.107,0,.059,0,.074a.2.2,0,0,0,.037.114c.021.025.059.021.115-.013a.264.264,0,0,0,.116-.126.513.513,0,0,0,.037-.158m1.1-.159a.4.4,0,0,1,.184-.067.207.207,0,0,1,.132.035.238.238,0,0,1,.081.112.589.589,0,0,1,.033.163c0,.067.005.14.005.219s0,.155-.005.227a1.128,1.128,0,0,1-.033.2,1.027,1.027,0,0,1-.081.209.959.959,0,0,1-.132.191.8.8,0,0,1-.184.154.437.437,0,0,1-.185.069.2.2,0,0,1-.131-.034.232.232,0,0,1-.081-.112.59.59,0,0,1-.033-.163c0-.067-.005-.14-.005-.219s0-.154.005-.227a1.112,1.112,0,0,1,.033-.2.957.957,0,0,1,.081-.209,1,1,0,0,1,.131-.194.728.728,0,0,1,.185-.156m.152.815c0-.017,0-.043,0-.078v-.217a.727.727,0,0,0,0-.075.2.2,0,0,0-.037-.114c-.021-.025-.06-.02-.115.014a.267.267,0,0,0-.116.126.511.511,0,0,0-.037.159c0,.017,0,.043,0,.078s0,.072,0,.109,0,.074,0,.108,0,.058,0,.074a.2.2,0,0,0,.037.114c.021.025.059.02.116-.014a.274.274,0,0,0,.115-.126.509.509,0,0,0,.037-.159" transform="translate(857.186 1031.295)" fill="#375a64"/>
    <path id="Trazado_874430" data-name="Trazado 874430" d="M292.4,306.069l-11.506,6.941c-.166.1-.3-.006-.3-.238a.764.764,0,0,1,.3-.6l11.506-6.941c.166-.1.3.006.3.238a.766.766,0,0,1-.3.6" transform="translate(858.149 1028.123)" fill="#e1e1e1"/>
    <path id="Trazado_874431" data-name="Trazado 874431" d="M297.877,305.945l-1.269-1c-.254-.2-.254-.775,0-1.283s.667-.757.921-.556l.348.275.348-.7c.255-.508.667-.757.921-.556s.254.776,0,1.284Z" transform="translate(857.175 1028.405)" fill="#d268cc"/>
    <path id="Trazado_874432" data-name="Trazado 874432" d="M284.715,313.3l-3.826,2.308c-.167.1-.3-.006-.3-.238a.763.763,0,0,1,.3-.6l3.826-2.308c.167-.1.3.006.3.238a.764.764,0,0,1-.3.6" transform="translate(857.428 1027.47)" fill="#d268cc"/>
    <path id="Trazado_874433" data-name="Trazado 874433" d="M289.388,310.7l-2.595,1.566c-.167.1-.3-.006-.3-.238a.763.763,0,0,1,.3-.6l2.595-1.566c.166-.1.3.006.3.238a.766.766,0,0,1-.3.6" transform="translate(857.272 1027.704)" fill="#e1e1e1"/>
    <path id="Trazado_874434" data-name="Trazado 874434" d="M323.208,281.688,306.56,291.73V254.8l16.648-10.042Z" transform="translate(858.5 1033.578)" fill="#d268cc"/>
    <g id="Grupo_1099727" data-name="Grupo 1099727" transform="translate(1165.061 1278.338)" opacity="0.65">
      <g id="Grupo_1099726" data-name="Grupo 1099726" transform="translate(0 0)">
        <g id="Grupo_1099725" data-name="Grupo 1099725" clip-path="url(#clip-path-7)">
          <path id="Trazado_874435" data-name="Trazado 874435" d="M323.208,281.688,306.56,291.73V254.8l16.648-10.042Z" transform="translate(-306.56 -244.759)" fill="#fff"/>
        </g>
      </g>
    </g>
    <path id="Trazado_874436" data-name="Trazado 874436" d="M321.638,280.568l-12.961,7.818V256.66l12.961-7.818Zm-12.8,7.5,12.643-7.626V249.16l-12.643,7.626Z" transform="translate(858.107 1033.21)" fill="#d268cc"/>
    <path id="Trazado_874437" data-name="Trazado 874437" d="M308.811,275.943l-.1-.116,3.844-6.485,1.841.982,5.578-10.631,1.642,1.282-.111.224-1.534-1.2-5.568,10.611-1.851-.986Z" transform="translate(858.101 1032.23)" fill="#d268cc"/>
    <path id="Trazado_874438" data-name="Trazado 874438" d="M315.3,264.871c-.919.554-1.666-.036-1.666-1.315a4.227,4.227,0,0,1,1.666-3.324c.919-.554,1.666.036,1.666,1.315a4.227,4.227,0,0,1-1.666,3.324m0-4.418a3.824,3.824,0,0,0-1.506,3.007c0,1.157.676,1.69,1.506,1.189a3.824,3.824,0,0,0,1.506-3.007c0-1.157-.676-1.69-1.506-1.189" transform="translate(857.091 1032.2)" fill="#d268cc"/>
    <path id="Trazado_874439" data-name="Trazado 874439" d="M312.7,257.8l-7.188,4.337V258.12l7.188-4.337Z" transform="translate(857.533 1032.764)" fill="#f5f5f5"/>
    <path id="Trazado_874440" data-name="Trazado 874440" d="M310.908,255.951a.4.4,0,0,1,.184-.066.207.207,0,0,1,.131.035.232.232,0,0,1,.081.112.617.617,0,0,1,.033.162c0,.067.005.141.005.22s0,.154-.005.226a1.188,1.188,0,0,1-.033.2.974.974,0,0,1-.081.209.99.99,0,0,1-.131.192.773.773,0,0,1-.184.153.426.426,0,0,1-.185.069.2.2,0,0,1-.131-.033.23.23,0,0,1-.081-.113.587.587,0,0,1-.033-.162c0-.067-.005-.141-.005-.22s0-.154.005-.226a1.128,1.128,0,0,1,.033-.2.977.977,0,0,1,.081-.209,1.031,1.031,0,0,1,.131-.194.768.768,0,0,1,.185-.156m1.155-.6a.449.449,0,0,1,.042-.081.169.169,0,0,1,.062-.057l.172-.1c.022-.013.038-.016.051-.008s.019.023.019.046l0,.022a.22.22,0,0,1-.009.029l-1.424,3.469a.607.607,0,0,1-.042.081.18.18,0,0,1-.063.057l-.172.1c-.021.013-.038.016-.05.008a.05.05,0,0,1-.019-.046.143.143,0,0,1,0-.022.137.137,0,0,1,.009-.029Zm-1,1.416c0-.017,0-.044,0-.078v-.217a.711.711,0,0,0,0-.074.2.2,0,0,0-.037-.115q-.031-.037-.115.014a.271.271,0,0,0-.116.126.494.494,0,0,0-.037.159c0,.017,0,.044,0,.079s0,.072,0,.109,0,.074,0,.107,0,.059,0,.074a.2.2,0,0,0,.037.114c.022.025.059.021.116-.013a.267.267,0,0,0,.115-.126.488.488,0,0,0,.037-.158m1.1-.159a.4.4,0,0,1,.184-.067.207.207,0,0,1,.132.036.232.232,0,0,1,.081.112.59.59,0,0,1,.033.163c0,.067.005.14.005.219s0,.155-.005.227a1.111,1.111,0,0,1-.033.2.985.985,0,0,1-.081.21.958.958,0,0,1-.132.191.77.77,0,0,1-.184.153.428.428,0,0,1-.185.07.2.2,0,0,1-.131-.034.231.231,0,0,1-.08-.112.559.559,0,0,1-.033-.163c0-.067-.006-.14-.006-.219s0-.154.006-.227a1.038,1.038,0,0,1,.033-.2.956.956,0,0,1,.08-.209,1.007,1.007,0,0,1,.131-.194.73.73,0,0,1,.185-.156m.152.815c0-.017,0-.043,0-.078v-.217a.734.734,0,0,0,0-.075.2.2,0,0,0-.037-.114q-.031-.037-.115.014a.272.272,0,0,0-.116.126.511.511,0,0,0-.037.159c0,.017,0,.043,0,.078s0,.072,0,.109,0,.074,0,.108,0,.058,0,.074a.2.2,0,0,0,.037.114c.021.025.06.02.116-.014a.269.269,0,0,0,.115-.126.493.493,0,0,0,.037-.159" transform="translate(856.992 1032.646)" fill="#375a64"/>
    <path id="Trazado_874441" data-name="Trazado 874441" d="M318.305,291.11,306.8,298.051c-.166.1-.3-.006-.3-.238a.764.764,0,0,1,.3-.6l11.506-6.941c.166-.1.3.006.3.238a.766.766,0,0,1-.3.6" transform="translate(858.028 1029.473)" fill="#e1e1e1"/>
    <path id="Trazado_874442" data-name="Trazado 874442" d="M323.787,290.986l-1.269-1c-.254-.2-.254-.775,0-1.283s.667-.757.921-.556l.348.275.348-.7c.255-.508.667-.757.921-.556s.254.776,0,1.284Z" transform="translate(856.987 1029.756)" fill="#d268cc"/>
    <path id="Trazado_874443" data-name="Trazado 874443" d="M310.625,298.337l-3.826,2.308c-.167.1-.3-.006-.3-.238a.765.765,0,0,1,.3-.6l3.826-2.308c.166-.1.3.006.3.238a.764.764,0,0,1-.3.6" transform="translate(857.251 1028.821)" fill="#d268cc"/>
    <path id="Trazado_874444" data-name="Trazado 874444" d="M315.3,295.745l-2.595,1.566c-.166.1-.3-.006-.3-.238a.765.765,0,0,1,.3-.6L315.3,294.9c.167-.1.3.006.3.238a.761.761,0,0,1-.3.6" transform="translate(857.086 1029.055)" fill="#e1e1e1"/>
    <path id="Trazado_874445" data-name="Trazado 874445" d="M349.118,266.729,332.47,276.771V239.843L349.118,229.8Z" transform="translate(858.415 1034.929)" fill="#d268cc"/>
    <g id="Grupo_1099730" data-name="Grupo 1099730" transform="translate(1190.885 1264.729)" opacity="0.65">
      <g id="Grupo_1099729" data-name="Grupo 1099729">
        <g id="Grupo_1099728" data-name="Grupo 1099728" clip-path="url(#clip-path-7)">
          <path id="Trazado_874446" data-name="Trazado 874446" d="M349.118,266.729,332.47,276.771V239.843L349.118,229.8Z" transform="translate(-332.47 -229.8)" fill="#fff"/>
        </g>
      </g>
    </g>
    <path id="Trazado_874447" data-name="Trazado 874447" d="M347.548,265.608l-12.961,7.818V241.7l12.961-7.818Zm-12.8,7.5,12.643-7.626V234.2l-12.643,7.626Z" transform="translate(857.993 1034.561)" fill="#d268cc"/>
    <path id="Trazado_874448" data-name="Trazado 874448" d="M334.72,260.984l-.1-.116,3.844-6.484,1.841.982,5.578-10.631,1.642,1.282-.111.224-1.534-1.2-5.568,10.611-1.851-.986Z" transform="translate(857.986 1033.58)" fill="#d268cc"/>
    <path id="Trazado_874449" data-name="Trazado 874449" d="M341.208,249.912c-.919.554-1.666-.036-1.666-1.315a4.227,4.227,0,0,1,1.666-3.324c.919-.554,1.666.036,1.666,1.315a4.228,4.228,0,0,1-1.666,3.324m0-4.418A3.824,3.824,0,0,0,339.7,248.5c0,1.157.676,1.69,1.506,1.189a3.824,3.824,0,0,0,1.506-3.007c0-1.157-.676-1.69-1.506-1.189" transform="translate(856.907 1033.551)" fill="#d268cc"/>
    <path id="Trazado_874450" data-name="Trazado 874450" d="M338.609,242.843l-7.188,4.337v-4.018l7.188-4.337Z" transform="translate(857.376 1034.114)" fill="#f5f5f5"/>
    <path id="Trazado_874451" data-name="Trazado 874451" d="M336.818,240.992a.4.4,0,0,1,.185-.066.207.207,0,0,1,.131.035.232.232,0,0,1,.081.112.617.617,0,0,1,.033.162c0,.067.005.141.005.22s0,.154-.005.226a1.188,1.188,0,0,1-.033.2.978.978,0,0,1-.081.209.958.958,0,0,1-.131.191.742.742,0,0,1-.185.154.418.418,0,0,1-.184.069.2.2,0,0,1-.131-.034.224.224,0,0,1-.081-.112.585.585,0,0,1-.033-.162c0-.067-.005-.141-.005-.22s0-.154.005-.226a1.122,1.122,0,0,1,.033-.2.98.98,0,0,1,.081-.209,1.035,1.035,0,0,1,.131-.194.761.761,0,0,1,.184-.156m1.155-.6a.511.511,0,0,1,.043-.081.169.169,0,0,1,.062-.057l.172-.1c.021-.013.038-.015.051-.008a.05.05,0,0,1,.019.046.079.079,0,0,1,0,.022.2.2,0,0,1-.008.029l-1.424,3.469a.514.514,0,0,1-.043.081.177.177,0,0,1-.062.057l-.172.1a.05.05,0,0,1-.05.008.05.05,0,0,1-.019-.046.081.081,0,0,1,0-.022.162.162,0,0,1,.009-.03Zm-1,1.416c0-.017,0-.044,0-.078v-.217a.7.7,0,0,0,0-.074.2.2,0,0,0-.037-.115c-.022-.025-.059-.02-.116.014a.269.269,0,0,0-.115.126.494.494,0,0,0-.037.159c0,.017,0,.044,0,.079s0,.072,0,.109,0,.074,0,.107,0,.059,0,.074a.2.2,0,0,0,.037.114c.021.025.059.021.115-.013a.269.269,0,0,0,.116-.126.488.488,0,0,0,.037-.158m1.1-.159a.4.4,0,0,1,.184-.067.207.207,0,0,1,.132.035.238.238,0,0,1,.081.112.593.593,0,0,1,.033.163c0,.067.005.14.005.219s0,.155-.005.227a1.115,1.115,0,0,1-.033.2,1,1,0,0,1-.081.209.936.936,0,0,1-.132.192.77.77,0,0,1-.184.153.428.428,0,0,1-.185.07.2.2,0,0,1-.131-.034.232.232,0,0,1-.081-.112.589.589,0,0,1-.033-.163c0-.067-.005-.14-.005-.219s0-.154.005-.227a1.108,1.108,0,0,1,.033-.2.959.959,0,0,1,.081-.209,1,1,0,0,1,.131-.194.729.729,0,0,1,.185-.156m.152.815c0-.017,0-.043,0-.078v-.217a.733.733,0,0,0,0-.075.2.2,0,0,0-.037-.114c-.021-.025-.06-.02-.115.014a.259.259,0,0,0-.116.126.51.51,0,0,0-.037.159c0,.017,0,.043,0,.078s0,.072,0,.109,0,.074,0,.108,0,.058,0,.074a.2.2,0,0,0,.037.114c.021.025.059.02.116-.014a.273.273,0,0,0,.115-.126.515.515,0,0,0,.037-.159" transform="translate(856.799 1033.997)" fill="#375a64"/>
    <path id="Trazado_874452" data-name="Trazado 874452" d="M344.215,276.151l-11.506,6.941c-.166.1-.3-.006-.3-.238a.765.765,0,0,1,.3-.6l11.506-6.941c.166-.1.3.006.3.238a.767.767,0,0,1-.3.6" transform="translate(857.908 1030.824)" fill="#e1e1e1"/>
    <path id="Trazado_874453" data-name="Trazado 874453" d="M349.7,276.027l-1.269-1c-.254-.2-.254-.775,0-1.283s.667-.757.921-.556l.348.275.348-.695c.255-.508.667-.757.921-.556s.255.776,0,1.284Z" transform="translate(856.799 1031.106)" fill="#d268cc"/>
    <path id="Trazado_874454" data-name="Trazado 874454" d="M336.535,283.378l-3.826,2.308c-.167.1-.3-.006-.3-.238a.765.765,0,0,1,.3-.6l3.826-2.308c.166-.1.3.006.3.238a.767.767,0,0,1-.3.6" transform="translate(857.074 1030.172)" fill="#d268cc"/>
    <path id="Trazado_874455" data-name="Trazado 874455" d="M341.208,280.786l-2.595,1.566c-.167.1-.3-.006-.3-.238a.762.762,0,0,1,.3-.6l2.595-1.566c.166-.1.3.006.3.238a.766.766,0,0,1-.3.6" transform="translate(856.901 1030.406)" fill="#e1e1e1"/>
    <path id="Trazado_874456" data-name="Trazado 874456" d="M130.2,314.736l-11.757-107.1-6.365-.7-3.359-5.154-7.548,95.446Z" transform="translate(821.792 1037.459)" fill="#d268cc"/>
    <g id="Grupo_1099733" data-name="Grupo 1099733" transform="translate(922.958 1239.238)" opacity="0.1">
      <g id="Grupo_1099732" data-name="Grupo 1099732" transform="translate(0 0)">
        <g id="Grupo_1099731" data-name="Grupo 1099731" clip-path="url(#clip-path-10)">
          <path id="Trazado_874457" data-name="Trazado 874457" d="M130.2,314.736l-11.757-107.1-6.365-.7-3.359-5.154-7.548,95.446Z" transform="translate(-101.167 -201.779)"/>
        </g>
      </g>
    </g>
    <path id="Trazado_874458" data-name="Trazado 874458" d="M113.051,206.933l-.134,4.62-4.2,2.533.974-12.3Z" transform="translate(819.577 1037.459)" fill="#d268cc"/>
    <g id="Grupo_1099736" data-name="Grupo 1099736" transform="translate(928.296 1239.24)" opacity="0.2">
      <g id="Grupo_1099735" data-name="Grupo 1099735" transform="translate(0 0)">
        <g id="Grupo_1099734" data-name="Grupo 1099734" clip-path="url(#clip-path-11)">
          <path id="Trazado_874459" data-name="Trazado 874459" d="M113.051,206.933l-.134,4.62-4.2,2.533.974-12.3Z" transform="translate(-108.719 -201.781)"/>
        </g>
      </g>
    </g>
    <path id="Trazado_874460" data-name="Trazado 874460" d="M38.875,238.462l-7.544,95.444,60.8-36.682,7.552-95.443ZM55.9,241.876c-.959.573-1.734.1-1.734-1.063a4.048,4.048,0,0,1,1.734-3.146c.959-.574,1.74-.1,1.74,1.068a4.015,4.015,0,0,1-1.74,3.14m29.363-17.791c-.959.568-1.74.091-1.74-1.069a4.052,4.052,0,0,1,1.74-3.139c.959-.579,1.74-.1,1.734,1.063a4.029,4.029,0,0,1-1.734,3.146" transform="translate(812.032 1037.459)" fill="#d268cc"/>
    <g id="Grupo_1099739" data-name="Grupo 1099739" transform="translate(843.363 1239.24)" opacity="0.3">
      <g id="Grupo_1099738" data-name="Grupo 1099738" transform="translate(0 0)">
        <g id="Grupo_1099737" data-name="Grupo 1099737" clip-path="url(#clip-path-12)">
          <path id="Trazado_874461" data-name="Trazado 874461" d="M38.875,238.462l-7.544,95.444,60.8-36.682,7.552-95.443ZM55.9,241.876c-.959.573-1.734.1-1.734-1.063a4.048,4.048,0,0,1,1.734-3.146c.959-.574,1.74-.1,1.74,1.068a4.015,4.015,0,0,1-1.74,3.14m29.363-17.791c-.959.568-1.74.091-1.74-1.069a4.052,4.052,0,0,1,1.74-3.139c.959-.579,1.74-.1,1.734,1.063a4.029,4.029,0,0,1-1.734,3.146" transform="translate(-31.331 -201.781)"/>
        </g>
      </g>
    </g>
    <path id="Trazado_874462" data-name="Trazado 874462" d="M38.876,242.1l6.967.847,2.757,5.006,11.757,107.1L31.328,337.546Z" transform="translate(809.071 1033.819)" fill="#d268cc"/>
    <g id="Grupo_1099742" data-name="Grupo 1099742" transform="translate(840.399 1275.918)" opacity="0.1">
      <g id="Grupo_1099741" data-name="Grupo 1099741" transform="translate(0 0)">
        <g id="Grupo_1099740" data-name="Grupo 1099740" clip-path="url(#clip-path-13)">
          <path id="Trazado_874463" data-name="Trazado 874463" d="M38.876,242.1l6.967.847,2.757,5.006,11.757,107.1L31.328,337.546Z" transform="translate(-31.328 -242.1)"/>
        </g>
      </g>
    </g>
    <path id="Trazado_874464" data-name="Trazado 874464" d="M45.842,332.475V242.948l-6.967-.848-7.548,95.446Z" transform="translate(808.042 1033.819)" fill="#d268cc"/>
    <g id="Grupo_1099745" data-name="Grupo 1099745" transform="translate(839.371 1275.918)" opacity="0.2">
      <g id="Grupo_1099744" data-name="Grupo 1099744" transform="translate(0 0)">
        <g id="Grupo_1099743" data-name="Grupo 1099743" clip-path="url(#clip-path-14)">
          <path id="Trazado_874465" data-name="Trazado 874465" d="M45.842,332.475V242.948l-6.967-.848-7.548,95.446Z" transform="translate(-31.328 -242.1)"/>
        </g>
      </g>
    </g>
    <path id="Trazado_874467" data-name="Trazado 874467" d="M111.973,208.214,51.166,244.895,62.923,352l60.807-36.681ZM68.907,248.156c-.878.529-1.724.086-1.892-.989a3.118,3.118,0,0,1,1.284-2.919c.878-.538,1.724-.095,1.891.989a3.092,3.092,0,0,1-1.283,2.919m29.778-17.847c-.824.522-1.716.086-1.991-.976a2.786,2.786,0,0,1,.99-2.884c.822-.531,1.714-.094,1.991.976a2.766,2.766,0,0,1-.99,2.884" transform="translate(811.919 1036.878)" fill="#d268cc"/>
    <path id="Trazado_874468" data-name="Trazado 874468" d="M71.112,245.461a.572.572,0,0,1-.559-.584V224.361c0-11.5,6.736-24.918,15.017-29.913,3.725-2.248,7.35-2.537,10.206-.814,3.413,2.059,5.37,6.776,5.371,12.945V227.1a.559.559,0,1,1-1.117,0V206.579c0-5.74-1.754-10.091-4.812-11.935-2.5-1.506-5.724-1.216-9.09.813-7.973,4.81-14.458,17.775-14.457,28.9v20.516a.572.572,0,0,1-.559.584" transform="translate(818.378 1038.295)" fill="#1a2e35"/>
    <path id="Trazado_874469" data-name="Trazado 874469" d="M59.333,238.116a.572.572,0,0,1-.559-.584V217.015c0-11.5,6.738-24.918,15.019-29.913,3.724-2.248,7.35-2.537,10.205-.814,3.413,2.059,5.37,6.777,5.371,12.945V219.75a.559.559,0,1,1-1.117,0V199.233c0-5.74-1.754-10.09-4.812-11.935-2.494-1.5-5.722-1.217-9.09.813-7.973,4.81-14.458,17.776-14.458,28.9v20.517a.571.571,0,0,1-.559.584" transform="translate(808.429 1038.958)" fill="#1a2e35"/>
    <path id="Trazado_874470" data-name="Trazado 874470" d="M170.866,365.224l-9.819-89.445-5.315-.584-2.805-4.3-6.3,79.71Z" transform="translate(826.416 1031.219)" fill="#d268cc"/>
    <g id="Grupo_1099751" data-name="Grupo 1099751" transform="translate(973.039 1302.111)" opacity="0.4">
      <g id="Grupo_1099750" data-name="Grupo 1099750" transform="translate(0 0)">
        <g id="Grupo_1099749" data-name="Grupo 1099749" clip-path="url(#clip-path-15)">
          <path id="Trazado_874471" data-name="Trazado 874471" d="M170.866,365.224l-9.819-89.445-5.315-.584-2.805-4.3-6.3,79.71Z" transform="translate(-146.623 -270.891)" fill="#fff"/>
        </g>
      </g>
    </g>
    <g id="Grupo_1099754" data-name="Grupo 1099754" transform="translate(977.094 1302.111)" opacity="0.2">
      <g id="Grupo_1099753" data-name="Grupo 1099753" transform="translate(0)">
        <g id="Grupo_1099752" data-name="Grupo 1099752" clip-path="url(#clip-path-16)">
          <path id="Trazado_874472" data-name="Trazado 874472" d="M156.547,275.2l-.112,3.858-3.505,2.115.813-10.276Z" transform="translate(-152.93 -270.892)" fill="#d268cc"/>
        </g>
      </g>
    </g>
    <path id="Trazado_874473" data-name="Trazado 874473" d="M94.6,301.526l-6.3,79.707L139.078,350.6l6.306-79.708Zm14.219,2.85c-.8.479-1.448.081-1.448-.887a3.383,3.383,0,0,1,1.448-2.627c.8-.479,1.453-.086,1.453.892a3.354,3.354,0,0,1-1.453,2.622m24.522-14.858c-.8.474-1.452.076-1.452-.892A3.384,3.384,0,0,1,133.343,286c.8-.484,1.452-.086,1.448.887a3.367,3.367,0,0,1-1.448,2.627" transform="translate(823.848 1031.219)" fill="#d268cc"/>
    <g id="Grupo_1099757" data-name="Grupo 1099757" transform="translate(912.149 1302.111)" opacity="0.2">
      <g id="Grupo_1099756" data-name="Grupo 1099756" transform="translate(0 0)">
        <g id="Grupo_1099755" data-name="Grupo 1099755" clip-path="url(#clip-path-17)">
          <path id="Trazado_874474" data-name="Trazado 874474" d="M94.6,301.526l-6.3,79.707L139.078,350.6l6.306-79.708Zm14.219,2.85c-.8.479-1.448.081-1.448-.887a3.383,3.383,0,0,1,1.448-2.627c.8-.479,1.453-.086,1.453.892a3.354,3.354,0,0,1-1.453,2.622m24.522-14.858c-.8.474-1.452.076-1.452-.892A3.384,3.384,0,0,1,133.343,286c.8-.484,1.452-.086,1.448.887a3.367,3.367,0,0,1-1.448,2.627" transform="translate(-88.301 -270.892)" fill="#fff"/>
        </g>
      </g>
    </g>
    <path id="Trazado_874475" data-name="Trazado 874475" d="M94.6,304.564l5.819.708,2.3,4.181,9.819,89.445L88.3,384.273Z" transform="translate(819.708 1028.18)" fill="#d268cc"/>
    <g id="Grupo_1099760" data-name="Grupo 1099760" transform="translate(908.007 1332.743)" opacity="0.55">
      <g id="Grupo_1099759" data-name="Grupo 1099759" transform="translate(0 0)">
        <g id="Grupo_1099758" data-name="Grupo 1099758" clip-path="url(#clip-path-18)">
          <path id="Trazado_874476" data-name="Trazado 874476" d="M94.6,304.564l5.819.708,2.3,4.181,9.819,89.445L88.3,384.273Z" transform="translate(-88.299 -304.564)" fill="#fff"/>
        </g>
      </g>
    </g>
    <g id="Grupo_1099763" data-name="Grupo 1099763" transform="translate(906.592 1332.743)" opacity="0.2">
      <g id="Grupo_1099762" data-name="Grupo 1099762" transform="translate(0 0)">
        <g id="Grupo_1099761" data-name="Grupo 1099761" clip-path="url(#clip-path-19)">
          <path id="Trazado_874477" data-name="Trazado 874477" d="M100.42,380.038V305.271l-5.819-.707-6.3,79.709Z" transform="translate(-88.299 -304.564)" fill="#d268cc"/>
        </g>
      </g>
    </g>
    <path id="Trazado_874479" data-name="Trazado 874479" d="M155.646,276.264,104.865,306.9l9.819,89.445,50.781-30.633Zm-35.965,33.357c-.733.442-1.439.073-1.579-.825a2.6,2.6,0,0,1,1.073-2.438c.732-.449,1.438-.079,1.579.825a2.582,2.582,0,0,1-1.073,2.438m24.868-14.9c-.688.437-1.432.071-1.662-.815a2.327,2.327,0,0,1,.826-2.409c.687-.443,1.431-.078,1.663.816a2.31,2.31,0,0,1-.827,2.408" transform="translate(826.532 1030.734)" fill="#d268cc"/>
    <g id="Grupo_1099769" data-name="Grupo 1099769" transform="translate(931.397 1306.999)" opacity="0.7">
      <g id="Grupo_1099768" data-name="Grupo 1099768" transform="translate(0 0)">
        <g id="Grupo_1099767" data-name="Grupo 1099767" clip-path="url(#clip-path-20)">
          <path id="Trazado_874480" data-name="Trazado 874480" d="M155.646,276.264,104.865,306.9l9.819,89.445,50.781-30.633Zm-35.965,33.357c-.733.442-1.439.073-1.579-.825a2.6,2.6,0,0,1,1.073-2.438c.732-.449,1.438-.079,1.579.825a2.582,2.582,0,0,1-1.073,2.438m24.868-14.9c-.688.437-1.432.071-1.662-.815a2.327,2.327,0,0,1,.826-2.409c.687-.443,1.431-.078,1.663.816a2.31,2.31,0,0,1-.827,2.408" transform="translate(-104.865 -276.264)" fill="#fff"/>
        </g>
      </g>
    </g>
    <path id="Trazado_874481" data-name="Trazado 874481" d="M121.058,306.884V289.749c0-9.6,5.625-20.81,12.54-24.982,3.113-1.877,6.14-2.117,8.524-.68,2.851,1.72,4.485,5.66,4.485,10.811l0,17.135a.467.467,0,1,1-.933,0l0-17.135c0-4.794-1.464-8.427-4.018-9.967-2.084-1.255-4.779-1.017-7.591.68-6.658,4.016-12.075,14.844-12.075,24.138v17.135Z" transform="translate(823.652 1031.917)" fill="#1a2e35"/>
    <path id="Trazado_874482" data-name="Trazado 874482" d="M111.687,301.236a.476.476,0,0,1-.466-.487V283.615c0-9.6,5.626-20.809,12.541-24.981,3.111-1.877,6.137-2.117,8.524-.68,2.85,1.718,4.485,5.659,4.485,10.81V285.9a.466.466,0,1,1-.932,0V268.764c0-4.794-1.464-8.426-4.019-9.966-2.084-1.258-4.781-1.017-7.591.68-6.658,4.016-12.075,14.844-12.075,24.137v17.135a.476.476,0,0,1-.466.487" transform="translate(822.514 1032.471)" fill="#1a2e35"/>
    <path id="Trazado_874487" data-name="Trazado 874487" d="M35.865,331.273c-2.386,3.152-9.557,4.539-13.131-3.18-3.353-7.24-6.9-14.072-7.963-16.742a2.853,2.853,0,0,1,1.462-3.781s-.092-4.116,6.761-1.869c6.784,2.225,11.853,6.092,15.251,12.681,3.349,6.5,2.005,11.621-2.38,12.892" transform="translate(809.297 1028.139)" fill="#d268cc"/>
    <g id="Grupo_1099772" data-name="Grupo 1099772" transform="translate(823.806 1333.166)" opacity="0.5">
      <g id="Grupo_1099771" data-name="Grupo 1099771" transform="translate(0 0)">
        <g id="Grupo_1099770" data-name="Grupo 1099770" clip-path="url(#clip-path-21)">
          <path id="Trazado_874488" data-name="Trazado 874488" d="M35.865,331.273c-2.386,3.152-9.557,4.539-13.131-3.18-3.353-7.24-6.9-14.072-7.963-16.742a2.853,2.853,0,0,1,1.462-3.781s-.092-4.116,6.761-1.869c6.784,2.225,11.853,6.092,15.251,12.681,3.349,6.5,2.005,11.621-2.38,12.892" transform="translate(-14.51 -305.029)" fill="#fff"/>
        </g>
      </g>
    </g>
    <path id="Trazado_874489" data-name="Trazado 874489" d="M40.384,341.926a38.633,38.633,0,0,0-.879-4.1,59.349,59.349,0,0,0-2.79-7.83,59.427,59.427,0,0,0-8.793-14.25,50.041,50.041,0,0,0-6.581-6.7c-.073-.059-.114.1-.064.151a62.7,62.7,0,0,1,10.485,12.938,65.363,65.363,0,0,1,6.622,15.093c.436,1.486.858,2.98,1.236,4.484.383,1.527.651,3.081,1.014,4.613.037.154.273.23.27.017a30.37,30.37,0,0,0-.522-4.415" transform="translate(808.691 1027.777)" fill="#d268cc"/>
    <g id="Grupo_1099775" data-name="Grupo 1099775" transform="translate(829.946 1336.807)" opacity="0.3">
      <g id="Grupo_1099774" data-name="Grupo 1099774" transform="translate(0 0)">
        <g id="Grupo_1099773" data-name="Grupo 1099773" clip-path="url(#clip-path-22)">
          <path id="Trazado_874490" data-name="Trazado 874490" d="M40.384,341.926a38.633,38.633,0,0,0-.879-4.1,59.349,59.349,0,0,0-2.79-7.83,59.427,59.427,0,0,0-8.793-14.25,50.041,50.041,0,0,0-6.581-6.7c-.073-.059-.114.1-.064.151a62.7,62.7,0,0,1,10.485,12.938,65.363,65.363,0,0,1,6.622,15.093c.436,1.486.858,2.98,1.236,4.484.383,1.527.651,3.081,1.014,4.613.037.154.273.23.27.017a30.37,30.37,0,0,0-.522-4.415" transform="translate(-21.255 -309.031)"/>
        </g>
      </g>
    </g>
    <path id="Trazado_874491" data-name="Trazado 874491" d="M46.547,325.177c-6.223,2.01-10.845-3.064-9.245-11.022s9.6-16.793,12.623-14.419c1.887-1.971,6.045-1.264,8,5.2S58.1,328,46.547,325.177" transform="translate(808.38 1028.702)" fill="#d268cc"/>
    <g id="Grupo_1099778" data-name="Grupo 1099778" transform="translate(845.364 1327.469)" opacity="0.3">
      <g id="Grupo_1099777" data-name="Grupo 1099777" transform="translate(0 0)">
        <g id="Grupo_1099776" data-name="Grupo 1099776" clip-path="url(#clip-path-23)">
          <path id="Trazado_874492" data-name="Trazado 874492" d="M46.547,325.177c-6.223,2.01-10.845-3.064-9.245-11.022s9.6-16.793,12.623-14.419c1.887-1.971,6.045-1.264,8,5.2S58.1,328,46.547,325.177" transform="translate(-36.983 -298.766)" fill="#fff"/>
        </g>
      </g>
    </g>
    <path id="Trazado_874493" data-name="Trazado 874493" d="M51,305.148a90.23,90.23,0,0,0-4.137,14.3,145.321,145.321,0,0,0-2.4,14.972c-1.117,9.725-1.307,9.185-1.248,18.969q.025,4.061.1,8.122c.05,2.784.008,5.6.237,8.379.088,1.063,1.536.781,1.554-.195.091-4.873-.165-9.769-.212-14.644a34.054,34.054,0,0,1,.087-4.086,211.989,211.989,0,0,1,2.519-29.3c.444-2.7.936-5.391,1.538-8.056.634-2.8,1.41-5.567,2.115-8.349.028-.111-.094-.257-.155-.106" transform="translate(807.232 1028.133)" fill="#d268cc"/>
    <g id="Grupo_1099781" data-name="Grupo 1099781" transform="translate(850.438 1333.217)" opacity="0.3">
      <g id="Grupo_1099780" data-name="Grupo 1099780" transform="translate(0 0)">
        <g id="Grupo_1099779" data-name="Grupo 1099779" clip-path="url(#clip-path-24)">
          <path id="Trazado_874494" data-name="Trazado 874494" d="M51,305.148a90.23,90.23,0,0,0-4.137,14.3,145.321,145.321,0,0,0-2.4,14.972c-1.117,9.725-1.307,9.185-1.248,18.969q.025,4.061.1,8.122c.05,2.784.008,5.6.237,8.379.088,1.063,1.536.781,1.554-.195.091-4.873-.165-9.769-.212-14.644a34.054,34.054,0,0,1,.087-4.086,211.989,211.989,0,0,1,2.519-29.3c.444-2.7.936-5.391,1.538-8.056.634-2.8,1.41-5.567,2.115-8.349.028-.111-.094-.257-.155-.106" transform="translate(-43.206 -305.084)"/>
        </g>
      </g>
    </g>
    <path id="Trazado_874495" data-name="Trazado 874495" d="M27.363,349.438c-.8,4.209-6.317,7.244-12.693,4.487S-4.278,333.854,1.464,331.946c-.313-3.144,17.056-5.726,25.647,5.339,6.245,8.043.252,12.153.252,12.153" transform="translate(810 1025.951)" fill="#d268cc"/>
    <g id="Grupo_1099784" data-name="Grupo 1099784" transform="translate(810 1355.188)" opacity="0.7">
      <g id="Grupo_1099783" data-name="Grupo 1099783" transform="translate(0 0)">
        <g id="Grupo_1099782" data-name="Grupo 1099782" clip-path="url(#clip-path-25)">
          <path id="Trazado_874496" data-name="Trazado 874496" d="M27.363,349.438c-.8,4.209-6.317,7.244-12.693,4.487S-4.278,333.854,1.464,331.946c-.313-3.144,17.056-5.726,25.647,5.339,6.245,8.043.252,12.153.252,12.153" transform="translate(0 -329.235)" fill="#fff"/>
        </g>
      </g>
    </g>
    <path id="Trazado_874507" data-name="Trazado 874507" d="M51.034,339.481c-.967,3.553,3.372,6.871,8.772,4.971s11.008-3.663,15.611-3.723,7.521-3.223,6.573-5.359-2.064-7.2-13.791-8.646S51.18,329.6,48.732,332.985s.347,7.089,2.3,6.5" transform="translate(809.014 1026.205)" fill="#d268cc"/>
    <g id="Grupo_1099802" data-name="Grupo 1099802" transform="translate(856.789 1352.642)" opacity="0.7">
      <g id="Grupo_1099801" data-name="Grupo 1099801" transform="translate(0 0)">
        <g id="Grupo_1099800" data-name="Grupo 1099800" clip-path="url(#clip-path-26)">
          <path id="Trazado_874508" data-name="Trazado 874508" d="M51.034,339.481c-.967,3.553,3.372,6.871,8.772,4.971s11.008-3.663,15.611-3.723,7.521-3.223,6.573-5.359-2.064-7.2-13.791-8.646S51.18,329.6,48.732,332.985s.347,7.089,2.3,6.5" transform="translate(-47.774 -326.436)" fill="#fff"/>
        </g>
      </g>
    </g>
    <path id="Trazado_874509" data-name="Trazado 874509" d="M72.283,332.529a13.853,13.853,0,0,0-3.785-.362,23.014,23.014,0,0,0-3.656.314,27.638,27.638,0,0,0-6.891,2.239c-4.122,1.91-8.212,4.4-10.891,8.284a27.948,27.948,0,0,0-3.451,6.751c-.156.457.693.716.885.306a50.98,50.98,0,0,1,2.931-5.875,17.91,17.91,0,0,1,4.493-4.89,34.978,34.978,0,0,1,12.441-5.948,23.384,23.384,0,0,1,3.969-.611,35.111,35.111,0,0,1,3.987.156c.178.01.095-.329-.03-.364" transform="translate(808.717 1025.688)" fill="#d268cc"/>
    <g id="Grupo_1099805" data-name="Grupo 1099805" transform="translate(852.306 1357.854)" opacity="0.3">
      <g id="Grupo_1099804" data-name="Grupo 1099804" transform="translate(0)">
        <g id="Grupo_1099803" data-name="Grupo 1099803" clip-path="url(#clip-path-27)">
          <path id="Trazado_874510" data-name="Trazado 874510" d="M72.283,332.529a13.853,13.853,0,0,0-3.785-.362,23.014,23.014,0,0,0-3.656.314,27.638,27.638,0,0,0-6.891,2.239c-4.122,1.91-8.212,4.4-10.891,8.284a27.948,27.948,0,0,0-3.451,6.751c-.156.457.693.716.885.306a50.98,50.98,0,0,1,2.931-5.875,17.91,17.91,0,0,1,4.493-4.89,34.978,34.978,0,0,1,12.441-5.948,23.384,23.384,0,0,1,3.969-.611,35.111,35.111,0,0,1,3.987.156c.178.01.095-.329-.03-.364" transform="translate(-43.59 -332.165)"/>
        </g>
      </g>
    </g>
    <path id="Trazado_874522" data-name="Trazado 874522" d="M438.178,345.308l-4.65-15.426-13.787,2.675s8.407,16.64,9.507,18.158c1.808,2.5,8.93-5.406,8.93-5.406" transform="translate(860.715 1025.894)" fill="#dd8669"/>
    <path id="Trazado_874530" data-name="Trazado 874530" d="M419.051,333.982s-10.607-20.16-16.957-33.762c-2.184-4.678-3.168-6.69-3.837-10.285s-3.249-13.481-3.249-13.481L391.5,297.4a74.6,74.6,0,0,1,1.584,11.6c.207,4.4-.47,9.52-1.969,19.1-2.161,13.823-3.112,17.227-3.112,17.227-.943.744-3.374.894-5.812,1.011-5.647.269-8.363-2.493-8.363-2.493s-1.491-24.345-2-29.931c-1.745-19.08-1.86-27.156-1.444-49.413.354-18.976,2.315-41.8,2.315-41.8l40.38-10.116s7.427,13.567,6.675,26.849c-.817,14.434-1.266,46.255-1.266,46.255,2.185,3.725,4.134,7.527,6.19,16.662,1.206,5.354,3.552,16.941,5.21,25.428a12.272,12.272,0,0,0-10.842,6.2" transform="translate(867.124 1036.483)" fill="#2b454e"/>
    <path id="Trazado_874531" data-name="Trazado 874531" d="M398.694,279.117l5.138-29.668s5.52-.672,12.8-7.351c0,0-.488,5.205-10.167,9.668l-5.531,26.361,1.008,14.472Z" transform="translate(863.437 1033.818)" fill="#1a2e35"/>
    <path id="Trazado_874532" data-name="Trazado 874532" d="M412.4,163.3c5.6-.686,9.642,1.371,13.6,9.287,3.745,7.493,9.025,18.319,11.067,23.808,1,2.676,2.648,5.028-1.915,10.2a78.34,78.34,0,0,1-14.241,12.25l-5.645-10.63,6.254-8.666-2.971-6.692Z" transform="translate(861.665 1040.944)" fill="#2b454e"/>
    <path id="Trazado_874533" data-name="Trazado 874533" d="M422.723,203.16a13.631,13.631,0,0,0,5.726,4.095c-2.122.7-5.914-1.32-6.735-2.7Z" transform="translate(860.46 1037.335)" fill="#1a2e35"/>
    <path id="Trazado_874534" data-name="Trazado 874534" d="M379.743,135.963s-3.561,5.446-3.183,5.921a6.832,6.832,0,0,0,2.219.983Z" transform="translate(866.303 1043.4)" fill="#c66150"/>
    <path id="Trazado_874535" data-name="Trazado 874535" d="M388.215,121.227c-2.4,1.274-6.585,2.6-8.454,9.825-.323,1.246.151,3.17-.034,4.736-.206,1.758-.933,3.712-.97,5.121-.191,7.353,1.844,10.186,3.063,11.389.979.967,6.035,1.317,8.672.478,3.3-1.053,10.448-4.68,13.8-10.323,3.942-6.639,4.757-15.488.206-18.957-6.4-4.883-13.9-3.533-16.282-2.269" transform="translate(866.017 1044.837)" fill="#dd8669"/>
    <path id="Trazado_874536" data-name="Trazado 874536" d="M382.588,155.576c1.185.682,4.548.964,7.052.582l-.076-1.964a17.9,17.9,0,0,1-3.337,1.136,11.432,11.432,0,0,1-3.639.246" transform="translate(865.52 1041.755)" fill="#c66150"/>
    <path id="Trazado_874537" data-name="Trazado 874537" d="M384.576,118a14.917,14.917,0,0,0-4.477,5.557,10.318,10.318,0,0,0,1.418,10.459,8.108,8.108,0,0,1,.02-3.046c-.172.864.964,2.322,1.487,2.873a11.043,11.043,0,0,0,2.715,1.841.421.421,0,0,1,.177.15.462.462,0,0,1,.037.21q.01.622.023,1.244a1.737,1.737,0,0,0,.211.975.988.988,0,0,0,1.087.326,1.971,1.971,0,0,0,.953-.738c.25-.327.449-.7.693-1.029a3.525,3.525,0,0,1,2.642-1.783,2.984,2.984,0,0,1,2.912,1.638,6.637,6.637,0,0,1-.548,5.246,3.981,3.981,0,0,1-2.894,2.229,2.671,2.671,0,0,1-2.18-.949s-.52,6.04,4.175,7.976c0,0,5.181,1.429,9.793-.4.517-.206,1.332-1.821,1.707-2.294.719-.91,1.463-1.8,2.207-2.686a28.287,28.287,0,0,0,3-4.723,22.343,22.343,0,0,0,2.3-12.1,16.3,16.3,0,0,0-2.393-6.6c-3.41-8.951-17.124-10.777-25.063-4.367" transform="translate(865.948 1045.367)" fill="#1a2e35"/>
    <path id="Trazado_874538" data-name="Trazado 874538" d="M413.576,169.406c-1.031-4.218-2.379-6.976-10.039-6.609l-1.067.035c-2.728.412-6.547.648-13.555,1.208-.881.167-9.252,1.664-10.642,1.857,0,0-6.259,3.9-9.37,17.7-.882,3.913-.448,8.027,4.181,11.775-.112,3.972.73,7.408.259,11.232A167.393,167.393,0,0,0,371.86,225.3s9.557,4.91,25.374,3.309c9.743-.986,19.026-6.619,20.866-8.459,0,0-1.659-6.389-6.788-17.193,1.544-13.679,5.8-19.085,2.265-33.551" transform="translate(867.337 1040.981)" fill="#d268cc"/>
    <path id="Trazado_874539" data-name="Trazado 874539" d="M409.7,123.177s4.024,2.082,4.148,10.589c.088,6.035.3,14.027.363,21.682.034,3.854.422,7.519-.514,11.311A23.951,23.951,0,0,1,408.342,177q-.123-2.9-.245-5.793a11.275,11.275,0,0,1-2.869,7.108,23.147,23.147,0,0,1-6,4.724,31.022,31.022,0,0,0-.308-5.733,8.694,8.694,0,0,0-1.539,4.027,9.413,9.413,0,0,1-2.954-4.494q-.342,1.452-.685,2.9a.8.8,0,0,1-.194.424c-.218.2-.553.071-.808-.068-3.062-1.666-8.024-10.418-7.94-18.613l-5.081.84a20.189,20.189,0,0,1,3.891-5.845,17.963,17.963,0,0,0,5.3-12.463c1.16,3.041,4.779,4.1,8.23,1.73,3.552-2.443,12.557-22.567,12.557-22.567" transform="translate(865.891 1044.556)" fill="#1a2e35"/>
    <path id="Trazado_874540" data-name="Trazado 874540" d="M340.93,186.983a75.883,75.883,0,0,1-6.089-5.777c-.612-.7-.705-2.244-.726-3.189-.067-2.957-1.511-5.147-2.342-7.908-.209-.7-.548-1.923-1.285-1.784a1.545,1.545,0,0,0-.907.479,2.328,2.328,0,0,0-.465.965,5.3,5.3,0,0,0,.111,2.527c.08.334.776,1.958.4,2.185-.132.082-.3,0-.426-.09a15.184,15.184,0,0,1-1.858-1.668c-.571-.539-1.186-1.022-1.727-1.6a27.841,27.841,0,0,1-3.479-4.4c-.953-1.255-1.677-1.452-2.384-1.049s.172,2.178.172,2.178a7.823,7.823,0,0,0-1.889-2.089c-.99-.49-2.109-.294-2.034.591a9.1,9.1,0,0,0,.261,1.05c-.5.187-1.435,1.367-.565,3.028,0,0-1.216.222-.179,2.959a27.769,27.769,0,0,0,9.064,12.279,26.693,26.693,0,0,1,4.753,4.665c3.807,4.578,7.609,9.365,11.591,13.948Z" transform="translate(859.483 1040.736)" fill="#dd8669"/>
    <path id="Trazado_874541" data-name="Trazado 874541" d="M320.055,168.13a18.011,18.011,0,0,0,4.5,6.776c-1.6-2.2-3.1-4.429-4.5-6.776m-3.7-.542c1.384,3.794,3.357,7.6,6.447,10.161-2.751-2.929-4.608-6.566-6.447-10.161m4.081,11.02a37.114,37.114,0,0,1-4.646-7.993,16.639,16.639,0,0,0,4.646,7.993" transform="translate(857.634 1040.545)" fill="#c66150"/>
    <path id="Trazado_874542" data-name="Trazado 874542" d="M374.071,166.207c-5.034.87-8.6,5.458-10.03,7.523-4.611,6.659-12.815,17.668-12.815,17.668l-9.622-6.522s-1.628.271-3.74,3.378-1.808,7.754-1.808,7.754,7.2,8.308,8.636,9.8c6.567,6.825,10.152,4.6,12.188,2.867,6.534-5.55,15.6-17.659,17.35-19.558,3.383-3.665,4.644-16.935-.158-22.908" transform="translate(871.541 1040.67)" fill="#2b454e"/>
    <path id="Trazado_874543" data-name="Trazado 874543" d="M401.75,93.2l-3.019-5.932,2.429-7.327V75.457l-7.434,4.485v4.485l3.2,5.785a.474.474,0,0,0,.217.2l0,0Z" transform="translate(864.08 1048.862)" fill="#d268cc"/>
    <g id="Grupo_1099814" data-name="Grupo 1099814" transform="translate(1257.806 1124.32)" opacity="0.2">
      <g id="Grupo_1099813" data-name="Grupo 1099813" transform="translate(0 0)">
        <g id="Grupo_1099812" data-name="Grupo 1099812" clip-path="url(#clip-path-28)">
          <path id="Trazado_874544" data-name="Trazado 874544" d="M401.75,93.2l-3.019-5.932,2.429-7.327V75.457l-7.434,4.485v4.485l3.2,5.785a.474.474,0,0,0,.217.2l0,0Z" transform="translate(-393.726 -75.457)"/>
        </g>
      </g>
    </g>
    <path id="Trazado_874545" data-name="Trazado 874545" d="M417.606,29.727a5.2,5.2,0,0,0-2.229-4.034l-1.815-1.1a4.74,4.74,0,0,0-4.458,0L381.27,41.418a5.2,5.2,0,0,0-2.229,4.034V82.885a5.2,5.2,0,0,0,2.229,4.034l1.815,1.1a4.74,4.74,0,0,0,4.458,0l8.952-5.4,3.189,5.773a.468.468,0,0,0,.862-.086l3.371-10.168,11.46-6.936a5.2,5.2,0,0,0,2.228-4.034Z" transform="translate(865.979 1053.505)" fill="#d268cc"/>
    <g id="Grupo_1099817" data-name="Grupo 1099817" transform="translate(1245.02 1096.663)" opacity="0.2">
      <g id="Grupo_1099816" data-name="Grupo 1099816" transform="translate(0 0)">
        <g id="Grupo_1099815" data-name="Grupo 1099815" clip-path="url(#clip-path-29)">
          <path id="Trazado_874546" data-name="Trazado 874546" d="M379.041,84.782a5.194,5.194,0,0,0,2.229,4.034l1.815,1.1a4.789,4.789,0,0,0,4.076.187c-1.049.415-1.848-.2-1.848-1.533V51.133a4.922,4.922,0,0,1,.652-2.294l-6.272-3.784a4.9,4.9,0,0,0-.653,2.294Z" transform="translate(-379.041 -45.054)"/>
        </g>
      </g>
    </g>
    <g id="Grupo_1099820" data-name="Grupo 1099820" transform="translate(1245.68 1077.552)" opacity="0.3">
      <g id="Grupo_1099819" data-name="Grupo 1099819" transform="translate(0 0)">
        <g id="Grupo_1099818" data-name="Grupo 1099818" clip-path="url(#clip-path-30)">
          <path id="Trazado_874547" data-name="Trazado 874547" d="M417.631,29.066c-.26-.989-1.123-1.3-2.152-.684L387.639,45.206a4.537,4.537,0,0,0-1.57,1.738L379.8,43.163a4.617,4.617,0,0,1,1.57-1.738L409.2,24.6a4.768,4.768,0,0,1,4.461,0l1.82,1.1a5.154,5.154,0,0,1,2.152,3.369" transform="translate(-379.799 -24.046)" fill="#fff"/>
        </g>
      </g>
    </g>
    <path id="Trazado_874548" data-name="Trazado 874548" d="M396.652,53q.547-1,1.2-2a20.293,20.293,0,0,1,1.409-1.9,16.426,16.426,0,0,1,1.641-1.7,12.774,12.774,0,0,1,1.915-1.413,6.838,6.838,0,0,1,2.551-1,2.923,2.923,0,0,1,1.971.347,3.227,3.227,0,0,1,1.272,1.643,7.96,7.96,0,0,1,.45,2.89,13.376,13.376,0,0,1-.354,3.161,17.091,17.091,0,0,1-.885,2.7,18.779,18.779,0,0,1-1.168,2.3q-.635,1.056-1.2,1.99t-.974,1.753a4.641,4.641,0,0,0-.491,1.586l-.37,3.5-2.72,1.64-.273-3.49a4.908,4.908,0,0,1,.218-1.98,11.6,11.6,0,0,1,.837-1.962q.522-.977,1.167-1.982T404.055,57a14.675,14.675,0,0,0,.942-2.2,7.539,7.539,0,0,0,.378-2.392,3.366,3.366,0,0,0-.218-1.315,1.488,1.488,0,0,0-.6-.734,1.389,1.389,0,0,0-.926-.148,3.193,3.193,0,0,0-1.167.457,7.5,7.5,0,0,0-1.552,1.217,11.95,11.95,0,0,0-1.079,1.279q-.443.614-.749,1.079a2,2,0,0,1-.547.61q-.58.349-.838-.167Zm3.042,22.124a5.934,5.934,0,0,1,.185-1.435,6.8,6.8,0,0,1,.507-1.382,6.175,6.175,0,0,1,.773-1.184,3.888,3.888,0,0,1,.966-.851,1.863,1.863,0,0,1,.958-.308,1.259,1.259,0,0,1,.773.251,1.663,1.663,0,0,1,.522.761,3.415,3.415,0,0,1,.193,1.207,5.665,5.665,0,0,1-.193,1.45,6.955,6.955,0,0,1-.522,1.381,6.122,6.122,0,0,1-.773,1.172,3.879,3.879,0,0,1-.958.836,2.015,2.015,0,0,1-.966.325,1.153,1.153,0,0,1-.773-.24,1.676,1.676,0,0,1-.507-.76,3.579,3.579,0,0,1-.185-1.223" transform="translate(863.701 1051.618)" fill="#fff"/>
    <path id="Trazado_874549" data-name="Trazado 874549" d="M244.284,17.967C256.958,25.612,264.8,42.008,264.8,65.344c0,46.669-31.36,103.42-70.039,126.751-19.341,11.669-36.849,12.773-49.525,5.126l-21.709-13.1c-12.673-7.645-20.512-24.046-20.513-47.377,0-46.672,31.36-103.42,70.04-126.755,19.342-11.67,36.85-12.769,49.524-5.124l21.709,13.1" transform="translate(844.272 1055.676)" fill="#d268cc"/>
    <g id="Grupo_1099823" data-name="Grupo 1099823" transform="translate(947.283 1055.676)" opacity="0.3">
      <g id="Grupo_1099822" data-name="Grupo 1099822" transform="translate(0 0)">
        <g id="Grupo_1099821" data-name="Grupo 1099821" clip-path="url(#clip-path-31)">
          <path id="Trazado_874550" data-name="Trazado 874550" d="M244.284,17.967C256.958,25.612,264.8,42.008,264.8,65.344c0,46.669-31.36,103.42-70.039,126.751-19.341,11.669-36.849,12.773-49.525,5.126l-21.709-13.1c-12.673-7.645-20.512-24.046-20.513-47.377,0-46.672,31.36-103.42,70.04-126.755,19.342-11.67,36.85-12.769,49.524-5.124l21.709,13.1" transform="translate(-103.011 0)" fill="#fff"/>
        </g>
      </g>
    </g>
    <g id="Grupo_1099826" data-name="Grupo 1099826" transform="translate(966.125 1055.676)" opacity="0.2">
      <g id="Grupo_1099825" data-name="Grupo 1099825" transform="translate(0 0)">
        <g id="Grupo_1099824" data-name="Grupo 1099824" clip-path="url(#clip-path-32)">
          <path id="Trazado_874551" data-name="Trazado 874551" d="M242.094,145.334c15.355-24.763,25.124-53.946,25.125-79.99,0-23.336-7.84-39.732-20.513-47.378L225,4.871c-12.674-7.645-30.183-6.546-49.524,5.123-21.587,13.024-40.891,36.456-53.74,62.734Z" transform="translate(-121.733 0)" fill="#fff"/>
        </g>
      </g>
    </g>
    <path id="Trazado_874552" data-name="Trazado 874552" d="M197.983,193.628c-19.34,11.667-36.849,12.772-49.524,5.124s-20.513-24.043-20.513-47.377c0-46.67,31.359-103.42,70.04-126.754,19.34-11.667,36.849-12.772,49.524-5.125s20.513,24.044,20.513,47.378c0,46.67-31.359,103.42-70.04,126.754" transform="translate(844.377 1054.355)" fill="#fff"/>
    <path id="Trazado_874553" data-name="Trazado 874553" d="M229.266,16.678h0a32.9,32.9,0,0,1,17.263,4.595c12.6,7.6,19.532,23.794,19.531,45.6,0,45.942-30.98,102.007-69.058,124.977-10.691,6.45-20.885,9.719-30.3,9.719a32.909,32.909,0,0,1-17.263-4.594c-12.6-7.6-19.533-23.795-19.532-45.6,0-45.943,30.98-102.008,69.059-124.978,10.691-6.449,20.885-9.719,30.3-9.719m0-2.051c-9.415,0-20.038,3.213-31.279,9.994C159.3,47.956,127.947,104.7,127.946,151.375c0,23.334,7.839,39.731,20.513,47.378a34.848,34.848,0,0,0,18.244,4.869c9.415,0,20.038-3.213,31.28-9.994,38.68-23.334,70.038-80.084,70.039-126.753,0-23.335-7.838-39.732-20.512-47.378a34.845,34.845,0,0,0-18.245-4.87" transform="translate(844.377 1054.355)" fill="#d268cc"/>
    <path id="Trazado_874554" data-name="Trazado 874554" d="M333.687,83.1a6.375,6.375,0,0,1-.408-.852c-.19-.65.112-1.344.034-2.015a2.175,2.175,0,0,0-1.636-1.747,3.551,3.551,0,0,0-2.429.356,6.3,6.3,0,0,1-1.533.682,7.936,7.936,0,0,1-1.589-.016c-1.592-.019-1.819,1.575-2.584,2.683-1.689,2.445-4.825,10.244-7.562,11.46-.557.247-1.789.585-1.384-.479a26.38,26.38,0,0,0,1.461-4.208,5.5,5.5,0,0,0-.709-4.293A1.816,1.816,0,0,0,314.3,83.9c-.614-.117-.818.254-1.039.7a12.458,12.458,0,0,1-.839,1.345c-.6.908-1.208,1.817-1.8,2.735-3.454,5.352-5.992,8.38-7.582,12.479-1.254,3.229-1.47,6.654-4.654,10.466-2.7,3.232-19.192,19.647-19.192,19.647s-4.156-6.567-15.285-23.578c-8.4-12.842-12.3-14.626-16.619-15.834l-.143,38.766a251.261,251.261,0,0,0,22.8,27.736c8.179,8.473,15.908,3.315,23.129-7.7,4.756-7.257,18.263-27.362,21.243-32.217a19.47,19.47,0,0,1,6.7-7.1,30.205,30.205,0,0,0,8.042-8.58,46.516,46.516,0,0,0,3.476-8.177,23.754,23.754,0,0,0,.692-3.754c.161-1.193-.052-2.384.171-3.584.257-1.388.878-2.862.29-4.146" transform="translate(866.058 1048.598)" fill="#ffaaa9"/>
    <path id="Trazado_874555" data-name="Trazado 874555" d="M322.855,99.142c2.369,6.912-.017,11.366-3.453,13.534a22.381,22.381,0,0,0,3.453-13.534" transform="translate(857.161 1046.724)" fill="#ff9090"/>
    <path id="Trazado_874556" data-name="Trazado 874556" d="M244.8,91.985c8.086,1.513,11.626,4.489,16.731,12.531s17.244,26.836,17.244,26.836l15.843-15.294A17.289,17.289,0,0,0,299.9,125.4a17.758,17.758,0,0,0,8.621,4.206s-14.033,20.971-19.228,28.109-11.4,10.915-19.122,3.2S244.9,131.478,244.9,131.478Z" transform="translate(863.308 1047.371)" fill="#2b454e"/>
    <path id="Trazado_874557" data-name="Trazado 874557" d="M282.518,134.97a28.043,28.043,0,0,0-8.021,18.045c-3.5-11.412,6.141-20.959,6.141-20.959Z" transform="translate(857.872 1043.754)" fill="#1a2e35"/>
    <path id="Trazado_874558" data-name="Trazado 874558" d="M243.318,153.289c-.016.911-.047,2.051-.086,3.371-11.555,17.47-25.92,32.365-41.463,41.748a80.915,80.915,0,0,1-10.691,5.454,218.735,218.735,0,0,1-26.3-6.693c2.881-19.667,3.407-27.615,3.564-41.329.172-15.116.879-25.771,2.441-36.605,1.923-13.336,4.278-21.751,8.25-22.809,6.17-1.64,26.092-8.579,31.36-9.226l20.818,3.871c4.246,1.8,11.351,8.374,12.2,33.734.228,6.865.024,19.725-.094,28.485" transform="translate(837.87 1047.803)" fill="#fafafa"/>
    <path id="Trazado_874559" data-name="Trazado 874559" d="M198.829,200.087c-9.773,5.471-19.1,8.243-27.765,8.243a34.849,34.849,0,0,1-9.412-1.238c.9-16.527,4.036-35.447,4.019-51.2-.023-20.3-9.788-54.2,6.022-59.619,0,0,10.66-2.231,14.475-3.995a24.42,24.42,0,0,0,4.992-2.821c-.031.147-.291,1.55.431,5.413.77,4.1,2.991,8.1,4.765,13,4.152,11.409,4.271,20.5,4.467,45.225.1,12.943-1.036,31.783-1.994,47" transform="translate(830.5 1047.6)" fill="#375a64"/>
    <path id="Trazado_874560" data-name="Trazado 874560" d="M189.069,97q.326,7.769.516,15.538l.2,7.77.125,7.771-.192-.4c2.873,2.244,5.767,4.458,8.623,6.725l.331.264-.17.391-5.119,11.791.008-.369c1.461,3.912,2.851,7.853,4.279,11.778s2.8,7.875,4.15,11.831q-2.4-5.783-4.7-11.6c-1.523-3.886-3.086-7.756-4.575-11.656l-.071-.184.078-.186,5.006-11.845.162.654c-2.879-2.235-5.72-4.523-8.581-6.783l-.192-.151v-.247l-.052-7.772.019-7.773q.005-7.771.16-15.546" transform="translate(829.431 1046.917)" fill="#2b454e"/>
    <path id="Trazado_874561" data-name="Trazado 874561" d="M253.2,153.761a168.979,168.979,0,0,1-10.636,14.985q-.142-3.961-.259-8.169c-.251-9.1-.377-26.566-1.507-38.589-1.57-16.576-4.851-22.1-11.987-32.233L227.143,87.8s7.763,2.091,15.111,3.642c7.426,6.2,9.623,17.814,9.953,27.041s.856,26.664.973,34.21c.008.32.008.68.016,1.066" transform="translate(836.01 1047.749)" fill="#375a64"/>
    <path id="Trazado_874562" data-name="Trazado 874562" d="M234.874,92.435a50.5,50.5,0,0,1,5.322,6.836,70.209,70.209,0,0,1,4.357,7.571,73.183,73.183,0,0,1,3.465,8.069c1.021,2.754,1.827,5.587,2.573,8.435l.053.2-.108.19-4.118,7.21,0-.56,5.466,9.719.1.173-.044.19-1.659,7.234-1.711,7.221c-1.129,4.817-2.322,9.619-3.533,14.416.936-4.864,1.891-9.723,2.911-14.567l1.512-7.27,1.563-7.258.053.363-5.553-9.665-.161-.28.162-.28,4.164-7.179-.056.393c-.712-2.818-1.482-5.625-2.466-8.356-.941-2.746-2.045-5.431-3.249-8.066a82.446,82.446,0,0,0-4.083-7.654,57.265,57.265,0,0,0-4.959-7.087" transform="translate(835.24 1047.33)" fill="#2b454e"/>
    <path id="Trazado_874563" data-name="Trazado 874563" d="M198.076,71.688c-3.085-5.965-5.929-11.1-8.217-16.378-2.205-5.084-3.476-9.005-2.979-13.652.293-2.752,2.136-6.408,4.132-7.092-1.782-10.377,7.138-14.107,11.1-14.878,1.519-.3,4.248-.391,5.7-.72,1.535-2.027,2.349-3.173,4.285-4.377,2.494-1.55,7.549-1.488,9.639,1.972,1.725-1.308,3.9-1.793,6.938-.816,2.9.932,3.281,3.176,3.421,4.812,4.231-2.2,7.405,1.136,8.126,3.587.727,2.469-.264,3.436.826,5.168,1.228,1.952,3.719,2.048,4.546.566.3,2.674-.785,4.643-3.531,4.355a6.271,6.271,0,0,1,.478,5.1,5.273,5.273,0,0,1-4.934,3.545c-.36,1.44-.483,2.77-1.417,3.98a9.224,9.224,0,0,1-3.384,2.886c-4.265,1.859-8.9,2.3-13.439,3.036l-5.381.878c-.313.051-1.927.07-2.131.348L198.076,71.688" transform="translate(837.143 1054.446)" fill="#1a2e35"/>
    <path id="Trazado_874564" data-name="Trazado 874564" d="M192.181,65.9c3.851,2.681,6.667.139,6.667.139l-1,11.865-.427,4.056c-.224,3.317,3.56,7.929,8.421,11.981,6.374,5.314,14.443,13.532,15.723,14.875.573-3.027.536-14.554-1.413-18.909l.885-9.138a52,52,0,0,0,6.729.035c4.454-.4,8.368-3.871,9.868-8.813a55.489,55.489,0,0,0,1.542-20.029,18.1,18.1,0,0,1-.01-4.87c.629-4.278.007-6.82-.885-10.487-4.676-4.351-18.413-5.914-29.231.215,1.986,5.711.3,11.329-4.361,13.582.129,1.774.129,6.241-2.642,6.015-1.995-.164-2-2.789-3.946-5.2-1.982-2.463-6.7-3.28-8.717.026-2.818,4.625-1.417,11.722,2.8,14.659" transform="translate(835.935 1052.717)" fill="#ffaaa9"/>
    <path id="Trazado_874565" data-name="Trazado 874565" d="M223.056,83.88c-6.978-1.228-12.276-2.3-15.681-7.8a47.06,47.06,0,0,1-3.819-8.913s.41,6.534,2.494,11.052c1.606,3.484,5.812,6.534,16.771,8.093Z" transform="translate(832.147 1049.612)" fill="#ff9090"/>
    <path id="Trazado_874566" data-name="Trazado 874566" d="M243.569,47.372l-4.3-2.4a2.293,2.293,0,0,1,3.222-1.11,2.734,2.734,0,0,1,1.074,3.505" transform="translate(833.456 1051.741)" fill="#1a2e35"/>
    <path id="Trazado_874567" data-name="Trazado 874567" d="M243.789,53.875a2.251,2.251,0,0,1-2.313,2.207,2.3,2.3,0,0,1-2.028-2.507,2.251,2.251,0,0,1,2.313-2.207,2.3,2.3,0,0,1,2.028,2.507" transform="translate(833.438 1051.038)" fill="#1a2e35"/>
    <path id="Trazado_874568" data-name="Trazado 874568" d="M224.932,53.178a2.251,2.251,0,0,1-2.313,2.207,2.3,2.3,0,0,1-2.028-2.506,2.251,2.251,0,0,1,2.313-2.208,2.3,2.3,0,0,1,2.028,2.507" transform="translate(831.439 1051.102)" fill="#1a2e35"/>
    <path id="Trazado_874569" data-name="Trazado 874569" d="M238.1,62.208l-7.324,1.819.389-14.265c2.68-.448,4.777,6.552,6.935,12.447" transform="translate(833.038 1051.185)" fill="#ff9090"/>
    <path id="Trazado_874570" data-name="Trazado 874570" d="M223.64,45.134l-4.579,1.776a2.73,2.73,0,0,1,1.5-3.371,2.353,2.353,0,0,1,3.08,1.6" transform="translate(831.324 1051.759)" fill="#1a2e35"/>
    <path id="Trazado_874571" data-name="Trazado 874571" d="M224.057,67.566l7.986,2.911a4.123,4.123,0,0,1-5.316,2.873,4.684,4.684,0,0,1-2.669-5.784" transform="translate(832.445 1049.576)" fill="#c76668"/>
    <path id="Trazado_874572" data-name="Trazado 874572" d="M224.884,69.234a4.429,4.429,0,0,0-1.018-.119,4.567,4.567,0,0,0,2.864,4.375,3.872,3.872,0,0,0,1.339.218,4.029,4.029,0,0,0-3.185-4.474" transform="translate(831.771 1049.436)" fill="#ff9090"/>
    <path id="Trazado_874573" data-name="Trazado 874573" d="M251.687,71.515a4.935,4.935,0,0,1-5.046,4.17,7.59,7.59,0,0,1-1.191-.109l.117-.738c3.209.558,5.065-1.4,5.422-3.453.394-2.25-.824-4.976-4.244-6.444.023-.261.044-.522.053-.783,3.948,1.6,5.349,4.756,4.89,7.357" transform="translate(834.431 1049.883)" fill="#375a64"/>
    <path id="Trazado_874574" data-name="Trazado 874574" d="M242.865,78.23l-3.019-.666a2.507,2.507,0,0,1-1.851-2.969,2.4,2.4,0,0,1,2.841-1.933l3.02.667a2.506,2.506,0,0,1,1.85,2.968,2.4,2.4,0,0,1-2.841,1.933" transform="translate(833.895 1049.12)" fill="#1a2e35"/>
    <path id="Trazado_874575" data-name="Trazado 874575" d="M226.348,113.641c.886-3.326,3.335-5.395,4.831-5.531,3.815-.348,5.741,4.512,5.741,4.512s.353-11.611-5.1-18.889c-5.039-6.726-6.054-7.58-6.054-7.58l-.831,8.579a28.366,28.366,0,0,1,1.3,7.309,89.942,89.942,0,0,1,.111,11.6" transform="translate(833.224 1047.897)" fill="#e1e1e1"/>
    <path id="Trazado_874576" data-name="Trazado 874576" d="M197.807,85.322c-2.057.783-2.169,3.538-8,6.576a38.825,38.825,0,0,0,19.213,25.277c1.215-3.206,1.557-5.485,4.528-6.682s8.257,3.072,8.257,3.072a16.036,16.036,0,0,0-2.857-4.146c-7.026-6.3-8.837-7.9-12.384-10.973-9.446-8.184-8.9-11.737-8.9-11.737Z" transform="translate(832.694 1047.973)" fill="#e1e1e1"/>
    <path id="Trazado_874577" data-name="Trazado 874577" d="M197.438,51.785l-5.559-1.564s.158-11.241,1.675-17.077c1.415-5.444,4.734-10.112,7.9-11.789a16.02,16.02,0,0,1,7.019-1.855,11.882,11.882,0,0,0-3.363,1.722c-1.249.9-5.523,5.346-6.854,14.468a81.83,81.83,0,0,0-.815,16.095" transform="translate(830.354 1053.915)" fill="#375a64"/>
    <path id="Trazado_874578" data-name="Trazado 874578" d="M201.706,66.36c1.767-4.918.655-12.222-2.48-16.282a7.345,7.345,0,0,0-3.006-2.445,4.149,4.149,0,0,0-2.3-.26c-.428.077-2.154.371-2.594.45-1.764.32-3.3,1.862-4.2,4.373-1.767,4.917-.654,12.221,2.48,16.282a7.351,7.351,0,0,0,3.006,2.445,4.15,4.15,0,0,0,2.313.257c.423-.078,2.128-.368,2.562-.445,1.772-.313,3.315-1.857,4.219-4.376" transform="translate(829.677 1051.404)" fill="#2b454e"/>
    <path id="Trazado_874579" data-name="Trazado 874579" d="M192.611,70.967a7.351,7.351,0,0,1-3.006-2.445c-3.134-4.061-4.246-11.365-2.48-16.282,1.281-3.565,3.839-5.179,6.516-4.112a7.338,7.338,0,0,1,3.006,2.445c3.134,4.06,4.246,11.364,2.48,16.282-1.281,3.565-3.838,5.179-6.516,4.112" transform="translate(829.264 1051.359)" fill="#1a2e35"/>
    <path id="Trazado_874580" data-name="Trazado 874580" d="M198.5,66.706c1.707-4.75.636-11.779-2.391-15.7-1.514-1.962-3.231-2.773-4.783-2.5l-1.283.224c-1.552.27-2.94,1.624-3.794,4-1.707,4.751-.636,11.78,2.391,15.7,1.513,1.961,3.229,2.772,4.781,2.5l1.289-.226c1.55-.271,2.936-1.625,3.788-4" transform="translate(829.202 1051.302)" fill="#f0f0f0"/>
    <path id="Trazado_874581" data-name="Trazado 874581" d="M194.818,51.253c3.026,3.921,4.1,10.951,2.391,15.7s-5.544,5.421-8.57,1.5-4.1-10.951-2.391-15.7,5.543-5.421,8.57-1.5" transform="translate(828.997 1051.279)" fill="#e1e1e1"/>
    <path id="Trazado_874582" data-name="Trazado 874582" d="M196.963,66.954c1.707-4.75.636-11.779-2.391-15.7-1.511-1.959-3.225-2.769-4.774-2.5-.434.076-1.233.273-1.666.348-1.55.273-2.934,1.626-3.786,4-1.707,4.75-.636,11.78,2.39,15.7,1.511,1.958,3.224,2.769,4.773,2.5.434-.076,1.233-.274,1.666-.349,1.55-.271,2.936-1.625,3.788-4" transform="translate(829.05 1051.279)" fill="#d268cc"/>
    <g id="Grupo_1099829" data-name="Grupo 1099829" transform="translate(1012.322 1100.326)" opacity="0.15">
      <g id="Grupo_1099828" data-name="Grupo 1099828" transform="translate(0 0)">
        <g id="Grupo_1099827" data-name="Grupo 1099827" clip-path="url(#clip-path-33)">
          <path id="Trazado_874583" data-name="Trazado 874583" d="M192.916,51.635c3.026,3.922,4.1,10.951,2.391,15.7s-5.544,5.421-8.57,1.5-4.1-10.951-2.391-15.7,5.544-5.422,8.57-1.5" transform="translate(-183.534 -49.082)" fill="#fff"/>
        </g>
      </g>
    </g>
    <path id="Trazado_874584" data-name="Trazado 874584" d="M190.812,56.6a9.663,9.663,0,0,1,1.255,8.247c-.9,2.494-2.912,2.847-4.5.788a9.666,9.666,0,0,1-1.256-8.247c.9-2.5,2.911-2.847,4.5-.788" transform="translate(828.109 1050.687)" fill="#1a2e35"/>
    <path id="Trazado_874585" data-name="Trazado 874585" d="M192.332,59.713l-3.012,1.442-.886-5.827a2.7,2.7,0,0,1,2.509,1.309,8.339,8.339,0,0,1,1.39,3.076" transform="translate(827.96 1050.683)" fill="#375a64"/>
    <path id="Trazado_874586" data-name="Trazado 874586" d="M192.329,65.325a2.853,2.853,0,0,1-1.99,2.1l-.888-5.829,3.013-1.441a9.467,9.467,0,0,1-.134,5.174" transform="translate(827.977 1050.244)" fill="#2b454e"/>
    <path id="Trazado_874587" data-name="Trazado 874587" d="M189.892,67.565a2.7,2.7,0,0,1-2.512-1.31,8.207,8.207,0,0,1-1.386-3.078L189,61.736Z" transform="translate(827.702 1050.103)" fill="#375a64"/>
    <path id="Trazado_874588" data-name="Trazado 874588" d="M188.96,61.157,185.95,62.6a9.43,9.43,0,0,1,.131-5.168,2.861,2.861,0,0,1,1.992-2.1Z" transform="translate(827.575 1050.681)" fill="#2b454e"/>
    <path id="Trazado_874589" data-name="Trazado 874589" d="M172.748,135.19l-10.694,37.1s-.661,5.7-1.691,18.592c-.507,6.338-1.07,11.79-1.267,17.129a31.117,31.117,0,0,1-8.783-3.6c-6.578-3.969-11.61-10.276-14.915-18.5a108.639,108.639,0,0,1-.495-19.5c.212-4.019,2.057-12.163,7.638-30.912s7.041-24.524,10.032-29.33c2.457-3.936,6.39-7.726,15.645-9.227,11.429,9.35,4.529,38.246,4.529,38.246" transform="translate(827.345 1046.924)" fill="#2b454e"/>
    <path id="Trazado_874590" data-name="Trazado 874590" d="M311.542,23.316c4.064,2.452,6.579,7.71,6.578,15.193,0,14.965-10.056,33.164-22.46,40.645-6.2,3.743-11.817,4.1-15.881,1.645-2.468-1.489-4.494-2.712-6.962-4.2-4.064-2.453-6.578-7.712-6.578-15.193,0-14.967,10.056-33.165,22.46-40.647,6.2-3.743,11.817-4.095,15.881-1.643l6.962,4.2" transform="translate(862.218 1054.091)" fill="#1a2e35"/>
    <path id="Trazado_874591" data-name="Trazado 874591" d="M310.84,64.161c4.924-7.941,8.056-17.3,8.057-25.651,0-7.482-2.514-12.741-6.579-15.192l-6.961-4.2c-4.064-2.452-9.679-2.1-15.881,1.642-6.923,4.177-13.113,11.691-17.233,20.118Z" transform="translate(861.684 1054.091)" fill="#2b454e"/>
    <path id="Trazado_874592" data-name="Trazado 874592" d="M296.694,79.648c-6.2,3.742-11.817,4.1-15.881,1.644s-6.578-7.711-6.578-15.193c0-14.966,10.056-33.165,22.46-40.647,6.2-3.741,11.817-4.1,15.881-1.643s6.579,7.71,6.578,15.192c0,14.967-10.055,33.165-22.46,40.647" transform="translate(861.505 1053.666)" fill="#375a64"/>
    <path id="Trazado_874593" data-name="Trazado 874593" d="M297.584,39.157c.015-1.582-.492-1.413-.817-1.467-.308-.051-.667-.088-1.027-.12a2.286,2.286,0,0,0-1.732.862,13.936,13.936,0,0,0-3.83,6.438,18.343,18.343,0,0,0-.2,8.388c.115.552,1.307,8.866,5.72,12.778a19.777,19.777,0,0,0,2.59,1.942,4.853,4.853,0,0,0,3.311.617,8.233,8.233,0,0,0,4.752-3.441,10.845,10.845,0,0,0,1.42-3.738c-.038-.341-.34-.572-.764-1.017s-2.518-2.6-2.936-2.9-.739-.473-1.332.287-2.151,2.452-2.622,2.953-.8.539-1.229.094a11.224,11.224,0,0,1-3.191-4.317,20.613,20.613,0,0,1-1.4-5.754,1.765,1.765,0,0,1,.711-1.595c.347-.333.811-.876,1.217-1.315a8.264,8.264,0,0,0,.928-1.274,2.21,2.21,0,0,0,.362-1.391c-.018-.408.045-4.4.06-6.028" transform="translate(858.713 1052.284)" fill="#fff" fill-rule="evenodd"/>
    <path id="Trazado_874594" data-name="Trazado 874594" d="M74.426,112.361c-4.8-7.3-17.619-13.347-33.475-13.5-14.422-.143-31.976,4.288-36.364,18.766-3.741,12.348,7.778,23.82,19.738,26.263a78.911,78.911,0,0,0,14.433,1.594c2.216,4.327,7.415,6.987,11.331,7.263a12.355,12.355,0,0,1-2.6-7.608,71.729,71.729,0,0,0,11.081-1.956c20.764-5.422,21.22-22.656,15.853-30.819" transform="translate(813.049 1046.751)" fill="#ececec"/>
    <path id="Trazado_874595" data-name="Trazado 874595" d="M128.9,30.105c-6.452-9.814-23.7-17.953-45.028-18.163-19.4-.192-43.013,5.768-48.915,25.243-5.033,16.61,10.463,32.041,26.55,35.327a106.122,106.122,0,0,0,19.415,2.144c2.981,5.819,9.976,9.4,15.242,9.77A16.624,16.624,0,0,1,92.67,74.193a96.573,96.573,0,0,0,14.907-2.632c27.929-7.293,28.543-30.475,21.324-41.456" transform="translate(814.467 1054.598)" fill="#d268cc"/>
    <path id="Trazado_874596" data-name="Trazado 874596" d="M58.714,39.568a6.057,6.057,0,1,0,5.793,6.051,5.926,5.926,0,0,0-5.793-6.051m27.125,0a6.057,6.057,0,1,0,5.792,6.051,5.926,5.926,0,0,0-5.792-6.051m27.125,0a6.057,6.057,0,1,0,5.792,6.051,5.926,5.926,0,0,0-5.792-6.051" transform="translate(811.33 1052.103)" fill="#fff"/>
    <rect id="Rectángulo_401630" data-name="Rectángulo 401630" width="461.743" height="389.333" transform="translate(853.257 1055.676)" fill="none"/>
    <rect id="Rectángulo_401631" data-name="Rectángulo 401631" width="461.743" height="389.333" transform="translate(853.257 1055.676)" fill="none"/>
  </g>
</svg>
