<svg xmlns="http://www.w3.org/2000/svg" xmlns:xlink="http://www.w3.org/1999/xlink" width="792" height="618" viewBox="0 0 792 618">
  <defs>
    <clipPath id="clip-path">
      <rect id="Rectángulo_401211" data-name="Rectángulo 401211" width="42.508" height="37.004" fill="#12263f"/>
    </clipPath>
    <clipPath id="clip-path-2">
      <rect id="Rectángulo_401071" data-name="Rectángulo 401071" width="46.484" height="34.357" fill="#12263f"/>
    </clipPath>
    <clipPath id="clip-path-3">
      <rect id="Rectángulo_401209" data-name="Rectángulo 401209" width="57.699" height="51.195" fill="#12263f"/>
    </clipPath>
    <clipPath id="clip-path-4">
      <rect id="Rectángulo_401208" data-name="Rectángulo 401208" width="50.36" height="38.798" transform="translate(0 0)" fill="#12263f"/>
    </clipPath>
    <clipPath id="clip-path-5">
      <rect id="Rectángulo_401210" data-name="Rectángulo 401210" width="35.381" height="34.139" fill="#12263f" stroke="#12263f" stroke-width="1"/>
    </clipPath>
  </defs>
  <g id="Grupo_1099850" data-name="Grupo 1099850" transform="translate(-403.667 -3280)">
    <g id="Trazado_874738" data-name="Trazado 874738" transform="translate(524.667 3348)" fill="none">
      <path d="M275,0C426.878,0,550,123.122,550,275S426.878,550,275,550,0,426.878,0,275,123.122,0,275,0Z" stroke="none"/>
      <path d="M 275 11 C 129.429931640625 11 11 129.429931640625 11 275 C 11 420.570068359375 129.429931640625 539 275 539 C 420.570068359375 539 539 420.570068359375 539 275 C 539 129.429931640625 420.570068359375 11 275 11 M 275 0 C 426.8782348632812 0 550 123.1216735839844 550 275 C 550 426.8782348632812 426.8782348632812 550 275 550 C 123.1216735839844 550 0 426.8782348632812 0 275 C 0 123.1216735839844 123.1216735839844 0 275 0 Z" stroke="none" fill="#6e3dc6"/>
    </g>
    <g id="Trazado_874742" data-name="Trazado 874742" transform="translate(701.667 3318)" fill="#75baf1">
      <path d="M 189 83 L 7 83 C 3.69160008430481 83 1 80.30840301513672 1 77 L 1 7 C 1 3.69160008430481 3.69160008430481 1 7 1 L 189 1 C 192.3083953857422 1 195 3.69160008430481 195 7 L 195 77 C 195 80.30840301513672 192.3083953857422 83 189 83 Z" stroke="none"/>
      <path d="M 7 2 C 4.242996215820312 2 2 4.242996215820312 2 7 L 2 77 C 2 79.75700378417969 4.242996215820312 82 7 82 L 189 82 C 191.7570037841797 82 194 79.75700378417969 194 77 L 194 7 C 194 4.242996215820312 191.7570037841797 2 189 2 L 7 2 M 7 0 L 189 0 C 192.8659973144531 0 196 3.134002685546875 196 7 L 196 77 C 196 80.86599731445312 192.8659973144531 84 189 84 L 7 84 C 3.134002685546875 84 0 80.86599731445312 0 77 L 0 7 C 0 3.134002685546875 3.134002685546875 0 7 0 Z" stroke="none" fill="#008cfc"/>
    </g>
    <g id="Trazado_874734" data-name="Trazado 874734" transform="translate(999.667 3492)" fill="#75baf1">
      <path d="M 189 83 L 7 83 C 3.69160008430481 83 1 80.30840301513672 1 77 L 1 7 C 1 3.69160008430481 3.69160008430481 1 7 1 L 189 1 C 192.3083953857422 1 195 3.69160008430481 195 7 L 195 77 C 195 80.30840301513672 192.3083953857422 83 189 83 Z" stroke="none"/>
      <path d="M 7 2 C 4.242996215820312 2 2 4.242996215820312 2 7 L 2 77 C 2 79.75700378417969 4.242996215820312 82 7 82 L 189 82 C 191.7570037841797 82 194 79.75700378417969 194 77 L 194 7 C 194 4.242996215820312 191.7570037841797 2 189 2 L 7 2 M 7 0 L 189 0 C 192.8659973144531 0 196 3.134002685546875 196 7 L 196 77 C 196 80.86599731445312 192.8659973144531 84 189 84 L 7 84 C 3.134002685546875 84 0 80.86599731445312 0 77 L 0 7 C 0 3.134002685546875 3.134002685546875 0 7 0 Z" stroke="none" fill="#008cfc"/>
    </g>
    <g id="Trazado_874737" data-name="Trazado 874737" transform="translate(886.667 3764.5)" fill="#75baf1">
      <path d="M 189 83 L 7 83 C 3.69160008430481 83 1 80.30840301513672 1 77 L 1 7 C 1 3.69160008430481 3.69160008430481 1 7 1 L 189 1 C 192.3083953857422 1 195 3.69160008430481 195 7 L 195 77 C 195 80.30840301513672 192.3083953857422 83 189 83 Z" stroke="none"/>
      <path d="M 7 2 C 4.242996215820312 2 2 4.242996215820312 2 7 L 2 77 C 2 79.75700378417969 4.242996215820312 82 7 82 L 189 82 C 191.7570037841797 82 194 79.75700378417969 194 77 L 194 7 C 194 4.242996215820312 191.7570037841797 2 189 2 L 7 2 M 7 0 L 189 0 C 192.8659973144531 0 196 3.134002685546875 196 7 L 196 77 C 196 80.86599731445312 192.8659973144531 84 189 84 L 7 84 C 3.134002685546875 84 0 80.86599731445312 0 77 L 0 7 C 0 3.134002685546875 3.134002685546875 0 7 0 Z" stroke="none" fill="#008cfc"/>
    </g>
    <path id="Trazado_874741" data-name="Trazado 874741" d="M7,0H237a7,7,0,0,1,7,7V128a7,7,0,0,1-7,7H7a7,7,0,0,1-7-7V7A7,7,0,0,1,7,0Z" transform="translate(677.667 3538)" fill="#6e3dc6"/>
    <g id="Trazado_874752" data-name="Trazado 874752" transform="translate(403.667 3492)" fill="#75baf1">
      <path d="M 189 83 L 7 83 C 3.69160008430481 83 1 80.30840301513672 1 77 L 1 7 C 1 3.69160008430481 3.69160008430481 1 7 1 L 189 1 C 192.3083953857422 1 195 3.69160008430481 195 7 L 195 77 C 195 80.30840301513672 192.3083953857422 83 189 83 Z" stroke="none"/>
      <path d="M 7 2 C 4.242996215820312 2 2 4.242996215820312 2 7 L 2 77 C 2 79.75700378417969 4.242996215820312 82 7 82 L 189 82 C 191.7570037841797 82 194 79.75700378417969 194 77 L 194 7 C 194 4.242996215820312 191.7570037841797 2 189 2 L 7 2 M 7 0 L 189 0 C 192.8659973144531 0 196 3.134002685546875 196 7 L 196 77 C 196 80.86599731445312 192.8659973144531 84 189 84 L 7 84 C 3.134002685546875 84 0 80.86599731445312 0 77 L 0 7 C 0 3.134002685546875 3.134002685546875 0 7 0 Z" stroke="none" fill="#008cfc"/>
    </g>
    <g id="Trazado_874749" data-name="Trazado 874749" transform="translate(508.667 3765)" fill="#75baf1">
      <path d="M 189 83 L 7 83 C 3.69160008430481 83 1 80.30840301513672 1 77 L 1 7 C 1 3.69160008430481 3.69160008430481 1 7 1 L 189 1 C 192.3083953857422 1 195 3.69160008430481 195 7 L 195 77 C 195 80.30840301513672 192.3083953857422 83 189 83 Z" stroke="none"/>
      <path d="M 7 2 C 4.242996215820312 2 2 4.242996215820312 2 7 L 2 77 C 2 79.75700378417969 4.242996215820312 82 7 82 L 189 82 C 191.7570037841797 82 194 79.75700378417969 194 77 L 194 7 C 194 4.242996215820312 191.7570037841797 2 189 2 L 7 2 M 7 0 L 189 0 C 192.8659973144531 0 196 3.134002685546875 196 7 L 196 77 C 196 80.86599731445312 192.8659973144531 84 189 84 L 7 84 C 3.134002685546875 84 0 80.86599731445312 0 77 L 0 7 C 0 3.134002685546875 3.134002685546875 0 7 0 Z" stroke="none" fill="#008cfc"/>
    </g>
    <path id="Trazado_873366" data-name="Trazado 873366" d="M1226.333-8235.248" transform="translate(5724.174 -2893.965) rotate(-150)" fill="none" stroke="#6e3dc6" stroke-width="5"/>
    <path id="Trazado_874743" data-name="Trazado 874743" d="M3.525,13.434V19H1.65V4.781H6.895a5.269,5.269,0,0,1,3.657,1.191,4.039,4.039,0,0,1,1.323,3.154,3.986,3.986,0,0,1-1.294,3.188,5.5,5.5,0,0,1-3.706,1.118Zm0-1.533H6.895a3.369,3.369,0,0,0,2.3-.709,2.593,2.593,0,0,0,.8-2.05,2.679,2.679,0,0,0-.8-2.035A3.156,3.156,0,0,0,7,6.314H3.525Zm15.566-1.846a5.414,5.414,0,0,0-.889-.068A2.381,2.381,0,0,0,15.791,11.5V19H13.984V8.434h1.758l.029,1.221a2.813,2.813,0,0,1,2.52-1.416,1.846,1.846,0,0,1,.8.137Zm.986,3.564a6.241,6.241,0,0,1,.61-2.793,4.553,4.553,0,0,1,1.7-1.914,4.626,4.626,0,0,1,2.485-.674,4.456,4.456,0,0,1,3.491,1.494A5.748,5.748,0,0,1,29.7,13.707v.127a6.3,6.3,0,0,1-.591,2.769,4.486,4.486,0,0,1-1.689,1.909,4.679,4.679,0,0,1-2.524.684A4.445,4.445,0,0,1,21.411,17.7a5.719,5.719,0,0,1-1.333-3.955Zm1.816.215a4.52,4.52,0,0,0,.815,2.822,2.763,2.763,0,0,0,4.37-.015,4.943,4.943,0,0,0,.811-3.022,4.513,4.513,0,0,0-.825-2.817,2.623,2.623,0,0,0-2.192-1.079,2.594,2.594,0,0,0-2.158,1.064A4.906,4.906,0,0,0,21.895,13.834ZM38.115,16.2a1.33,1.33,0,0,0-.552-1.138,5.311,5.311,0,0,0-1.924-.7,9.1,9.1,0,0,1-2.178-.7,3.1,3.1,0,0,1-1.191-.977,2.336,2.336,0,0,1-.386-1.348,2.741,2.741,0,0,1,1.1-2.2,4.291,4.291,0,0,1,2.808-.9,4.415,4.415,0,0,1,2.915.928,2.947,2.947,0,0,1,1.118,2.373H38.008a1.631,1.631,0,0,0-.63-1.279,2.36,2.36,0,0,0-1.587-.537,2.47,2.47,0,0,0-1.543.43,1.353,1.353,0,0,0-.557,1.123,1.1,1.1,0,0,0,.518.986,6.368,6.368,0,0,0,1.87.635,9.744,9.744,0,0,1,2.192.723,3.2,3.2,0,0,1,1.245,1.011,2.485,2.485,0,0,1,.405,1.44,2.7,2.7,0,0,1-1.133,2.271,4.752,4.752,0,0,1-2.939.854,5.321,5.321,0,0,1-2.246-.449,3.653,3.653,0,0,1-1.528-1.255,3.025,3.025,0,0,1-.552-1.743H33.33a1.87,1.87,0,0,0,.728,1.44,2.822,2.822,0,0,0,1.792.532,2.913,2.913,0,0,0,1.646-.415A1.275,1.275,0,0,0,38.115,16.2ZM51.2,13.834a6.327,6.327,0,0,1-1.1,3.887A3.537,3.537,0,0,1,47.109,19.2a3.875,3.875,0,0,1-3.027-1.221v5.088H42.275V8.434h1.65l.088,1.172A3.722,3.722,0,0,1,47.08,8.238a3.6,3.6,0,0,1,3.013,1.436A6.4,6.4,0,0,1,51.2,13.668Zm-1.807-.205a4.669,4.669,0,0,0-.762-2.822,2.454,2.454,0,0,0-2.09-1.035,2.656,2.656,0,0,0-2.461,1.455v5.049a2.661,2.661,0,0,0,2.48,1.445,2.442,2.442,0,0,0,2.065-1.03A5.1,5.1,0,0,0,49.395,13.629ZM57.881,19.2a4.617,4.617,0,0,1-3.5-1.411,5.237,5.237,0,0,1-1.348-3.774v-.332a6.341,6.341,0,0,1,.6-2.808,4.685,4.685,0,0,1,1.68-1.934,4.223,4.223,0,0,1,2.339-.7,3.957,3.957,0,0,1,3.2,1.357A5.877,5.877,0,0,1,62,13.482v.752H54.844a3.756,3.756,0,0,0,.913,2.524,2.87,2.87,0,0,0,2.222.962A3.147,3.147,0,0,0,59.6,17.33a4.073,4.073,0,0,0,1.162-1.035l1.1.859A4.437,4.437,0,0,1,57.881,19.2Zm-.225-9.473a2.41,2.41,0,0,0-1.836.8A3.868,3.868,0,0,0,54.9,12.75H60.2v-.137a3.441,3.441,0,0,0-.742-2.134A2.269,2.269,0,0,0,57.656,9.723Zm10.674,8a2.6,2.6,0,0,0,1.689-.586,2.061,2.061,0,0,0,.8-1.465h1.709A3.276,3.276,0,0,1,71.9,17.4a4.116,4.116,0,0,1-1.538,1.309,4.438,4.438,0,0,1-2.036.488,4.353,4.353,0,0,1-3.433-1.44,5.737,5.737,0,0,1-1.274-3.94v-.3a6.361,6.361,0,0,1,.566-2.744A4.314,4.314,0,0,1,65.815,8.9a4.619,4.619,0,0,1,2.5-.664A4.238,4.238,0,0,1,71.274,9.3a3.8,3.8,0,0,1,1.255,2.764H70.82a2.49,2.49,0,0,0-.776-1.685,2.415,2.415,0,0,0-1.724-.659,2.529,2.529,0,0,0-2.134.991,4.655,4.655,0,0,0-.757,2.866v.342a4.562,4.562,0,0,0,.752,2.813A2.541,2.541,0,0,0,68.33,17.721ZM77.012,5.875V8.434h1.973v1.4H77.012v6.561a1.467,1.467,0,0,0,.264.953,1.11,1.11,0,0,0,.9.318,4.374,4.374,0,0,0,.859-.117V19a5.268,5.268,0,0,1-1.387.194,2.25,2.25,0,0,1-1.826-.732,3.147,3.147,0,0,1-.615-2.08V9.83H73.281v-1.4h1.924V5.875Zm3.408,7.744a6.241,6.241,0,0,1,.61-2.793,4.553,4.553,0,0,1,1.7-1.914,4.626,4.626,0,0,1,2.485-.674,4.456,4.456,0,0,1,3.491,1.494,5.748,5.748,0,0,1,1.333,3.975v.127a6.3,6.3,0,0,1-.591,2.769,4.486,4.486,0,0,1-1.689,1.909,4.679,4.679,0,0,1-2.524.684A4.445,4.445,0,0,1,81.753,17.7a5.719,5.719,0,0,1-1.333-3.955Zm1.816.215a4.52,4.52,0,0,0,.815,2.822,2.763,2.763,0,0,0,4.37-.015,4.943,4.943,0,0,0,.811-3.022,4.513,4.513,0,0,0-.825-2.817,2.623,2.623,0,0,0-2.192-1.079,2.594,2.594,0,0,0-2.158,1.064A4.906,4.906,0,0,0,82.236,13.834Z" transform="translate(750.833 3348)" fill="#fff"/>
    <path id="Trazado_874735" data-name="Trazado 874735" d="M12.914,14.488a5.231,5.231,0,0,1-1.665,3.481A5.457,5.457,0,0,1,7.523,19.2a5.01,5.01,0,0,1-4.038-1.807,7.268,7.268,0,0,1-1.519-4.834V11.188A8.1,8.1,0,0,1,2.675,7.7a5.288,5.288,0,0,1,2.007-2.31,5.588,5.588,0,0,1,3.008-.806,5.138,5.138,0,0,1,3.633,1.265,5.294,5.294,0,0,1,1.592,3.5H11.029A4.085,4.085,0,0,0,9.97,6.883a3.206,3.206,0,0,0-2.28-.764A3.355,3.355,0,0,0,4.872,7.448a6.1,6.1,0,0,0-1.021,3.782v1.378a6.273,6.273,0,0,0,.967,3.685,3.124,3.124,0,0,0,2.705,1.368,3.608,3.608,0,0,0,2.4-.708,3.929,3.929,0,0,0,1.108-2.466Zm1.8-.869a6.241,6.241,0,0,1,.61-2.793,4.553,4.553,0,0,1,1.7-1.914,4.626,4.626,0,0,1,2.485-.674A4.456,4.456,0,0,1,23,9.732a5.748,5.748,0,0,1,1.333,3.975v.127a6.3,6.3,0,0,1-.591,2.769,4.486,4.486,0,0,1-1.689,1.909,4.679,4.679,0,0,1-2.524.684A4.445,4.445,0,0,1,16.044,17.7a5.719,5.719,0,0,1-1.333-3.955Zm1.816.215a4.52,4.52,0,0,0,.815,2.822,2.763,2.763,0,0,0,4.37-.015,4.943,4.943,0,0,0,.811-3.022A4.513,4.513,0,0,0,21.7,10.8a2.623,2.623,0,0,0-2.192-1.079,2.594,2.594,0,0,0-2.158,1.064A4.906,4.906,0,0,0,16.527,13.834ZM28.3,8.434l.059,1.328a3.85,3.85,0,0,1,3.164-1.523q3.35,0,3.379,3.779V19H33.1V12.008a2.432,2.432,0,0,0-.522-1.689,2.094,2.094,0,0,0-1.6-.547,2.607,2.607,0,0,0-1.543.469,3.183,3.183,0,0,0-1.035,1.23V19H26.6V8.434ZM40.082,5.875V8.434h1.973v1.4H40.082v6.561a1.467,1.467,0,0,0,.264.953,1.11,1.11,0,0,0,.9.318,4.374,4.374,0,0,0,.859-.117V19a5.268,5.268,0,0,1-1.387.194,2.25,2.25,0,0,1-1.826-.732,3.147,3.147,0,0,1-.615-2.08V9.83H36.352v-1.4h1.924V5.875ZM50.688,19a3.8,3.8,0,0,1-.254-1.113A4.031,4.031,0,0,1,47.426,19.2a3.73,3.73,0,0,1-2.563-.884,2.859,2.859,0,0,1-1-2.241,2.987,2.987,0,0,1,1.255-2.563,5.916,5.916,0,0,1,3.53-.913H50.4v-.83a2.029,2.029,0,0,0-.566-1.509,2.276,2.276,0,0,0-1.67-.562,2.634,2.634,0,0,0-1.621.488,1.439,1.439,0,0,0-.654,1.182H44.076a2.493,2.493,0,0,1,.562-1.528,3.832,3.832,0,0,1,1.523-1.167,5.125,5.125,0,0,1,2.114-.43,4.177,4.177,0,0,1,2.861.913,3.294,3.294,0,0,1,1.074,2.515v4.863a5.946,5.946,0,0,0,.371,2.314V19Zm-3-1.377a3.175,3.175,0,0,0,1.611-.439,2.658,2.658,0,0,0,1.1-1.143V13.873H48.988q-3.32,0-3.32,1.943a1.645,1.645,0,0,0,.566,1.328A2.177,2.177,0,0,0,47.689,17.623Zm11.592.1a2.6,2.6,0,0,0,1.689-.586,2.061,2.061,0,0,0,.8-1.465H63.48a3.276,3.276,0,0,1-.625,1.729,4.116,4.116,0,0,1-1.538,1.309,4.438,4.438,0,0,1-2.036.488,4.353,4.353,0,0,1-3.433-1.44,5.737,5.737,0,0,1-1.274-3.94v-.3a6.361,6.361,0,0,1,.566-2.744A4.314,4.314,0,0,1,56.767,8.9a4.619,4.619,0,0,1,2.5-.664A4.238,4.238,0,0,1,62.226,9.3a3.8,3.8,0,0,1,1.255,2.764H61.771A2.49,2.49,0,0,0,61,10.382a2.415,2.415,0,0,0-1.724-.659,2.529,2.529,0,0,0-2.134.991,4.655,4.655,0,0,0-.757,2.866v.342a4.562,4.562,0,0,0,.752,2.813A2.541,2.541,0,0,0,59.281,17.721ZM67.963,5.875V8.434h1.973v1.4H67.963v6.561a1.467,1.467,0,0,0,.264.953,1.11,1.11,0,0,0,.9.318,4.374,4.374,0,0,0,.859-.117V19A5.268,5.268,0,0,1,68.6,19.2a2.25,2.25,0,0,1-1.826-.732,3.147,3.147,0,0,1-.615-2.08V9.83H64.232v-1.4h1.924V5.875Zm3.408,7.744a6.241,6.241,0,0,1,.61-2.793,4.553,4.553,0,0,1,1.7-1.914,4.626,4.626,0,0,1,2.485-.674,4.456,4.456,0,0,1,3.491,1.494,5.748,5.748,0,0,1,1.333,3.975v.127A6.3,6.3,0,0,1,80.4,16.6a4.486,4.486,0,0,1-1.689,1.909,4.679,4.679,0,0,1-2.524.684A4.445,4.445,0,0,1,72.7,17.7a5.719,5.719,0,0,1-1.333-3.955Zm1.816.215A4.52,4.52,0,0,0,74,16.656a2.763,2.763,0,0,0,4.37-.015,4.943,4.943,0,0,0,.811-3.022,4.513,4.513,0,0,0-.825-2.817,2.623,2.623,0,0,0-2.192-1.079,2.594,2.594,0,0,0-2.158,1.064A4.906,4.906,0,0,0,73.188,13.834ZM94.73,19a3.8,3.8,0,0,1-.254-1.113A4.031,4.031,0,0,1,91.469,19.2a3.73,3.73,0,0,1-2.563-.884,2.859,2.859,0,0,1-1-2.241,2.987,2.987,0,0,1,1.255-2.563,5.916,5.916,0,0,1,3.53-.913h1.758v-.83a2.029,2.029,0,0,0-.566-1.509,2.276,2.276,0,0,0-1.67-.562,2.634,2.634,0,0,0-1.621.488,1.439,1.439,0,0,0-.654,1.182H88.119a2.493,2.493,0,0,1,.562-1.528A3.832,3.832,0,0,1,90.2,8.668a5.125,5.125,0,0,1,2.114-.43,4.177,4.177,0,0,1,2.861.913,3.294,3.294,0,0,1,1.074,2.515v4.863a5.946,5.946,0,0,0,.371,2.314V19Zm-3-1.377a3.175,3.175,0,0,0,1.611-.439,2.658,2.658,0,0,0,1.1-1.143V13.873H93.031q-3.32,0-3.32,1.943a1.645,1.645,0,0,0,.566,1.328A2.177,2.177,0,0,0,91.732,17.623Zm9.063-9.189.059,1.328a3.85,3.85,0,0,1,3.164-1.523q3.35,0,3.379,3.779V19H105.59V12.008a2.432,2.432,0,0,0-.522-1.689,2.094,2.094,0,0,0-1.6-.547,2.607,2.607,0,0,0-1.543.469,3.183,3.183,0,0,0-1.035,1.23V19H99.086V8.434Zm11.777-2.559V8.434h1.973v1.4h-1.973v6.561a1.467,1.467,0,0,0,.264.953,1.11,1.11,0,0,0,.9.318,4.374,4.374,0,0,0,.859-.117V19a5.268,5.268,0,0,1-1.387.194,2.25,2.25,0,0,1-1.826-.732,3.147,3.147,0,0,1-.615-2.08V9.83h-1.924v-1.4h1.924V5.875Zm8.467,13.32a4.617,4.617,0,0,1-3.5-1.411A5.237,5.237,0,0,1,116.2,14.01v-.332a6.341,6.341,0,0,1,.6-2.808,4.685,4.685,0,0,1,1.68-1.934,4.223,4.223,0,0,1,2.339-.7,3.957,3.957,0,0,1,3.2,1.357,5.877,5.877,0,0,1,1.143,3.887v.752H118a3.756,3.756,0,0,0,.913,2.524,2.87,2.87,0,0,0,2.222.962,3.147,3.147,0,0,0,1.621-.391,4.073,4.073,0,0,0,1.162-1.035l1.1.859A4.437,4.437,0,0,1,121.039,19.2Zm-.225-9.473a2.41,2.41,0,0,0-1.836.8,3.869,3.869,0,0,0-.918,2.231h5.293v-.137a3.441,3.441,0,0,0-.742-2.134A2.269,2.269,0,0,0,120.814,9.723ZM133.4,16.2a1.33,1.33,0,0,0-.552-1.138,5.311,5.311,0,0,0-1.924-.7,9.1,9.1,0,0,1-2.178-.7,3.1,3.1,0,0,1-1.191-.977,2.336,2.336,0,0,1-.386-1.348,2.741,2.741,0,0,1,1.1-2.2,4.291,4.291,0,0,1,2.808-.9,4.415,4.415,0,0,1,2.915.928,2.947,2.947,0,0,1,1.118,2.373h-1.816a1.631,1.631,0,0,0-.63-1.279,2.36,2.36,0,0,0-1.587-.537,2.47,2.47,0,0,0-1.543.43,1.353,1.353,0,0,0-.557,1.123,1.1,1.1,0,0,0,.518.986,6.368,6.368,0,0,0,1.87.635,9.744,9.744,0,0,1,2.192.723A3.2,3.2,0,0,1,134.8,14.63a2.485,2.485,0,0,1,.405,1.44,2.7,2.7,0,0,1-1.133,2.271,4.752,4.752,0,0,1-2.939.854,5.321,5.321,0,0,1-2.246-.449,3.653,3.653,0,0,1-1.528-1.255,3.025,3.025,0,0,1-.552-1.743h1.807a1.87,1.87,0,0,0,.728,1.44,2.822,2.822,0,0,0,1.792.532,2.913,2.913,0,0,0,1.646-.415A1.275,1.275,0,0,0,133.4,16.2ZM29.306,37.629a6.19,6.19,0,0,1,1.152-3.911,3.921,3.921,0,0,1,5.957-.21V28h1.807V43h-1.66l-.088-1.133A3.679,3.679,0,0,1,33.456,43.2a3.609,3.609,0,0,1-2.993-1.5,6.26,6.26,0,0,1-1.157-3.926Zm1.807.205a4.687,4.687,0,0,0,.742,2.813,2.4,2.4,0,0,0,2.051,1.016,2.636,2.636,0,0,0,2.51-1.543V35.266a2.656,2.656,0,0,0-2.49-1.494,2.411,2.411,0,0,0-2.07,1.025A5.16,5.16,0,0,0,31.112,37.834Zm14.3,5.361a4.617,4.617,0,0,1-3.5-1.411,5.237,5.237,0,0,1-1.348-3.774v-.332a6.341,6.341,0,0,1,.6-2.808,4.685,4.685,0,0,1,1.68-1.934,4.223,4.223,0,0,1,2.339-.7,3.957,3.957,0,0,1,3.2,1.357,5.877,5.877,0,0,1,1.143,3.887v.752H42.372a3.756,3.756,0,0,0,.913,2.524,2.87,2.87,0,0,0,2.222.962,3.147,3.147,0,0,0,1.621-.391,4.073,4.073,0,0,0,1.162-1.035l1.1.859A4.437,4.437,0,0,1,45.409,43.2Zm-.225-9.473a2.41,2.41,0,0,0-1.836.8,3.868,3.868,0,0,0-.918,2.231h5.293v-.137a3.441,3.441,0,0,0-.742-2.134A2.269,2.269,0,0,0,45.185,33.723ZM58.534,43H56.728V28h1.807Zm9.414,0a3.8,3.8,0,0,1-.254-1.113A4.031,4.031,0,0,1,64.687,43.2a3.73,3.73,0,0,1-2.563-.884,2.859,2.859,0,0,1-1-2.241,2.987,2.987,0,0,1,1.255-2.563,5.916,5.916,0,0,1,3.53-.913h1.758v-.83a2.029,2.029,0,0,0-.566-1.509,2.276,2.276,0,0,0-1.67-.562,2.634,2.634,0,0,0-1.621.488,1.439,1.439,0,0,0-.654,1.182H61.337a2.493,2.493,0,0,1,.562-1.528,3.832,3.832,0,0,1,1.523-1.167,5.125,5.125,0,0,1,2.114-.43,4.177,4.177,0,0,1,2.861.913,3.294,3.294,0,0,1,1.074,2.515v4.863a5.946,5.946,0,0,0,.371,2.314V43Zm-3-1.377a3.175,3.175,0,0,0,1.611-.439,2.658,2.658,0,0,0,1.1-1.143V37.873H66.249q-3.32,0-3.32,1.943a1.645,1.645,0,0,0,.566,1.328A2.177,2.177,0,0,0,64.95,41.623Zm16.543.1a2.6,2.6,0,0,0,1.689-.586,2.061,2.061,0,0,0,.8-1.465h1.709a3.276,3.276,0,0,1-.625,1.729,4.116,4.116,0,0,1-1.538,1.309,4.438,4.438,0,0,1-2.036.488,4.353,4.353,0,0,1-3.433-1.44,5.737,5.737,0,0,1-1.274-3.94v-.3a6.361,6.361,0,0,1,.566-2.744A4.314,4.314,0,0,1,78.979,32.9a4.619,4.619,0,0,1,2.5-.664A4.238,4.238,0,0,1,84.438,33.3a3.8,3.8,0,0,1,1.255,2.764H83.983a2.49,2.49,0,0,0-.776-1.685,2.415,2.415,0,0,0-1.724-.659,2.529,2.529,0,0,0-2.134.991,4.655,4.655,0,0,0-.757,2.866v.342a4.562,4.562,0,0,0,.752,2.813A2.541,2.541,0,0,0,81.493,41.721ZM89.687,43H87.88V32.434h1.807ZM87.733,29.631A1.078,1.078,0,0,1,88,28.889a1.008,1.008,0,0,1,.8-.3,1.024,1.024,0,0,1,.8.3,1.067,1.067,0,0,1,.273.742,1.032,1.032,0,0,1-.273.732,1.043,1.043,0,0,1-.8.293,1.026,1.026,0,0,1-.8-.293A1.043,1.043,0,0,1,87.733,29.631Zm7.295.244v2.559H97v1.4H95.028v6.561a1.467,1.467,0,0,0,.264.953,1.11,1.11,0,0,0,.9.318,4.374,4.374,0,0,0,.859-.117V43a5.268,5.268,0,0,1-1.387.194,2.25,2.25,0,0,1-1.826-.732,3.147,3.147,0,0,1-.615-2.08V33.83H91.3v-1.4h1.924V29.875ZM105.634,43a3.8,3.8,0,0,1-.254-1.113,4.031,4.031,0,0,1-3.008,1.309,3.73,3.73,0,0,1-2.563-.884,2.859,2.859,0,0,1-1-2.241,2.987,2.987,0,0,1,1.255-2.563,5.916,5.916,0,0,1,3.53-.913h1.758v-.83a2.029,2.029,0,0,0-.566-1.509,2.276,2.276,0,0,0-1.67-.562,2.634,2.634,0,0,0-1.621.488,1.439,1.439,0,0,0-.654,1.182H99.022a2.493,2.493,0,0,1,.562-1.528,3.832,3.832,0,0,1,1.523-1.167,5.125,5.125,0,0,1,2.114-.43,4.177,4.177,0,0,1,2.861.913,3.294,3.294,0,0,1,1.074,2.515v4.863a5.946,5.946,0,0,0,.371,2.314V43Zm-3-1.377a3.175,3.175,0,0,0,1.611-.439,2.658,2.658,0,0,0,1.1-1.143V37.873h-1.416q-3.32,0-3.32,1.943a1.645,1.645,0,0,0,.566,1.328A2.177,2.177,0,0,0,102.636,41.623Z" transform="translate(1029 3510)" fill="#fff"/>
    <path id="Trazado_874740" data-name="Trazado 874740" d="M12.109,14.488a5.231,5.231,0,0,1-1.665,3.481A5.457,5.457,0,0,1,6.719,19.2a5.01,5.01,0,0,1-4.038-1.807,7.268,7.268,0,0,1-1.519-4.834V11.188A8.1,8.1,0,0,1,1.87,7.7a5.288,5.288,0,0,1,2.007-2.31,5.588,5.588,0,0,1,3.008-.806,5.138,5.138,0,0,1,3.633,1.265,5.294,5.294,0,0,1,1.592,3.5H10.225a4.085,4.085,0,0,0-1.06-2.468,3.206,3.206,0,0,0-2.28-.764A3.355,3.355,0,0,0,4.067,7.448a6.1,6.1,0,0,0-1.021,3.782v1.378a6.273,6.273,0,0,0,.967,3.685,3.124,3.124,0,0,0,2.705,1.368,3.608,3.608,0,0,0,2.4-.708,3.929,3.929,0,0,0,1.108-2.466ZM16.348,19H14.541V8.434h1.807ZM14.395,5.631a1.078,1.078,0,0,1,.269-.742,1.008,1.008,0,0,1,.8-.3,1.024,1.024,0,0,1,.8.3,1.067,1.067,0,0,1,.273.742,1.032,1.032,0,0,1-.273.732,1.043,1.043,0,0,1-.8.293,1.026,1.026,0,0,1-.8-.293A1.043,1.043,0,0,1,14.395,5.631Zm7.295.244V8.434h1.973v1.4H21.689v6.561a1.467,1.467,0,0,0,.264.953,1.11,1.11,0,0,0,.9.318,4.374,4.374,0,0,0,.859-.117V19a5.268,5.268,0,0,1-1.387.194,2.25,2.25,0,0,1-1.826-.732,3.147,3.147,0,0,1-.615-2.08V9.83H17.959v-1.4h1.924V5.875ZM32.295,19a3.8,3.8,0,0,1-.254-1.113A4.031,4.031,0,0,1,29.033,19.2a3.73,3.73,0,0,1-2.563-.884,2.859,2.859,0,0,1-1-2.241,2.987,2.987,0,0,1,1.255-2.563,5.916,5.916,0,0,1,3.53-.913h1.758v-.83a2.029,2.029,0,0,0-.566-1.509,2.276,2.276,0,0,0-1.67-.562,2.634,2.634,0,0,0-1.621.488,1.439,1.439,0,0,0-.654,1.182H25.684a2.493,2.493,0,0,1,.562-1.528,3.832,3.832,0,0,1,1.523-1.167,5.125,5.125,0,0,1,2.114-.43,4.177,4.177,0,0,1,2.861.913,3.294,3.294,0,0,1,1.074,2.515v4.863a5.946,5.946,0,0,0,.371,2.314V19Zm-3-1.377a3.175,3.175,0,0,0,1.611-.439,2.658,2.658,0,0,0,1.1-1.143V13.873H30.6q-3.32,0-3.32,1.943a1.645,1.645,0,0,0,.566,1.328A2.177,2.177,0,0,0,29.3,17.623Z" transform="translate(965 3797.5)" fill="#fff"/>
    <path id="Trazado_874744" data-name="Trazado 874744" d="M7.807,19V4.781h5.107a7.232,7.232,0,0,1,4.175,1.006,3.347,3.347,0,0,1,1.431,2.92,3.383,3.383,0,0,1-.508,1.885,2.959,2.959,0,0,1-1.494,1.152,3,3,0,0,1,1.709,1.094,3.18,3.18,0,0,1,.6,1.953,3.765,3.765,0,0,1-1.323,3.14A6.3,6.3,0,0,1,13.578,19Zm3.428-6.045v3.408H13.48a2.136,2.136,0,0,0,1.426-.425,1.487,1.487,0,0,0,.5-1.2,1.576,1.576,0,0,0-1.768-1.787Zm0-2.246h1.787a2.539,2.539,0,0,0,1.6-.411A1.46,1.46,0,0,0,15.1,9.112a1.533,1.533,0,0,0-.518-1.3,2.77,2.77,0,0,0-1.67-.4h-1.68ZM26.508,19a3.716,3.716,0,0,1-.312-.947A3.06,3.06,0,0,1,23.656,19.2a3.749,3.749,0,0,1-2.539-.9,2.875,2.875,0,0,1-1.045-2.271,2.955,2.955,0,0,1,1.27-2.6,6.468,6.468,0,0,1,3.691-.879h1.016v-.559q0-1.462-1.26-1.462a1.03,1.03,0,0,0-1.172,1.158H20.326a2.95,2.95,0,0,1,1.3-2.487,5.479,5.479,0,0,1,3.325-.956,4.8,4.8,0,0,1,3.193.986,3.429,3.429,0,0,1,1.2,2.705v4.678a4.79,4.79,0,0,0,.449,2.227V19Zm-2.061-2.148a1.836,1.836,0,0,0,1.021-.264,1.653,1.653,0,0,0,.581-.6V14.3h-.957q-1.719,0-1.719,1.543a.942.942,0,0,0,.3.728A1.1,1.1,0,0,0,24.447,16.852Zm9.746-8.418.107,1.24a3.583,3.583,0,0,1,3.018-1.436,3.015,3.015,0,0,1,2.466.986,4.7,4.7,0,0,1,.845,2.969V19h-3.3V12.33a1.783,1.783,0,0,0-.322-1.177,1.491,1.491,0,0,0-1.172-.376,1.569,1.569,0,0,0-1.436.762V19H31.107V8.434Zm12.725,8.223a1.464,1.464,0,0,0,1.074-.376,1.379,1.379,0,0,0,.371-1.05h3.086A3.653,3.653,0,0,1,50.2,18.082,4.631,4.631,0,0,1,47,19.2a4.689,4.689,0,0,1-3.633-1.445,5.7,5.7,0,0,1-1.328-4v-.137a6.436,6.436,0,0,1,.591-2.827A4.3,4.3,0,0,1,44.33,8.9a5.081,5.081,0,0,1,2.637-.659,4.573,4.573,0,0,1,3.271,1.143,4.053,4.053,0,0,1,1.211,3.1H48.363a1.807,1.807,0,0,0-.4-1.26,1.382,1.382,0,0,0-1.074-.439q-1.279,0-1.494,1.631a11.507,11.507,0,0,0-.068,1.426,4.52,4.52,0,0,0,.381,2.207A1.319,1.319,0,0,0,46.918,16.656Zm5.508-3.037a6.236,6.236,0,0,1,.615-2.817,4.4,4.4,0,0,1,1.768-1.9,5.323,5.323,0,0,1,2.705-.664,4.858,4.858,0,0,1,3.74,1.47,5.64,5.64,0,0,1,1.367,4v.117a5.472,5.472,0,0,1-1.372,3.921,4.871,4.871,0,0,1-3.716,1.45,4.927,4.927,0,0,1-3.623-1.353,5.29,5.29,0,0,1-1.475-3.667Zm3.291.205a3.932,3.932,0,0,0,.459,2.148,1.529,1.529,0,0,0,1.357.684q1.758,0,1.8-2.705v-.332q0-2.842-1.816-2.842-1.65,0-1.787,2.451Zm12.92-.186a6.455,6.455,0,0,1,1.084-3.955,3.568,3.568,0,0,1,3.027-1.445,3.035,3.035,0,0,1,2.383,1.113V4h3.3V19H75.473l-.166-1.133A3.116,3.116,0,0,1,72.729,19.2,3.562,3.562,0,0,1,69.74,17.75,6.659,6.659,0,0,1,68.637,13.639Zm3.291.205q0,2.813,1.641,2.813a1.62,1.62,0,0,0,1.563-.918V11.715a1.576,1.576,0,0,0-1.543-.937q-1.523,0-1.65,2.461ZM85.414,19.2a5.432,5.432,0,0,1-3.936-1.45,5.008,5.008,0,0,1-1.5-3.774V13.7a6.489,6.489,0,0,1,.6-2.861,4.395,4.395,0,0,1,1.753-1.919,5.292,5.292,0,0,1,2.734-.679A4.574,4.574,0,0,1,88.578,9.62a5.43,5.43,0,0,1,1.289,3.853v1.279H83.324a2.372,2.372,0,0,0,.771,1.4,2.3,2.3,0,0,0,1.543.508,2.958,2.958,0,0,0,2.441-1.094l1.5,1.777a4.2,4.2,0,0,1-1.743,1.353A5.891,5.891,0,0,1,85.414,19.2Zm-.371-8.418q-1.445,0-1.719,1.914h3.32v-.254a1.63,1.63,0,0,0-.4-1.226A1.593,1.593,0,0,0,85.043,10.777ZM14.081,33.795a6.372,6.372,0,0,1-1.108,3.931A3.554,3.554,0,0,1,9.979,39.2a3.046,3.046,0,0,1-2.393-1.064v4.932H4.3V28.434H7.372l.1.977a3.046,3.046,0,0,1,2.49-1.172A3.582,3.582,0,0,1,13,29.679a6.45,6.45,0,0,1,1.084,3.96ZM10.79,33.59q0-2.812-1.641-2.812a1.549,1.549,0,0,0-1.562.84v4.16a1.6,1.6,0,0,0,1.582.879q1.572,0,1.621-2.715Zm11.133-2.178-1.084-.078a1.947,1.947,0,0,0-1.992.977V39H15.556V28.434h3.086l.107,1.357a2.548,2.548,0,0,1,2.314-1.553,3.209,3.209,0,0,1,.918.117Zm.42,2.207a6.236,6.236,0,0,1,.615-2.817,4.4,4.4,0,0,1,1.768-1.9,5.323,5.323,0,0,1,2.705-.664,4.858,4.858,0,0,1,3.74,1.47,5.64,5.64,0,0,1,1.367,4v.117a5.472,5.472,0,0,1-1.372,3.921A4.871,4.871,0,0,1,27.45,39.2a4.927,4.927,0,0,1-3.623-1.353,5.29,5.29,0,0,1-1.475-3.667Zm3.291.205a3.932,3.932,0,0,0,.459,2.148,1.529,1.529,0,0,0,1.357.684q1.758,0,1.8-2.705v-.332q0-2.842-1.816-2.842-1.65,0-1.787,2.451Zm13.887,2.207a.76.76,0,0,0-.439-.674,6.685,6.685,0,0,0-1.67-.527,7.615,7.615,0,0,1-2.031-.718,3.4,3.4,0,0,1-1.221-1.079,2.577,2.577,0,0,1-.42-1.455,2.92,2.92,0,0,1,1.2-2.4,4.948,4.948,0,0,1,3.145-.942,5.482,5.482,0,0,1,3.359.947,2.962,2.962,0,0,1,1.27,2.49h-3.3q0-1.27-1.338-1.27a1.326,1.326,0,0,0-.869.288.892.892,0,0,0-.352.718.819.819,0,0,0,.43.713,4.06,4.06,0,0,0,1.372.449,11.857,11.857,0,0,1,1.655.42,3.007,3.007,0,0,1,2.383,2.939,2.767,2.767,0,0,1-1.284,2.354,5.632,5.632,0,0,1-3.325.908,5.747,5.747,0,0,1-2.422-.488A4.05,4.05,0,0,1,34,37.379a3.007,3.007,0,0,1-.6-1.768h3.076a1.272,1.272,0,0,0,.488,1.069,2.009,2.009,0,0,0,1.2.337,1.58,1.58,0,0,0,1.011-.273A.875.875,0,0,0,39.521,36.031Zm14.521-2.236a6.372,6.372,0,0,1-1.108,3.931A3.554,3.554,0,0,1,49.94,39.2a3.046,3.046,0,0,1-2.393-1.064v4.932H44.257V28.434h3.076l.1.977a3.046,3.046,0,0,1,2.49-1.172,3.582,3.582,0,0,1,3.037,1.44,6.45,6.45,0,0,1,1.084,3.96Zm-3.291-.205q0-2.812-1.641-2.812a1.549,1.549,0,0,0-1.562.84v4.16a1.6,1.6,0,0,0,1.582.879q1.572,0,1.621-2.715ZM60.6,39.2a5.432,5.432,0,0,1-3.936-1.45,5.008,5.008,0,0,1-1.5-3.774V33.7a6.489,6.489,0,0,1,.6-2.861,4.395,4.395,0,0,1,1.753-1.919,5.292,5.292,0,0,1,2.734-.679,4.574,4.574,0,0,1,3.516,1.382,5.43,5.43,0,0,1,1.289,3.853v1.279H58.515a2.372,2.372,0,0,0,.771,1.4,2.3,2.3,0,0,0,1.543.508,2.958,2.958,0,0,0,2.441-1.094l1.5,1.777a4.2,4.2,0,0,1-1.743,1.353A5.891,5.891,0,0,1,60.6,39.2Zm-.371-8.418q-1.445,0-1.719,1.914h3.32v-.254a1.63,1.63,0,0,0-.4-1.226A1.593,1.593,0,0,0,60.233,30.777Zm10.615,5.879a1.464,1.464,0,0,0,1.074-.376,1.379,1.379,0,0,0,.371-1.05H75.38a3.653,3.653,0,0,1-1.245,2.852A4.631,4.631,0,0,1,70.927,39.2a4.689,4.689,0,0,1-3.633-1.445,5.7,5.7,0,0,1-1.328-4v-.137a6.436,6.436,0,0,1,.591-2.827,4.3,4.3,0,0,1,1.7-1.885,5.081,5.081,0,0,1,2.637-.659,4.573,4.573,0,0,1,3.271,1.143,4.053,4.053,0,0,1,1.211,3.1H72.294a1.806,1.806,0,0,0-.4-1.26,1.382,1.382,0,0,0-1.074-.439q-1.279,0-1.494,1.631a11.508,11.508,0,0,0-.068,1.426,4.52,4.52,0,0,0,.381,2.207A1.319,1.319,0,0,0,70.849,36.656ZM80.6,25.807v2.627h1.738v2.285H80.6v4.834a1.234,1.234,0,0,0,.215.83,1.152,1.152,0,0,0,.85.234,4.828,4.828,0,0,0,.82-.059v2.354a6.074,6.074,0,0,1-1.855.283,3.448,3.448,0,0,1-2.51-.8,3.282,3.282,0,0,1-.811-2.432V30.719H75.966V28.434h1.348V25.807Zm2.324,7.813a6.236,6.236,0,0,1,.615-2.817,4.4,4.4,0,0,1,1.768-1.9,5.323,5.323,0,0,1,2.705-.664,4.858,4.858,0,0,1,3.74,1.47,5.64,5.64,0,0,1,1.367,4v.117a5.472,5.472,0,0,1-1.372,3.921,4.871,4.871,0,0,1-3.716,1.45,4.927,4.927,0,0,1-3.623-1.353,5.29,5.29,0,0,1-1.475-3.667Zm3.291.205a3.932,3.932,0,0,0,.459,2.148,1.529,1.529,0,0,0,1.357.684q1.758,0,1.8-2.705v-.332q0-2.842-1.816-2.842-1.65,0-1.787,2.451Z" transform="translate(751.5 3596.923)" fill="#fff"/>
    <path id="Trazado_874750" data-name="Trazado 874750" d="M9.688,12.428H3.525v5.039h7.158V19H1.65V4.781h8.936V6.314H3.525v4.58H9.688Zm4.756-3.994L14.5,9.762a3.85,3.85,0,0,1,3.164-1.523q3.35,0,3.379,3.779V19H19.238V12.008a2.432,2.432,0,0,0-.522-1.689,2.094,2.094,0,0,0-1.6-.547,2.607,2.607,0,0,0-1.543.469,3.183,3.183,0,0,0-1.035,1.23V19H12.734V8.434ZM26.221,5.875V8.434h1.973v1.4H26.221v6.561a1.467,1.467,0,0,0,.264.953,1.11,1.11,0,0,0,.9.318,4.374,4.374,0,0,0,.859-.117V19a5.268,5.268,0,0,1-1.387.194,2.25,2.25,0,0,1-1.826-.732,3.147,3.147,0,0,1-.615-2.08V9.83H22.49v-1.4h1.924V5.875Zm9.189,4.18a5.414,5.414,0,0,0-.889-.068A2.381,2.381,0,0,0,32.109,11.5V19H30.3V8.434h1.758l.029,1.221a2.813,2.813,0,0,1,2.52-1.416,1.846,1.846,0,0,1,.8.137ZM41.27,19.2a4.617,4.617,0,0,1-3.5-1.411,5.237,5.237,0,0,1-1.348-3.774v-.332a6.341,6.341,0,0,1,.6-2.808,4.685,4.685,0,0,1,1.68-1.934,4.223,4.223,0,0,1,2.339-.7,3.957,3.957,0,0,1,3.2,1.357,5.877,5.877,0,0,1,1.143,3.887v.752H38.232a3.756,3.756,0,0,0,.913,2.524,2.87,2.87,0,0,0,2.222.962,3.147,3.147,0,0,0,1.621-.391,4.073,4.073,0,0,0,1.162-1.035l1.1.859A4.437,4.437,0,0,1,41.27,19.2Zm-.225-9.473a2.41,2.41,0,0,0-1.836.8,3.868,3.868,0,0,0-.918,2.231h5.293v-.137a3.441,3.441,0,0,0-.742-2.134A2.269,2.269,0,0,0,41.045,9.723Zm6.006,3.906A6.21,6.21,0,0,1,48.193,9.7a3.939,3.939,0,0,1,6.045-.093l.088-1.172h1.65V18.746a4.3,4.3,0,0,1-1.216,3.232,4.487,4.487,0,0,1-3.267,1.182,5.435,5.435,0,0,1-2.236-.488,3.85,3.85,0,0,1-1.67-1.338l.938-1.084a3.533,3.533,0,0,0,2.842,1.436,2.768,2.768,0,0,0,2.056-.742,2.837,2.837,0,0,0,.737-2.09v-.908A3.713,3.713,0,0,1,51.2,19.2a3.609,3.609,0,0,1-3-1.494A6.529,6.529,0,0,1,47.051,13.629Zm1.816.205a4.738,4.738,0,0,0,.732,2.808,2.38,2.38,0,0,0,2.051,1.021,2.646,2.646,0,0,0,2.51-1.553V11.285a2.677,2.677,0,0,0-2.49-1.514A2.4,2.4,0,0,0,49.609,10.8,5.16,5.16,0,0,0,48.867,13.834ZM65.225,19a3.8,3.8,0,0,1-.254-1.113A4.031,4.031,0,0,1,61.963,19.2a3.73,3.73,0,0,1-2.563-.884,2.859,2.859,0,0,1-1-2.241,2.987,2.987,0,0,1,1.255-2.563,5.916,5.916,0,0,1,3.53-.913h1.758v-.83a2.029,2.029,0,0,0-.566-1.509,2.276,2.276,0,0,0-1.67-.562,2.634,2.634,0,0,0-1.621.488,1.439,1.439,0,0,0-.654,1.182H58.613a2.493,2.493,0,0,1,.562-1.528A3.832,3.832,0,0,1,60.7,8.668a5.125,5.125,0,0,1,2.114-.43,4.177,4.177,0,0,1,2.861.913,3.294,3.294,0,0,1,1.074,2.515v4.863a5.946,5.946,0,0,0,.371,2.314V19Zm-3-1.377a3.175,3.175,0,0,0,1.611-.439,2.658,2.658,0,0,0,1.1-1.143V13.873H63.525q-3.32,0-3.32,1.943a1.645,1.645,0,0,0,.566,1.328A2.177,2.177,0,0,0,62.227,17.623Zm21.23-3.789a6.327,6.327,0,0,1-1.1,3.887A3.537,3.537,0,0,1,79.365,19.2a3.875,3.875,0,0,1-3.027-1.221v5.088H74.531V8.434h1.65l.088,1.172a3.722,3.722,0,0,1,3.066-1.367,3.6,3.6,0,0,1,3.013,1.436,6.4,6.4,0,0,1,1.108,3.994Zm-1.807-.205a4.669,4.669,0,0,0-.762-2.822A2.454,2.454,0,0,0,78.8,9.771a2.656,2.656,0,0,0-2.461,1.455v5.049a2.661,2.661,0,0,0,2.48,1.445,2.442,2.442,0,0,0,2.065-1.03A5.1,5.1,0,0,0,81.65,13.629Zm9.209-3.574a5.414,5.414,0,0,0-.889-.068A2.381,2.381,0,0,0,87.559,11.5V19H85.752V8.434H87.51l.029,1.221a2.813,2.813,0,0,1,2.52-1.416,1.846,1.846,0,0,1,.8.137Zm.986,3.564a6.241,6.241,0,0,1,.61-2.793,4.553,4.553,0,0,1,1.7-1.914,4.626,4.626,0,0,1,2.485-.674,4.456,4.456,0,0,1,3.491,1.494,5.748,5.748,0,0,1,1.333,3.975v.127a6.3,6.3,0,0,1-.591,2.769,4.486,4.486,0,0,1-1.689,1.909,4.679,4.679,0,0,1-2.524.684A4.445,4.445,0,0,1,93.179,17.7a5.719,5.719,0,0,1-1.333-3.955Zm1.816.215a4.52,4.52,0,0,0,.815,2.822,2.763,2.763,0,0,0,4.37-.015,4.943,4.943,0,0,0,.811-3.022,4.513,4.513,0,0,0-.825-2.817,2.623,2.623,0,0,0-2.192-1.079,2.594,2.594,0,0,0-2.158,1.064A4.906,4.906,0,0,0,93.662,13.834Zm9.629-.205a6.19,6.19,0,0,1,1.152-3.911,3.921,3.921,0,0,1,5.957-.21V4h1.807V19h-1.66l-.088-1.133a3.679,3.679,0,0,1-3.018,1.328,3.609,3.609,0,0,1-2.993-1.5,6.26,6.26,0,0,1-1.157-3.926Zm1.807.205a4.687,4.687,0,0,0,.742,2.813,2.4,2.4,0,0,0,2.051,1.016,2.636,2.636,0,0,0,2.51-1.543V11.266a2.656,2.656,0,0,0-2.49-1.494,2.411,2.411,0,0,0-2.07,1.025A5.16,5.16,0,0,0,105.1,13.834Zm16.436,4.121a3.837,3.837,0,0,1-3.1,1.24,3.285,3.285,0,0,1-2.573-.981,4.248,4.248,0,0,1-.894-2.905V8.434h1.807V15.26q0,2.4,1.953,2.4a2.7,2.7,0,0,0,2.754-1.543V8.434h1.807V19h-1.719Zm8.74-.234a2.6,2.6,0,0,0,1.689-.586,2.061,2.061,0,0,0,.8-1.465h1.709a3.276,3.276,0,0,1-.625,1.729,4.116,4.116,0,0,1-1.538,1.309,4.438,4.438,0,0,1-2.036.488,4.353,4.353,0,0,1-3.433-1.44,5.737,5.737,0,0,1-1.274-3.94v-.3a6.361,6.361,0,0,1,.566-2.744A4.314,4.314,0,0,1,127.759,8.9a4.619,4.619,0,0,1,2.5-.664A4.238,4.238,0,0,1,133.218,9.3a3.8,3.8,0,0,1,1.255,2.764h-1.709a2.49,2.49,0,0,0-.776-1.685,2.415,2.415,0,0,0-1.724-.659,2.529,2.529,0,0,0-2.134.991,4.655,4.655,0,0,0-.757,2.866v.342a4.562,4.562,0,0,0,.752,2.813A2.541,2.541,0,0,0,130.273,17.721Zm8.682-11.846V8.434h1.973v1.4h-1.973v6.561a1.467,1.467,0,0,0,.264.953,1.11,1.11,0,0,0,.9.318,4.374,4.374,0,0,0,.859-.117V19a5.268,5.268,0,0,1-1.387.194,2.25,2.25,0,0,1-1.826-.732,3.147,3.147,0,0,1-.615-2.08V9.83h-1.924v-1.4h1.924V5.875Zm3.408,7.744a6.241,6.241,0,0,1,.61-2.793,4.553,4.553,0,0,1,1.7-1.914,4.626,4.626,0,0,1,2.485-.674,4.456,4.456,0,0,1,3.491,1.494,5.748,5.748,0,0,1,1.333,3.975v.127a6.3,6.3,0,0,1-.591,2.769,4.486,4.486,0,0,1-1.689,1.909,4.679,4.679,0,0,1-2.524.684A4.445,4.445,0,0,1,143.7,17.7a5.719,5.719,0,0,1-1.333-3.955Zm1.816.215A4.52,4.52,0,0,0,145,16.656a2.763,2.763,0,0,0,4.37-.015,4.943,4.943,0,0,0,.811-3.022,4.513,4.513,0,0,0-.825-2.817,2.623,2.623,0,0,0-2.192-1.079A2.594,2.594,0,0,0,145,10.787,4.906,4.906,0,0,0,144.18,13.834Z" transform="translate(529 3794.791)" fill="#fff"/>
    <path id="Trazado_874753" data-name="Trazado 874753" d="M5.84,12.662a8.817,8.817,0,0,1-3.511-1.7,3.256,3.256,0,0,1-1.1-2.5A3.439,3.439,0,0,1,2.573,5.685a5.337,5.337,0,0,1,3.491-1.1,5.825,5.825,0,0,1,2.612.566,4.3,4.3,0,0,1,1.777,1.563,4,4,0,0,1,.63,2.178H9.2a2.6,2.6,0,0,0-.82-2.034,3.336,3.336,0,0,0-2.314-.74A3.415,3.415,0,0,0,3.9,6.731a2.04,2.04,0,0,0-.776,1.7A1.835,1.835,0,0,0,3.862,9.9,7.232,7.232,0,0,0,6.372,11a11.645,11.645,0,0,1,2.773,1.1,4.209,4.209,0,0,1,1.484,1.4,3.577,3.577,0,0,1,.483,1.885,3.322,3.322,0,0,1-1.348,2.769,5.746,5.746,0,0,1-3.6,1.04,6.683,6.683,0,0,1-2.734-.562A4.6,4.6,0,0,1,1.47,17.1a3.754,3.754,0,0,1-.688-2.217H2.666a2.449,2.449,0,0,0,.952,2.036,4.009,4.009,0,0,0,2.544.747,3.685,3.685,0,0,0,2.275-.605,1.967,1.967,0,0,0,.791-1.65A1.931,1.931,0,0,0,8.5,13.79,8.444,8.444,0,0,0,5.84,12.662ZM17.617,19.2a4.617,4.617,0,0,1-3.5-1.411,5.237,5.237,0,0,1-1.348-3.774v-.332a6.341,6.341,0,0,1,.6-2.808,4.685,4.685,0,0,1,1.68-1.934,4.223,4.223,0,0,1,2.339-.7A3.957,3.957,0,0,1,20.6,9.6a5.877,5.877,0,0,1,1.143,3.887v.752H14.58a3.756,3.756,0,0,0,.913,2.524,2.87,2.87,0,0,0,2.222.962,3.147,3.147,0,0,0,1.621-.391A4.073,4.073,0,0,0,20.5,16.295l1.1.859A4.437,4.437,0,0,1,17.617,19.2Zm-.225-9.473a2.41,2.41,0,0,0-1.836.8,3.868,3.868,0,0,0-.918,2.231h5.293v-.137a3.441,3.441,0,0,0-.742-2.134A2.269,2.269,0,0,0,17.393,9.723Zm11.543.332a5.414,5.414,0,0,0-.889-.068A2.381,2.381,0,0,0,25.635,11.5V19H23.828V8.434h1.758l.029,1.221a2.813,2.813,0,0,1,2.52-1.416,1.846,1.846,0,0,1,.8.137Zm5.322,6.494,2.617-8.115h1.846L34.932,19H33.555L29.727,8.434h1.846ZM42.422,19H40.615V8.434h1.807ZM40.469,5.631a1.078,1.078,0,0,1,.269-.742,1.008,1.008,0,0,1,.8-.3,1.024,1.024,0,0,1,.8.3,1.067,1.067,0,0,1,.273.742,1.032,1.032,0,0,1-.273.732,1.043,1.043,0,0,1-.8.293,1.026,1.026,0,0,1-.8-.293A1.043,1.043,0,0,1,40.469,5.631Zm9.082,12.09a2.6,2.6,0,0,0,1.689-.586,2.061,2.061,0,0,0,.8-1.465H53.75a3.276,3.276,0,0,1-.625,1.729,4.116,4.116,0,0,1-1.538,1.309,4.438,4.438,0,0,1-2.036.488,4.353,4.353,0,0,1-3.433-1.44,5.737,5.737,0,0,1-1.274-3.94v-.3a6.361,6.361,0,0,1,.566-2.744A4.314,4.314,0,0,1,47.036,8.9a4.619,4.619,0,0,1,2.5-.664A4.238,4.238,0,0,1,52.5,9.3a3.8,3.8,0,0,1,1.255,2.764H52.041a2.49,2.49,0,0,0-.776-1.685,2.415,2.415,0,0,0-1.724-.659,2.529,2.529,0,0,0-2.134.991,4.655,4.655,0,0,0-.757,2.866v.342a4.562,4.562,0,0,0,.752,2.813A2.541,2.541,0,0,0,49.551,17.721ZM57.744,19H55.938V8.434h1.807ZM55.791,5.631a1.078,1.078,0,0,1,.269-.742,1.008,1.008,0,0,1,.8-.3,1.024,1.024,0,0,1,.8.3,1.067,1.067,0,0,1,.273.742,1.032,1.032,0,0,1-.273.732,1.043,1.043,0,0,1-.8.293,1.026,1.026,0,0,1-.8-.293A1.043,1.043,0,0,1,55.791,5.631Zm4.365,7.988a6.241,6.241,0,0,1,.61-2.793,4.553,4.553,0,0,1,1.7-1.914,4.626,4.626,0,0,1,2.485-.674,4.456,4.456,0,0,1,3.491,1.494,5.748,5.748,0,0,1,1.333,3.975v.127a6.3,6.3,0,0,1-.591,2.769A4.486,4.486,0,0,1,67.5,18.512a4.679,4.679,0,0,1-2.524.684A4.445,4.445,0,0,1,61.489,17.7a5.719,5.719,0,0,1-1.333-3.955Zm1.816.215a4.52,4.52,0,0,0,.815,2.822,2.763,2.763,0,0,0,4.37-.015,4.943,4.943,0,0,0,.811-3.022,4.513,4.513,0,0,0-.825-2.817,2.623,2.623,0,0,0-2.192-1.079,2.594,2.594,0,0,0-2.158,1.064A4.906,4.906,0,0,0,61.973,13.834Z" transform="translate(465 3526)" fill="#fff"/>
    <path id="Trazado_874747" data-name="Trazado 874747" d="M5,0l5,9H0Z" transform="translate(795 3424.866)" fill="#75baf1"/>
    <path id="Trazado_874748" data-name="Trazado 874748" d="M5,0l5,9H0Z" transform="translate(795 3719.866)" fill="#75baf1"/>
    <path id="Trazado_873362" data-name="Trazado 873362" d="M1022.333-8203.952v-62.457" transform="translate(-222.333 11700)" fill="none" stroke="#75baf1" stroke-width="5"/>
    <path id="Trazado_873363" data-name="Trazado 873363" d="M1022.333-8146v-120.409" transform="translate(-222.333 11995)" fill="none" stroke="#75baf1" stroke-width="5"/>
    <path id="Trazado_874754" data-name="Trazado 874754" d="M32,0A32,32,0,1,1,0,32,32,32,0,0,1,32,0Z" transform="translate(469.667 3451)" fill="#f9ce24"/>
    <path id="Trazado_874745" data-name="Trazado 874745" d="M32,0A32,32,0,1,1,0,32,32,32,0,0,1,32,0Z" transform="translate(767.667 3280)" fill="#f9ce24"/>
    <path id="Trazado_874739" data-name="Trazado 874739" d="M32,0A32,32,0,1,1,0,32,32,32,0,0,1,32,0Z" transform="translate(952.667 3726)" fill="#f9ce24"/>
    <path id="Trazado_874736" data-name="Trazado 874736" d="M32,0A32,32,0,1,1,0,32,32,32,0,0,1,32,0Z" transform="translate(1065.667 3446)" fill="#f9ce24"/>
    <path id="Trazado_874751" data-name="Trazado 874751" d="M32,0A32,32,0,1,1,0,32,32,32,0,0,1,32,0Z" transform="translate(574.667 3723)" fill="#f9ce24"/>
    <path id="Trazado_874746" data-name="Trazado 874746" d="M39.5,0A39.5,39.5,0,1,1,0,39.5,39.5,39.5,0,0,1,39.5,0Z" transform="translate(760.667 3512)" fill="#f9ce24"/>
    <g id="Grupo_1099359" data-name="Grupo 1099359" transform="translate(482.492 3464.498)">
      <g id="Grupo_1099358" data-name="Grupo 1099358" clip-path="url(#clip-path)">
        <path id="Trazado_873385" data-name="Trazado 873385" d="M31.21,18.351c-1.063,3.826-4.019,5.539-6.569,7.691v3.137l1.977.787V37H9.55V30.095l1.5-1.049a9.064,9.064,0,0,0-2.279-7.293c-3.4.522-6.418-.108-8.666-3.268V16.409l3.881-.386V11.871L.177,11.478C.115,10.658.058,9.918,0,9.154L3.661,6.112H7.551c1.146-1.352,2.37-2.467,4-1.9.859-1.171,1.394-2.415,2.339-3.022.709-.455,1.944-.09,3.12-.09C19.537-.372,20.885-.77,22.741,2.472c3.534.128,4.192.8,4.22,4.339.008.927,0,1.854,0,2.939H31.05l2.895-3.533c3.453-.779,6.373-.085,8.563,3.026v2.23l-3.751.417V16l3.687.342v2.3c-2.145,2.935-4.911,3.73-8.389,2.968L31.21,18.351m-7.753,7.029c2.318-2.392,5.577-3.6,6.2-7.279l-3.949-.411c0-1.086,0-2.014,0-2.943q0-4.237,0-8.474c0-1.184-.238-2.2-1.878-2.438-2.714,1.466-.339,4.6-2.025,6.54a3.6,3.6,0,0,1-.584-1.786c-.051-1.646-.014-3.3-.032-4.943-.013-1.195-.31-2.191-1.975-2.31-2.6,1.947-.262,5.277-1.8,7.8-1.632-2.248.876-5.466-2.19-7.2L13.732,3.02c-.422,2.74.2,5.3-.415,8.073-2.14-1.633.367-4.881-2.529-5.681-1.405.282-1.674,1.2-1.666,2.314.022,2.824-.175,5.672.128,8.465a39.912,39.912,0,0,0,1.679,6.3c.48,1.706.993,3.4,1.451,5.113a17.2,17.2,0,0,1,.288,1.852H23.024c.157-1.478.3-2.78.433-4.074m11.307-5c3.641.484,5.172-.207,6.288-2.784l-3.531-.282V10.487l3.859-.306C39.526,7.68,37.525,6.57,34.7,7.463l-3.1,3.761-4.481.2v5.151H31.64l3.124,3.811M10.818,35.71h14.43V31.175H10.818ZM5.36,10.5c.086,2.4.538,4.662-.264,6.829l-3.531.339c2.018,2.975,3.832,3.586,6.357,2.478V7.6c-3.452-.659-5.044.073-6.245,2.668L5.36,10.5" transform="translate(0 0)" fill="#12263f"/>
      </g>
    </g>
    <g id="Grupo_1099357" data-name="Grupo 1099357" transform="translate(581.961 3740.498)">
      <g id="Grupo_1099279" data-name="Grupo 1099279" transform="translate(0 0)" clip-path="url(#clip-path-2)">
        <path id="Trazado_873204" data-name="Trazado 873204" d="M33.845,4.943a8.269,8.269,0,0,1,5.117-1.838,7.569,7.569,0,0,1,7.52,7.667,7.764,7.764,0,0,1-7.141,7.682h-.379A7.6,7.6,0,0,1,31.3,10.772a7.612,7.612,0,0,1,2.55-5.829m3.847,9.851h0a.324.324,0,0,1-.539,0l-.2-.173h-.177l-.539-.729L33.3,10.976a.342.342,0,0,1,0-.554l.92-.918a.327.327,0,0,1,.539,0l2.74,2.552L43,6.574a.344.344,0,0,1,.539,0l.933.921a.567.567,0,0,1,0,.726ZM1.3,0h0A1.226,1.226,0,0,0,0,1.095,1.261,1.261,0,0,0,1.3,2.378H8.425c.365,0,.918.364.918.552l3.294,11.864,2.376,8.413a3.338,3.338,0,0,0,3.1,2.375H36.236a2.977,2.977,0,0,0,2.931-2.565l.35-3.82h-.554c-.714,0-1.27-.2-1.809-.2l-.379,3.85c0,.173-.364.364-.539.364H18.118a1.024,1.024,0,0,1-.918-.541l-2.931-11.15h16.3V9.14h-16.3a1.136,1.136,0,0,0-.729.175L11.529,2.378A3.342,3.342,0,0,0,8.425,0ZM32.752,27.041h0a3.635,3.635,0,0,1,3.658,3.47,3.663,3.663,0,1,1-7.316,0,3.635,3.635,0,0,1,3.658-3.47m0,4.926h0a1.414,1.414,0,0,0,1.283-1.457,1.283,1.283,0,0,0-2.567,0,1.416,1.416,0,0,0,1.283,1.457M21.224,27.041h0a3.634,3.634,0,0,1,3.657,3.47,3.714,3.714,0,0,1-3.657,3.847,3.61,3.61,0,0,1-3.658-3.847,3.521,3.521,0,0,1,3.658-3.47m0,4.926h0a1.593,1.593,0,0,0,1.3-1.457,1.6,1.6,0,0,0-1.3-1.283A1.609,1.609,0,0,0,19.75,30.51a1.594,1.594,0,0,0,1.474,1.457" transform="translate(0 0)" fill="#12263f" fill-rule="evenodd"/>
      </g>
    </g>
    <g id="Grupo_1099354" data-name="Grupo 1099354" transform="translate(771.151 3520.649)">
      <g id="Grupo_1099353" data-name="Grupo 1099353" transform="translate(0 0)" clip-path="url(#clip-path-3)">
        <path id="Trazado_873372" data-name="Trazado 873372" d="M22.556,104.261h12.58c0-1.958-.072-3.794.015-5.623a8.974,8.974,0,0,1,7.768-8.831,30.4,30.4,0,0,1,8.165.146,7.871,7.871,0,0,1,6.523,7.268c.173,2.409.047,4.84.065,7.26.011,1.428-.646,2-2.1,1.985-6.181-.059-12.362-.06-18.543-.049-11.09.02-22.18.089-33.27.085-3.76,0-3.789-.075-3.748-3.783a40.142,40.142,0,0,1,.288-5.9,8.191,8.191,0,0,1,7.248-6.846,41.032,41.032,0,0,1,7.8.007,8.08,8.08,0,0,1,7.17,7.339c.207,2.258.038,4.55.038,6.945m32.805,0a56.731,56.731,0,0,0-.063-7.324,5.751,5.751,0,0,0-5.668-5.02,33.071,33.071,0,0,0-5.722-.027c-2.921.3-5.422,1.713-6.179,4.623-.634,2.439-.441,5.093-.621,7.748Zm-53.138-.049H20.446c.693-6.284-.123-9.952-3.246-11.365a12.745,12.745,0,0,0-12.1.4c-4.11,2.493-2.856,6.9-2.882,10.961" transform="translate(0 -55.308)" fill="#12263f"/>
        <path id="Trazado_873373" data-name="Trazado 873373" d="M111.995,53.654a5.994,5.994,0,0,1,6.06,6.242,6.393,6.393,0,0,1-6.133,6.525,6.079,6.079,0,0,1-6.059-6.271,6.379,6.379,0,0,1,6.132-6.5m3.919,6.14a3.786,3.786,0,0,0-4-3.925,4.163,4.163,0,0,0-3.889,4.333,4.052,4.052,0,0,0,4.014,4,4.294,4.294,0,0,0,3.873-4.413" transform="translate(-65.349 -33.121)" fill="#12263f"/>
        <path id="Trazado_873374" data-name="Trazado 873374" d="M71.638,45.393a6.228,6.228,0,1,1-12.446-.023,6.223,6.223,0,1,1,12.446.023m-2.138.016a4.154,4.154,0,0,0-4.063-4.2,4.245,4.245,0,0,0-4.079,4.222,4.317,4.317,0,0,0,4.1,4.226A4.233,4.233,0,0,0,69.5,45.409" transform="translate(-36.539 -24.15)" fill="#12263f"/>
        <path id="Trazado_873375" data-name="Trazado 873375" d="M25.6,60a6.268,6.268,0,0,1-5.981,6.439,6.28,6.28,0,0,1-6.358-6.264,6.353,6.353,0,0,1,6.131-6.522A6.115,6.115,0,0,1,25.6,60m-2.109.114a3.962,3.962,0,0,0-3.941-4.246,4.039,4.039,0,0,0-4.121,4.1,4.175,4.175,0,0,0,3.959,4.316,4.2,4.2,0,0,0,4.1-4.172" transform="translate(-8.187 -33.12)" fill="#12263f"/>
        <path id="Trazado_873376" data-name="Trazado 873376" d="M113.041,110.719c1.174-1.064,2.292-2.193,3.544-3.146.43-.327,1.2-.21,1.811-.3-.119.566-.054,1.3-.391,1.668a48.4,48.4,0,0,1-3.988,3.821,1.658,1.658,0,0,1-1.469.166,13.447,13.447,0,0,1-2.736-1.72c-.372-.3-.471-.94-.693-1.426.567-.116,1.2-.444,1.686-.3a11.492,11.492,0,0,1,2.236,1.233" transform="translate(-67.36 -66.223)" fill="#12263f"/>
        <path id="Trazado_873377" data-name="Trazado 873377" d="M22.377,114.339c-1.692-1.378-3.049-2.465-4.347-3.619a3.424,3.424,0,0,1,.8-1.116c.147-.125.7-.008.882.179,2.4,2.407,3.942.482,5.582-1.057.366-.344.881-.906,1.2-.831.471.111.83.7,1.237,1.09l-5.356,5.354" transform="translate(-11.128 -66.6)" fill="#12263f"/>
        <path id="Trazado_873378" data-name="Trazado 873378" d="M60.941,12.406l.77-4.488L58.45,4.74l4.506-.655L64.972,0l2.016,4.083,4.506.655L68.232,7.918,69,12.406l-4.031-2.119Zm4.031-4.281,1.489.783L66.176,7.25l1.205-1.174-1.665-.242-.745-1.509-.744,1.509-1.665.242L63.767,7.25l-.285,1.658Z" transform="translate(-36.081 -0.001)" fill="#12263f"/>
        <path id="Trazado_873379" data-name="Trazado 873379" d="M68.285,84.444h-2.3c0-4.024-2.419-5.45-9.244-5.45-6.885,0-9.325,1.426-9.325,5.45h-2.3c0-7.746,7.849-7.746,11.621-7.746,4.033,0,11.54,0,11.54,7.746" transform="translate(-27.855 -47.346)" fill="#12263f"/>
      </g>
    </g>
    <g id="Grupo_1099352" data-name="Grupo 1099352" transform="translate(774.487 3292.601)">
      <g id="Grupo_1099351" data-name="Grupo 1099351" transform="translate(0 0)" clip-path="url(#clip-path-4)">
        <path id="Trazado_873368" data-name="Trazado 873368" d="M35.527,11.552c3.5,1.134,4.922,3.352,3.648,5.867a5.5,5.5,0,0,1-2.443,2.269,1.9,1.9,0,0,0-1.315,2.087c.062,2.54.037,5.085-.032,7.626-.058,2.137-.342,2.306-2.2,1.342-4.068-2.111-8.1-4.292-12.175-6.385-1.313-.674-2.72-1.162-4.534-1.924a20.13,20.13,0,0,0,.715,2.172c1.295,2.686,2.676,5.331,3.917,8.041a7.15,7.15,0,0,1,.806,3.142,3.115,3.115,0,0,1-2.589,2.877,2.976,2.976,0,0,1-3.6-1.36c-1.538-2.865-2.923-5.812-4.369-8.726-.54-1.088-1.117-2.16-1.6-3.272-.662-1.52-1.327-2.953-3.421-2.544-.24.047-.726-.088-.759-.222-.439-1.79-2.251-1.446-3.344-2.2A4.966,4.966,0,0,1,.075,15.149a4.661,4.661,0,0,1,3.534-3.924c.562-.176.945-.863,1.481-1.2a4.314,4.314,0,0,1,1.917-.885c2.152-.055,4.312.029,6.462.158A11.719,11.719,0,0,0,20.1,7.629C24.477,5.162,28.919,2.81,33.351.442c1.56-.834,2.127-.524,2.159,1.252.059,3.254.017,6.511.017,9.858M33.486,28.825V2.386c-5.2,2.829-10.137,5.5-15.042,8.222a1.622,1.622,0,0,0-.605,1.21c-.055,2.65-.08,5.3.015,7.95a2.118,2.118,0,0,0,.958,1.463c1.522.883,3.143,1.6,4.709,2.4,3.272,1.69,6.534,3.4,9.966,5.188M6.958,20.843H15.9V11.109H6.958Zm3.591,1.968c1.8,3.76,3.4,7.13,5.027,10.486a12.8,12.8,0,0,0,1.61,2.862,2.142,2.142,0,0,0,1.935.571c.491-.233.708-1.188.885-1.869.079-.306-.2-.725-.369-1.071-1.608-3.379-3.2-6.764-4.869-10.114a1.838,1.838,0,0,0-1.215-.827,21.909,21.909,0,0,0-3-.038M4.855,12.975c-2.051.317-3.114,1.483-3.068,3.183a3.029,3.029,0,0,0,3.068,2.985Zm30.635,5.333c1.542-.421,2.381-1.273,2.241-2.72a1.838,1.838,0,0,0-2.241-1.849Z" transform="translate(0 -0.001)" fill="#12263f"/>
        <path id="Trazado_873369" data-name="Trazado 873369" d="M131.544,43.957c1.1.076,2.2.1,3.284.26.344.051.632.474.946.726-.285.284-.56.8-.854.815-2.029.076-4.063.087-6.092.01-.334-.013-.648-.567-.971-.87.347-.281.667-.752,1.046-.8a19.116,19.116,0,0,1,2.637-.038l0-.1" transform="translate(-85.415 -29.365)" fill="#12263f"/>
        <path id="Trazado_873370" data-name="Trazado 873370" d="M126.841,13.783a6.178,6.178,0,0,1-.885,1.255,38.274,38.274,0,0,1-3.4,2.3c-.291.169-.846-.116-1.28-.192.091-.386.05-.935.294-1.13a32.089,32.089,0,0,1,3.612-2.563c.317-.188.959.172,1.661.327" transform="translate(-81.016 -8.954)" fill="#12263f"/>
        <path id="Trazado_873371" data-name="Trazado 873371" d="M126.933,72.574c-.651.112-1.166.374-1.428.216a34.159,34.159,0,0,1-3.616-2.5c-.251-.2-.145-.848-.2-1.29.4-.014.9-.187,1.184-.014a35.792,35.792,0,0,1,3.223,2.227c.309.237.445.7.84,1.358" transform="translate(-81.292 -46.037)" fill="#12263f"/>
      </g>
    </g>
    <path id="Trazado_873384" data-name="Trazado 873384" d="M13.727,10.523,4.191,1.649H27.226L15.462,22.1ZM0,0,12.182,11.338l2.35,15.68L30.076,0Z" transform="translate(969.191 3760.319) rotate(-30)" fill="#12263f" stroke="#12263f" stroke-width="1"/>
    <g id="Grupo_1099356" data-name="Grupo 1099356" transform="translate(1079.809 3461.909)">
      <g id="Grupo_1099355" data-name="Grupo 1099355" transform="translate(0 0)" clip-path="url(#clip-path-5)">
        <path id="Trazado_873380" data-name="Trazado 873380" d="M23.84,16.332a8.166,8.166,0,1,1,8.166-8.166,8.175,8.175,0,0,1-8.166,8.166m0-15.2a7.035,7.035,0,1,0,7.035,7.035A7.042,7.042,0,0,0,23.84,1.131" transform="translate(-6.807 0)" fill="#12263f" stroke="#12263f" stroke-width="1"/>
        <path id="Trazado_873381" data-name="Trazado 873381" d="M36.3,47.791H35.165V43.955A11.4,11.4,0,0,0,23.777,32.566h-9.15A11.4,11.4,0,0,0,3.239,43.955v3.837H2.108V43.955a12.534,12.534,0,0,1,12.52-12.52h9.15A12.534,12.534,0,0,1,36.3,43.955Z" transform="translate(-0.915 -13.652)" fill="#12263f" stroke="#12263f" stroke-width="1"/>
        <path id="Trazado_873382" data-name="Trazado 873382" d="M5.457,9.709a.566.566,0,0,1-.566-.566V3.61a.566.566,0,1,1,1.131,0V9.143a.566.566,0,0,1-.566.566" transform="translate(-2.124 -1.322)" fill="#12263f" stroke="#12263f" stroke-width="1"/>
        <path id="Trazado_873383" data-name="Trazado 873383" d="M6.1,9.066H.566a.566.566,0,0,1,0-1.131H6.1a.566.566,0,1,1,0,1.131" transform="translate(0 -3.446)" fill="#12263f" stroke="#12263f" stroke-width="1"/>
      </g>
    </g>
  </g>
</svg>
