<svg xmlns="http://www.w3.org/2000/svg" xmlns:xlink="http://www.w3.org/1999/xlink" width="916.08" height="722.81" viewBox="0 0 916.08 722.81">
  <defs>
    <clipPath id="clip-path">
      <rect id="Rectángulo_401212" data-name="Rectángulo 401212" width="902.49" height="722.81" fill="none"/>
    </clipPath>
    <clipPath id="clip-path-2">
      <rect id="Rectángulo_401213" data-name="Rectángulo 401213" width="46.512" height="31.68" fill="none"/>
    </clipPath>
    <clipPath id="clip-path-3">
      <rect id="Rectángulo_401215" data-name="Rectángulo 401215" width="43.914" height="46.302" fill="none"/>
    </clipPath>
    <clipPath id="clip-path-5">
      <rect id="Rectángulo_401221" data-name="Rectángulo 401221" width="48.474" height="48.653" fill="none"/>
    </clipPath>
    <clipPath id="clip-path-6">
      <rect id="Rectángulo_401222" data-name="Rectángulo 401222" width="35.556" height="53.819" fill="none"/>
    </clipPath>
    <clipPath id="clip-path-7">
      <rect id="Rectángulo_401224" data-name="Rectángulo 401224" width="44.547" height="44.707" fill="none"/>
    </clipPath>
  </defs>
  <g id="Grupo_1099375" data-name="Grupo 1099375" transform="translate(-2169 9082)">
    <g id="Grupo_1099361" data-name="Grupo 1099361" transform="translate(2169 -9082)">
      <g id="Grupo_1099360" data-name="Grupo 1099360" clip-path="url(#clip-path)">
        <path id="Trazado_873386" data-name="Trazado 873386" d="M340.17,170.33a169.835,169.835,0,1,1-339.67,0H59.37a111.076,111.076,0,0,0,221.94,0Z" fill="#75baf1"/>
        <path id="Trazado_873387" data-name="Trazado 873387" d="M562.22,170.33c.07-1.61.11-3.23.11-4.86a111.08,111.08,0,0,0-222.16,0c0,1.63.04,3.25.11,4.86H281.42A169.8,169.8,0,0,1,450.95.5C543.92.34,620.23,75.78,621.07,168.75c0,.52.01,1.06.01,1.58Z" fill="#be79ca"/>
        <path id="Trazado_873388" data-name="Trazado 873388" d="M621.08,170.33A169.62,169.62,0,0,1,550.31,308.3q-5.73,4.125-11.82,7.78c-22.16,13.29-48.25,18.12-73.91,15.04a112.8,112.8,0,0,0-13.33-.79A111,111,0,0,0,340.17,441.4c0,1.63.04,3.25.11,4.86a110.277,110.277,0,0,0,1.04,11.14H281.78q-.345-5.205-.36-10.5A169.788,169.788,0,0,1,447.44,276.48c1.27.05,2.54.07,3.81.07s2.54-.02,3.81-.07A111.066,111.066,0,0,0,562.22,170.33Z" fill="#f9ce24"/>
        <path id="Trazado_873389" data-name="Trazado 873389" d="M620.71,457.4a169.831,169.831,0,0,1-338.93,0h59.54a111.09,111.09,0,0,0,219.86,0Z" fill="#6e3dc6"/>
        <path id="Trazado_873390" data-name="Trazado 873390" d="M901.99,451.12c0,2.1-.04,4.2-.12,6.28H842.69a111.572,111.572,0,0,0,.54-12.72c-.83-59.83-49.66-108.66-109.49-109.49A111.08,111.08,0,0,0,621.08,446.26c0,3.74-.12,7.46-.37,11.14H561.18a110.259,110.259,0,0,0,1.04-11.14h.18a169.829,169.829,0,0,1,339.52,0C901.97,447.87,901.99,449.49,901.99,451.12Z" fill="#59836b"/>
        <path id="Trazado_873391" data-name="Trazado 873391" d="M901.87,457.4a169.639,169.639,0,0,1-70.74,131.75q-5.8,4.17-11.96,7.85c-22.14,13.24-48.16,18.07-73.77,15.02a113.429,113.429,0,0,0-13.24-.78A111,111,0,0,0,621.08,722.31H562.4A169.811,169.811,0,0,1,732.16,557.34,111.094,111.094,0,0,0,842.69,457.4Z" fill="#12263f"/>
        <path id="Trazado_873392" data-name="Trazado 873392" d="M455.06,276.48c-1.27.05-2.54.07-3.81.07s-2.54-.02-3.81-.07c1.27-.04,2.54-.05,3.81-.05S453.79,276.44,455.06,276.48Z" fill="none" stroke="#b5d7fc" stroke-miterlimit="10" stroke-width="1"/>
        <path id="Trazado_873393" data-name="Trazado 873393" d="M353.361,179.13a43.166,43.166,0,1,1-43.167-43.167,43.167,43.167,0,0,1,43.167,43.167" fill="#63a1d4"/>
        <path id="Trazado_873394" data-name="Trazado 873394" d="M630.08,179.13a43.167,43.167,0,1,1-43.167-43.167A43.167,43.167,0,0,1,630.08,179.13" fill="#a057ac"/>
        <path id="Trazado_873395" data-name="Trazado 873395" d="M353.361,457.4a43.166,43.166,0,1,1-43.167-43.167A43.167,43.167,0,0,1,353.361,457.4" fill="#d1ae25"/>
        <path id="Trazado_873396" data-name="Trazado 873396" d="M630.08,457.4a43.167,43.167,0,1,1-43.167-43.167A43.167,43.167,0,0,1,630.08,457.4" fill="#582aab"/>
      </g>
    </g>
    <path id="Trazado_873397" data-name="Trazado 873397" d="M630.08,457.4a43.167,43.167,0,1,1-43.167-43.167A43.167,43.167,0,0,1,630.08,457.4" transform="translate(2455 -9082)" fill="#3f654f"/>
    <g id="Grupo_1099363" data-name="Grupo 1099363" transform="translate(3018.657 -8640.439)">
      <g id="Grupo_1099362" data-name="Grupo 1099362" transform="translate(0 0)" clip-path="url(#clip-path-2)">
        <path id="Trazado_873398" data-name="Trazado 873398" d="M16.305,16.338a8.169,8.169,0,1,1,8.169-8.169,8.178,8.178,0,0,1-8.169,8.169m0-12.364A4.195,4.195,0,1,0,20.5,8.169a4.2,4.2,0,0,0-4.195-4.195" transform="translate(-1.669 0)" fill="#fff"/>
        <path id="Trazado_873399" data-name="Trazado 873399" d="M41.992,16.747a7.378,7.378,0,1,1,7.378-7.377,7.386,7.386,0,0,1-7.378,7.377m0-10.781a3.4,3.4,0,1,0,3.4,3.4,3.408,3.408,0,0,0-3.4-3.4" transform="translate(-7.1 -0.408)" fill="#fff"/>
        <path id="Trazado_873400" data-name="Trazado 873400" d="M51,34.766H38.2V30.792H49.3a3.368,3.368,0,0,0,.952-2.261,2.622,2.622,0,0,0-.8-1.54H43.362l-5.71-1.632,1.091-3.822,5.176,1.479h6.855l.5.334a6.937,6.937,0,0,1,2.93,4.768c.206,2.076-.678,4.117-2.628,6.067Z" transform="translate(-7.723 -4.417)" fill="#fff"/>
        <path id="Trazado_873401" data-name="Trazado 873401" d="M29.273,36.077H25.3a10.662,10.662,0,1,0-21.324,0H0a14.636,14.636,0,1,1,29.273,0" transform="translate(0 -4.398)" fill="#fff"/>
      </g>
    </g>
    <g id="Grupo_1099368" data-name="Grupo 1099368" transform="translate(2735 -8648.926)">
      <g id="Grupo_1099365" data-name="Grupo 1099365" transform="translate(0 0)">
        <g id="Grupo_1099364" data-name="Grupo 1099364" clip-path="url(#clip-path-3)">
          <path id="Rectángulo_401214" data-name="Rectángulo 401214" d="M-2-2H40.545V18.3H-2ZM38.57-.024H-.024V16.322H38.57Z" transform="translate(2.684 27.32)" fill="#fff"/>
          <path id="Trazado_873402" data-name="Trazado 873402" d="M21.609,40.208.664,21.4l1.32-1.47,19.625,17.62,19.625-17.62,1.32,1.47Z" transform="translate(0.348 -2.757)" fill="#fff"/>
        </g>
      </g>
      <path id="Línea_589" data-name="Línea 589" d="M14.4-.024H0V-2H14.4Z" transform="translate(15.413 21.513)" fill="#fff"/>
      <path id="Línea_590" data-name="Línea 590" d="M14.4-.024H0V-2H14.4Z" transform="translate(15.413 16.632)" fill="#fff"/>
      <g id="Grupo_1099367" data-name="Grupo 1099367" transform="translate(0 0)">
        <g id="Grupo_1099366" data-name="Grupo 1099366" clip-path="url(#clip-path-3)">
          <path id="Trazado_873403" data-name="Trazado 873403" d="M42.545,27.636H0V15.687A9.433,9.433,0,0,1,9.44,6.248H33.105a9.432,9.432,0,0,1,9.44,9.439ZM1.976,25.66H40.57V15.687a7.472,7.472,0,0,0-7.464-7.464H9.44a7.472,7.472,0,0,0-7.464,7.464Z" transform="translate(0.684 -0.339)" fill="#fff"/>
          <path id="Trazado_873404" data-name="Trazado 873404" d="M32.1,6.913,25,2.348,17.9,6.913,16.831,5.251,25,0l8.169,5.251Z" transform="translate(-2.388 0.814)" fill="#fff"/>
        </g>
      </g>
    </g>
    <g id="Grupo_1099370" data-name="Grupo 1099370" transform="translate(2455 -8647.926)">
      <g id="Grupo_1099369" data-name="Grupo 1099369" transform="translate(0 0)" clip-path="url(#clip-path-5)">
        <path id="Trazado_873405" data-name="Trazado 873405" d="M25.434,45.13A19.826,19.826,0,1,1,45.259,25.3,19.848,19.848,0,0,1,25.434,45.13m0-34.721a14.9,14.9,0,1,0,14.9,14.9,14.912,14.912,0,0,0-14.9-14.9" transform="translate(-1.001 -0.977)" fill="#fff"/>
        <path id="Trazado_873406" data-name="Trazado 873406" d="M31.613,28.394A2.893,2.893,0,1,1,28.72,25.5a2.894,2.894,0,0,1,2.894,2.894" transform="translate(-4.608 -4.549)" fill="#fff"/>
        <rect id="Rectángulo_401217" data-name="Rectángulo 401217" width="13.932" height="4.93" transform="translate(0 21.38)" fill="#fff"/>
        <rect id="Rectángulo_401218" data-name="Rectángulo 401218" width="13.932" height="4.93" transform="translate(34.542 21.38)" fill="#fff"/>
        <rect id="Rectángulo_401219" data-name="Rectángulo 401219" width="4.93" height="13.932" transform="translate(21.647 0)" fill="#fff"/>
        <rect id="Rectángulo_401220" data-name="Rectángulo 401220" width="4.93" height="13.932" transform="translate(21.647 34.721)" fill="#fff"/>
      </g>
    </g>
    <g id="Grupo_1099372" data-name="Grupo 1099372" transform="translate(2738.754 -8929.182)">
      <g id="Grupo_1099371" data-name="Grupo 1099371" transform="translate(0 0)" clip-path="url(#clip-path-6)">
        <path id="Trazado_873407" data-name="Trazado 873407" d="M10.137,39.3c-.881-3.4-2.758-6.925-6.476-12.157a20.187,20.187,0,0,1-2.7-5.279,18.175,18.175,0,0,1-.96-5.9A15.013,15.013,0,0,1,1.524,9.274a15.273,15.273,0,0,1,4.033-4.94,19.4,19.4,0,0,1,24.44,0,15.272,15.272,0,0,1,4.034,4.941,15.007,15.007,0,0,1,1.523,6.689,18.16,18.16,0,0,1-.96,5.9,20.2,20.2,0,0,1-2.7,5.279c-3.72,5.234-5.6,8.756-6.476,12.157l-3.68-.952c1-3.882,3.049-7.766,7.057-13.406a15.488,15.488,0,0,0,2.957-8.952,10.645,10.645,0,0,0-4.168-8.716,15.7,15.7,0,0,0-19.616,0A10.648,10.648,0,0,0,3.8,15.987a15.49,15.49,0,0,0,2.958,8.952c4.007,5.638,6.051,9.522,7.057,13.406Z" transform="translate(0 0)" fill="#fff"/>
        <path id="Trazado_873408" data-name="Trazado 873408" d="M11.466,18.179l-3.573-1.3a15.011,15.011,0,0,1,3.679-5.791,15.263,15.263,0,0,1,5.456-3.3l1.287,3.576A10.643,10.643,0,0,0,11.466,18.179Z" transform="translate(-0.393 -0.388)" fill="#fff"/>
        <path id="Trazado_873409" data-name="Trazado 873409" d="M9.147,43.463H27.708V46.7a9.281,9.281,0,0,1-18.561,0Zm15.71,2.851H12V46.7a6.43,6.43,0,0,0,12.86,0Z" transform="translate(-0.455 -2.163)" fill="#fff"/>
      </g>
    </g>
    <g id="Grupo_1099374" data-name="Grupo 1099374" transform="translate(2457 -8924.422)">
      <g id="Grupo_1099373" data-name="Grupo 1099373" transform="translate(0 0)" clip-path="url(#clip-path-7)">
        <path id="Trazado_873410" data-name="Trazado 873410" d="M17.869,35.738A17.869,17.869,0,1,1,35.738,17.869,17.889,17.889,0,0,1,17.869,35.738m0-31.463A13.594,13.594,0,1,0,31.463,17.869,13.609,13.609,0,0,0,17.869,4.275" transform="translate(0 0)" fill="#fff"/>
        <rect id="Rectángulo_401223" data-name="Rectángulo 401223" width="4.275" height="15.97" transform="translate(30.231 33.414) rotate(-45)" fill="#fff"/>
      </g>
    </g>
    <text id="_1._Segmentación_del_mercado" data-name="1. Segmentación 
del mercado" transform="translate(2254 -8927.568)" fill="#12263f" font-size="20" font-family="Roboto-Black, Roboto" font-weight="800"><tspan x="0" y="19">1. </tspan><tspan y="19" font-family="Roboto-Regular, Roboto" font-weight="400">Segmentación </tspan><tspan font-family="Roboto-Regular, Roboto" font-weight="400"><tspan x="0" y="46">del mercado</tspan></tspan></text>
    <text id="_2._Identificación_de_prospectos" data-name="2. Identificación
de prospectos" transform="translate(2551.547 -8928.182)" fill="#12263f" font-size="20" font-family="Roboto-Black, Roboto" font-weight="800"><tspan x="0" y="19">2. </tspan><tspan y="19" font-family="Roboto-Regular, Roboto" font-weight="400">Identificación</tspan><tspan font-family="Roboto-Regular, Roboto" font-weight="400"><tspan x="0" y="46">de prospectos</tspan></tspan></text>
    <text id="_3._Definición_de_candidatos" data-name="3. Definición de candidatos" transform="translate(2260 -8648.926)" fill="#12263f" font-size="20" font-family="Roboto-Black, Roboto" font-weight="800"><tspan x="0" y="19">3. </tspan><tspan y="19" font-family="Roboto-Regular, Roboto" font-weight="400">Definición de </tspan><tspan x="0" y="46" font-family="Roboto-Regular, Roboto" font-weight="400">candidatos</tspan></text>
    <text id="_4._Contacto_inicial" data-name="4. Contacto inicial" transform="translate(2535.245 -8648.926)" fill="#12263f" font-size="20" font-family="Roboto-Black, Roboto" font-weight="800"><tspan x="0" y="19">4. </tspan><tspan y="19" font-family="Roboto-Regular, Roboto" font-weight="400">Contacto inicial</tspan></text>
    <text id="_5._Preparación_de_la_entrevista" data-name="5. Preparación
de la entrevista" transform="translate(2829.926 -8648.926)" fill="#12263f" font-size="20" font-family="Roboto-Black, Roboto" font-weight="800"><tspan x="0" y="19">5. </tspan><tspan y="19" font-family="Roboto-Regular, Roboto" font-weight="400">Preparación</tspan><tspan font-family="Roboto-Regular, Roboto" font-weight="400"><tspan x="0" y="46">de la entrevista</tspan></tspan></text>
  </g>
</svg>
