<svg xmlns="http://www.w3.org/2000/svg" xmlns:xlink="http://www.w3.org/1999/xlink" width="820" height="601.97" viewBox="0 0 820 601.97">
  <defs>
    <filter id="Rectángulo_401218" x="222" y="403.315" width="461" height="198.654" filterUnits="userSpaceOnUse">
      <feOffset dy="3" input="SourceAlpha"/>
      <feGaussianBlur stdDeviation="10" result="blur"/>
      <feFlood flood-color="#0f1f33" flood-opacity="0.235"/>
      <feComposite operator="in" in2="blur"/>
      <feComposite in="SourceGraphic"/>
    </filter>
  </defs>
  <g id="Grupo_1102578" data-name="Grupo 1102578" transform="translate(-390 -16318.087)">
    <g id="Grupo_1102253" data-name="Grupo 1102253" transform="translate(-19 2651)">
      <line id="Línea_363" data-name="Línea 363" y2="345.955" transform="translate(624.127 13729.942)" fill="none" stroke="#707070" stroke-width="2"/>
      <line id="Línea_364" data-name="Línea 364" y2="224.433" transform="translate(895.635 13729.942)" fill="none" stroke="#707070" stroke-width="2"/>
      <line id="Línea_366" data-name="Línea 366" y2="224.433" transform="translate(793.82 13729.942)" fill="none" stroke="#707070" stroke-width="2"/>
      <line id="Línea_365" data-name="Línea 365" y2="224.433" transform="translate(1017.158 13729.942)" fill="none" stroke="#707070" stroke-width="2"/>
      <path id="Trazado_874771" data-name="Trazado 874771" d="M-5476,2229.348s105.526,9.578,182.452-68.845,113.753-153.012,162.408-148.655,92.56,120.378,169.37,186.714" transform="translate(6094.105 11725.027)" fill="none" stroke="#75baf1" stroke-width="5"/>
      <path id="Trazado_874772" data-name="Trazado 874772" d="M-5601,2223.439s60.058.923,106.731,23.654,54.638,37.683,79,38.062,59.33-23.617,115.623-74.687,142.866-48.729,189.587-37.343,110.331,47.437,150.089,37.343" transform="translate(6082.256 11739.694)" fill="none" stroke="#be79ca" stroke-width="6"/>
      <rect id="Rectángulo_401216" data-name="Rectángulo 401216" width="14" height="346" transform="translate(467 13729.087)" fill="#6e3dc6"/>
      <rect id="Rectángulo_401217" data-name="Rectángulo 401217" width="658" height="18" transform="translate(481 13954.087)" fill="#6e3dc6"/>
      <text id="Tiempo" transform="translate(1192 13972.087)" fill="#12263f" font-size="21" font-family="Roboto-Black, Roboto" font-weight="800"><tspan x="-36.073" y="0">Tiempo</tspan></text>
      <text id="Ventas_y_utilidades_" data-name="Ventas y
utilidades ($)" transform="translate(472 13687.087)" fill="#12263f" font-size="21" font-family="Roboto-Black, Roboto" font-weight="800"><tspan x="-40.959" y="0">Ventas y</tspan><tspan x="-62.764" y="28">utilidades ($)</tspan></text>
      <text id="Pérdidas_inversión_" data-name="Pérdidas/
inversión ($)" transform="translate(472 14110.087)" fill="#12263f" font-size="21" font-family="Roboto-Black, Roboto" font-weight="800"><tspan x="-45.702" y="0">Pérdidas/</tspan><tspan x="-60.042" y="28">inversión ($)</tspan></text>
      <text id="_0" data-name="0" transform="translate(450 13971.087)" fill="#12263f" font-size="25" font-family="Roboto-Black, Roboto" font-weight="800"><tspan x="-7.239" y="0">0</tspan></text>
      <text id="Ventas" transform="translate(1064 13780.087)" fill="#75baf1" font-size="22" font-family="Roboto-Black, Roboto" font-weight="800"><tspan x="-34.472" y="0">Ventas</tspan></text>
      <text id="Utilidades" transform="translate(954 13888.087)" fill="#be79ca" font-size="22" font-family="Roboto-Black, Roboto" font-weight="800"><tspan x="-49.994" y="0">Utilidades</tspan></text>
      <text id="Desarrollo_del_producto" data-name="Desarrollo
del producto" transform="translate(551 14041.087)" fill="#12263f" font-size="17" font-family="Roboto-Regular, Roboto"><tspan x="-38.574" y="0">Desarrollo</tspan><tspan x="-47.344" y="29">del producto</tspan></text>
      <text id="Introducción" transform="translate(716 14056.087)" fill="#12263f" font-size="17" font-family="Roboto-Regular, Roboto"><tspan x="-47.397" y="0">Introducción</tspan></text>
      <text id="Crecimiento" transform="translate(843 14056.087)" fill="#12263f" font-size="17" font-family="Roboto-Regular, Roboto"><tspan x="-45.592" y="0">Crecimiento</tspan></text>
      <text id="Madurez" transform="translate(959 14056.087)" fill="#12263f" font-size="17" font-family="Roboto-Regular, Roboto"><tspan x="-33.037" y="0">Madurez</tspan></text>
      <text id="Decadencia" transform="translate(1079 14056.087)" fill="#12263f" font-size="17" font-family="Roboto-Regular, Roboto"><tspan x="-44.272" y="0">Decadencia</tspan></text>
    </g>
    <g id="Grupo_1102254" data-name="Grupo 1102254" transform="translate(44 2191.121)">
      <circle id="Elipse_11538" data-name="Elipse 11538" cx="25" cy="25" r="25" transform="translate(628 14448.965)" fill="#be79ca" opacity="0.524"/>
      <circle id="Elipse_11539" data-name="Elipse 11539" cx="16" cy="16" r="16" transform="translate(637 14457.965)" fill="#6e3dc6"/>
      <circle id="Elipse_11540" data-name="Elipse 11540" cx="9" cy="9" r="9" transform="translate(644 14464.965)" fill="#f9ce24"/>
    </g>
    <g transform="matrix(1, 0, 0, 1, 390, 16318.09)" filter="url(#Rectángulo_401218)">
      <g id="Rectángulo_401218-2" data-name="Rectángulo 401218" transform="translate(252 430.32)" fill="#be79ca" stroke="#6e3dc6" stroke-width="1" opacity="0.503">
        <rect width="401" height="138.654" rx="14" stroke="none"/>
        <rect x="0.5" y="0.5" width="400" height="137.654" rx="13.5" fill="none"/>
      </g>
    </g>
    <text id="Aspectos_clave_en_la_etapa_de_introducción:" data-name="Aspectos clave en la etapa de introducción:" transform="translate(659 16766.086)" fill="#12263f" font-size="16" font-family="Roboto-Regular, Roboto"><tspan x="0" y="15">Aspectos clave en la etapa de </tspan><tspan y="15" font-family="Roboto-Bold, Roboto" font-weight="700">introducción:</tspan></text>
    <text id="Lento_crecimiento_de_ventas_Las_utilidades_son_negativas_o_mínimas_Altos_gastos_de_distribución_y_promoción." data-name="Lento crecimiento de ventas
Las utilidades son negativas o mínimas 
Altos gastos de distribución y promoción." transform="translate(682 16800.086)" fill="#12263f" font-size="16" font-family="Roboto-Regular, Roboto"><tspan x="0" y="15">Lento crecimiento de ventas</tspan><tspan x="0" y="37">Las utilidades son negativas o mínimas </tspan><tspan x="0" y="59">Altos gastos de distribución y promoción.</tspan></text>
  </g>
</svg>
